<svg xmlns="http://www.w3.org/2000/svg" viewBox="0 0 37.01 48.9"><defs><style>.cls-1{fill:#fff;}</style></defs><title>1_image</title><g id="レイヤー_2" data-name="レイヤー 2"><g id="レイヤー_1-2" data-name="レイヤー 1"><path class="cls-1" d="M37,0V48.9H32.47V1.68L24.09,7.82l-.7-1L32.47,0Z"/><path class="cls-1" d="M5.86,3V19.06H4.48L1.24,8.19.58,5.38V19.06H0V3H1.38l3.2,10.74.71,2.71V3Z"/><path class="cls-1" d="M7.94,10.46C7.94,8.19,9.14,7,10.81,7s2.88,1.2,2.88,3.47v5.25c0,2.27-1.2,3.47-2.88,3.47S7.94,18,7.94,15.71Zm1.43,6.21c0,1.57.59,2.16,1.44,2.16s1.43-.59,1.43-2.16V9.5c0-1.57-.6-2.16-1.43-2.16S9.37,7.93,9.37,9.5Z"/><path class="cls-1" d="M16.68,18.37a.81.81,0,1,1-1.61,0v-.11a.81.81,0,1,1,1.61,0Z"/></g></g></svg>