<svg xmlns="http://www.w3.org/2000/svg" viewBox="0 0 83.16 107.08"><defs><style>.cls-1{fill:#fff;}</style></defs><title>2_image</title><g id="レイヤー_2" data-name="レイヤー 2"><g id="レイヤー_1-2" data-name="レイヤー 1"><path class="cls-1" d="M61.1,14.71C61.1,4.33,65.43,0,71.92,0c6.92,0,11.24,4.33,11.24,14.71v9.08c0,20.68-20.5,20.33-20.5,31.49h20.5V61H61.1V56c0-11.42,16.44-14.45,16.44-27.86V10.38c0-6.57-2.16-9.08-5.62-9.08s-5.63,2.51-5.63,9.08V24.22a2.6,2.6,0,1,1-5.19,0Z"/><path class="cls-1" d="M39.68.9V17H38.3L35.06,6.12l-.67-2.81V17h-.57V.9H35.2l3.2,10.74.71,2.71V.9Z"/><path class="cls-1" d="M41.76,8.39c0-2.27,1.19-3.47,2.87-3.47s2.88,1.2,2.88,3.47v5.25c0,2.27-1.2,3.47-2.88,3.47s-2.87-1.2-2.87-3.47Zm1.42,6.21c0,1.57.6,2.16,1.45,2.16s1.43-.59,1.43-2.16V7.43c0-1.57-.6-2.16-1.43-2.16s-1.45.59-1.45,2.16Z"/><path class="cls-1" d="M50.5,16.3a.79.79,0,0,1-.81.81.79.79,0,0,1-.8-.81v-.11a.78.78,0,0,1,.8-.8.79.79,0,0,1,.81.8Z"/><path class="cls-1" d="M.27,90.85q35.63,9.8,72.05,16.22c.47.09.68-.61.2-.72L24.36,95.11c-.39-.09-.69.49-.29.69a43.35,43.35,0,0,0,18.85,4.37.38.38,0,0,0,.1-.74,23.62,23.62,0,0,0-21.69,2.37.38.38,0,0,0-.07.59c3.82,4.24,9.32,4.54,14.61,3.21,9.38-2.35,16.9-10.6,27.19-8.55.47.1.67-.63.2-.72-6.68-1.33-12.39,1.5-18.19,4.52A41.06,41.06,0,0,1,35,105a19.39,19.39,0,0,1-5.88.5c-1.16-.11-6.09-1.08-6.47-2.71-.72-3.15,9.91-4.32,11.51-4.33A25.89,25.89,0,0,1,40,99.2c3.81.87-1.54,0-2.27-.08-3.87-.45-8.74-2.21-11.62-2.84,4.51,1,9,2.1,13.48,3.15l25,5.85c1.19.27,5.61,2,6,.73,0,.12-5.5-1-5.74-1q-6.69-1.25-13.36-2.6Q25.79,97.12.46,90.13a.37.37,0,0,0-.19.72Z"/><path class="cls-1" d="M18.79,83.35a124.41,124.41,0,0,0,51.26,13.9c.44,0,.49-.61.1-.74A72.28,72.28,0,0,0,44,92.89c-.48,0-.48.77,0,.75a70.83,70.83,0,0,1,19.15,1.64c1.06.25,8.08,1.79,3.31,1-3.75-.61-7.6-.74-11.37-1.38a122.84,122.84,0,0,1-36-12.21c-.43-.22-.81.43-.38.65Z"/></g></g></svg>