<svg xmlns="http://www.w3.org/2000/svg" viewBox="0 0 173.04 111.55"><defs><style>.cls-1{fill:#fff;}</style></defs><title>3_image</title><g id="レイヤー_2" data-name="レイヤー 2"><g id="レイヤー_1-2" data-name="レイヤー 1"><path class="cls-1" d="M102,46.8a2.73,2.73,0,0,1,2.84,2.84v5.67c0,7.18,2.36,9.93,6.14,9.93s6.15-2.75,6.15-9.93V34c0-7-2.36-9.74-6.15-9.74-4.25,0-7.75,3.59-7.75,3.59L102,26.47,120,6.24h-20V0h23.17V5.67l-17,18.63a8.76,8.76,0,0,1,5.2-1.61c7.09,0,11.82,4.73,11.82,16.07V50.58c0,11.35-4.73,16.07-12.3,16.07-7.09,0-11.81-4.72-11.81-16.07v-.94A2.72,2.72,0,0,1,102,46.8Z"/><path class="cls-1" d="M77.13.51V18.1H75.62L72.08,6.21l-.73-3.06v15h-.63V.51h1.51l3.49,11.73.78,3V.51Z"/><path class="cls-1" d="M79.37,8.7c0-2.49,1.31-3.8,3.15-3.8s3.14,1.31,3.14,3.8v5.73c0,2.49-1.31,3.79-3.14,3.79s-3.15-1.3-3.15-3.79Zm1.56,6.79c0,1.7.66,2.36,1.59,2.36s1.55-.66,1.55-2.36V7.64c0-1.7-.65-2.36-1.55-2.36s-1.59.66-1.59,2.36Z"/><path class="cls-1" d="M88.91,17.34a.88.88,0,1,1-1.76,0v-.12a.88.88,0,0,1,1.76,0Z"/><path class="cls-1" d="M.58,111.52A721.21,721.21,0,0,1,153.11,65.34c1.82-.34,3.76-.53,5.55-1,3.36-.91,1.64-.59.9-.22-3.25,1.6-6.7,2.86-10.07,4.21Q140.55,71.9,131.43,75A384,384,0,0,1,94.38,85.5q-20.09,4.62-40.56,7.21a31.08,31.08,0,0,0-4.55.56c-1.28.38-2.89.69-.7.57,3.11-.15,6.42-1.23,9.51-1.77q11.39-2,22.87-3.36a435.42,435.42,0,0,1,91.73-1.14c.48,0,.48-.71,0-.75A437.63,437.63,0,0,0,45.52,93.69c-.41.09-.32.79.1.74C85.87,90,125.39,80.08,162.45,63.65c.42-.18.1-.75-.28-.68a725.62,725.62,0,0,0-162,47.9c-.45.19-.06.84.38.65Z"/></g></g></svg>