<svg xmlns="http://www.w3.org/2000/svg" viewBox="0 0 49.6 221"><defs><style>.cls-1{fill:#0c98a0;fill-opacity:0.5;}.cls-2{fill:#fff;}</style></defs><title>4-1_image</title><g id="レイヤー_2" data-name="レイヤー 2"><g id="レイヤー_1-2" data-name="レイヤー 1"><rect class="cls-1" width="49.6" height="221"/><path class="cls-2" d="M38.68,32.08H13.48V29.74H34.72L13.48,25.56V23.3l21.24-4.36H13.48V18h25.2v2.34l-18.79,4.1-4.39.69,23.18,4.5Z"/><path class="cls-2" d="M13.48,38V35.66h25.2V38Z"/><path class="cls-2" d="M22.3,45.09l16.38-4.71v2.37L25.94,46.24l-2.56.65,15.3,3.6v.9l-16.38-4H13.48V45.09Z"/><path class="cls-2" d="M19.24,58.44v-5.8l-5.76-1v-.9l25.2,4.47v2.34l-25.2,4.35V59.41ZM20,52.79v5.5l13-2.15,3.75-.51Z"/><path class="cls-2" d="M32.38,63.78c4.5,0,6.48,2,6.48,5s-2,5-6.48,5H19.78c-4.5,0-6.48-2-6.48-5s2-5,6.48-5Zm1.8,7.73c2.92,0,4.14-1.08,4.14-2.69s-1.22-2.7-4.14-2.7H18c-2.91,0-4.14,1.08-4.14,2.7s1.23,2.69,4.14,2.69Z"/><path class="cls-2" d="M7.36,80.88v-.72l33.48,9.35v.72Z"/><path class="cls-2" d="M14.2,105h-.72V97.07h25.2v2.34H14.2Z"/><path class="cls-2" d="M19.24,114v-5.8l-5.76-1v-.9l25.2,4.46v2.34l-25.2,4.36v-2.52Zm.72-5.66v5.51l13-2.16,3.75-.5Z"/><path class="cls-2" d="M19.78,119.28h12.6c4.5,0,6.48,2,6.48,5,0,2.88-1.8,4.68-6.3,4.68H29.68v-2.16h4.5c2.92,0,4.14-1.08,4.14-2.52,0-1.62-1.22-2.7-4.14-2.7H18c-2.91,0-4.14,1.08-4.14,2.7,0,1.44,1.23,2.52,4.14,2.52h4.68V129H19.6c-4.5,0-6.3-1.8-6.3-4.68C13.3,121.26,15.28,119.28,19.78,119.28Z"/><path class="cls-2" d="M14.13,140.12h-.65V132h25.2v7.56H38v-5.22H26.62v4H26v-4H14.13Z"/><path class="cls-2" d="M19.24,155.77c-4,0-5.94-2-5.94-4.86,0-2.7,2-4.67,5.94-4.67h3.24v2.15H17.8c-2.7,0-4,1.08-4,2.52s1.26,2.52,4,2.52h2c3,0,4.14-1.26,6.12-3.34l.65-.69c1.62-1.69,2.91-3.16,5.61-3.16h1.62c3.06,0,5,2,5,4.67,0,2.52-2,4.5-5,4.5H30.58v-2.16h4c2.52,0,3.78-1.08,3.78-2.34s-1.26-2.33-3.78-2.33H32.92c-2.16,0-3.27,1.15-4.71,2.66l-.65.68c-1.95,2.05-3.82,3.85-6.59,3.85Z"/><path class="cls-2" d="M38.68,168.78H13.48v-2.34H25.54V161H13.48V158.7h25.2V161H26.26v5.4H38.68Z"/><path class="cls-2" d="M13.48,174.69v-2.34h25.2v2.34Z"/><path class="cls-2" d="M24.75,184.12l-11.27,4.57V186l11.16-4.17v-1.3H13.48v-2.34h25.2v4.5c0,3.24-1.44,4.68-4.68,4.68H29.32C26.59,187.39,25.15,186.35,24.75,184.12Zm10,.93c2.59,0,3.31-.72,3.31-2v-2.52H25.36v2.52c0,1.26.72,2,3.24,2Z"/><path class="cls-2" d="M13.48,193.09H38V189h.65v10.62H38v-4.14H13.48Z"/></g></g></svg>