<svg xmlns="http://www.w3.org/2000/svg" viewBox="0 0 48.29 66.18"><defs><style>.cls-1{fill:#fff;}</style></defs><title>4_image</title><g id="レイヤー_2" data-name="レイヤー 2"><g id="レイヤー_1-2" data-name="レイヤー 1"><path class="cls-1" d="M17.56,50.11,35.34,0h6.14V50.11h6.81v1.7H41.48V66.18H35.34V51.81H17.56Zm17.78,0V10.4l.09-5.29-15.69,45Z"/><path class="cls-1" d="M6.41,2.51V20.1H4.9L1.36,8.21.63,5.15v15H0V2.51H1.51L5,14.24l.78,3V2.51Z"/><path class="cls-1" d="M8.66,10.7c0-2.49,1.3-3.79,3.14-3.79s3.14,1.3,3.14,3.79v5.73c0,2.49-1.31,3.79-3.14,3.79s-3.14-1.3-3.14-3.79Zm1.55,6.79c0,1.7.66,2.36,1.59,2.36s1.56-.66,1.56-2.36V9.64c0-1.7-.66-2.36-1.56-2.36s-1.59.66-1.59,2.36Z"/><path class="cls-1" d="M18.19,19.34a.88.88,0,0,1-1.76,0v-.12a.88.88,0,1,1,1.76,0Z"/></g></g></svg>