<svg xmlns="http://www.w3.org/2000/svg" viewBox="0 0 289.4 49.6"><defs><style>.cls-1{fill:#ff801e;fill-opacity:0.5;}.cls-2{fill:#fff;}</style></defs><title>5-1_image</title><g id="レイヤー_2" data-name="レイヤー 2"><g id="レイヤー_1-2" data-name="レイヤー 1"><rect class="cls-1" x="119.9" y="-119.9" width="49.6" height="289.4" transform="translate(119.9 169.5) rotate(-90)"/><path class="cls-2" d="M30.85,26v4.68c0,3.24-1.45,4.68-4.69,4.68h-4.5l0-25.2h4.14c3.24,0,4.5,1.27,4.5,4.14v3.68c0,3.63-2.88,3.63-2.88,3.63S30.86,21.56,30.85,26ZM24,21.45h2.16c1.08,0,1.8-.72,1.8-2.77V13.53c0-2-.72-2.77-1.8-2.77H24Zm4.49,3.78c0-2.52-.71-3.24-2-3.24H24l0,12.67h2.52c1.26,0,2-.72,2-3.31Z"/><path class="cls-2" d="M39.78,33.45a3,3,0,0,1-2.67,2c-2.48,0-3.77-1.3-3.77-4.29V28.77c0-2.81,1.48-4.32,3.75-4.32a2.55,2.55,0,0,1,2.63,1.88V20c0-2.27-.76-3-1.87-3S36,17.72,36,19.91V21.1a1.14,1.14,0,0,1-2.27,0v-.25c0-3,1.52-4.43,4.15-4.42S42,17.91,42,21.11l0,14.22H39.85Zm-.06-6s-.58-2.38-2.09-2.38c-1.11,0-1.87.64-1.88,3.67v2.45c0,2.91.72,3.67,1.87,3.67,1.51,0,2.09-2.34,2.09-2.34Z"/><path class="cls-2" d="M47.21,22.05l0,13.29H44.92l0-18.72h2.26v4.1s.94-4.28,3.35-4.28c1.15,0,1.51.54,1.51,1.26a1.13,1.13,0,0,1-1.29,1.15c-.47,0-.69-.18-1.16-.18C48.11,18.67,47.5,20.61,47.21,22.05Z"/><path class="cls-2" d="M62.93,30.1c0,4-1.52,5.43-3.75,5.43a2.91,2.91,0,0,1-3-2.41v2.23H53.92l0-25.19h2.26v8.71a2.93,2.93,0,0,1,3-2.41c2.23,0,3.74,1.48,3.74,5.44Zm-2.22-9.54c0-2.41-.93-3.35-2.08-3.35s-2.42,1.29-2.42,4.28v9c0,3,1.29,4.28,2.4,4.28s2.09-.93,2.09-3.34Z"/><path class="cls-2" d="M71.86,33.5a3,3,0,0,1-2.66,2c-2.49,0-3.78-1.31-3.78-4.29V28.81c0-2.81,1.48-4.32,3.74-4.32a2.54,2.54,0,0,1,2.63,1.88V20c0-2.26-.75-3-1.87-3s-1.87.75-1.88,2.95v1.19a1.13,1.13,0,0,1-2.26,0v-.25c0-2.95,1.51-4.42,4.14-4.42S74,18,74,21.15l0,14.22H71.93Zm-.06-6s-.57-2.37-2.09-2.38c-1.11,0-1.87.65-1.87,3.67v2.45c0,2.92.72,3.67,1.87,3.67,1.51,0,2.09-2.33,2.09-2.33Z"/><path class="cls-2" d="M79.29,22.1l0,13.28H77l0-18.72H79.3v4.1s.94-4.28,3.36-4.27c1.15,0,1.51.54,1.51,1.26a1.15,1.15,0,0,1-1.3,1.15c-.47,0-.69-.18-1.15-.18C80.19,18.71,79.58,20.66,79.29,22.1Z"/><path class="cls-2" d="M91.82,33.52a3,3,0,0,1-2.67,2c-2.48,0-3.78-1.3-3.77-4.29V28.84c0-2.81,1.48-4.32,3.75-4.32a2.53,2.53,0,0,1,2.62,1.88V20.06c0-2.27-.75-3-1.87-3S88,17.79,88,20v1.19a1.11,1.11,0,0,1-1.16,1.12,1.09,1.09,0,0,1-1.11-1.12v-.25c0-3,1.52-4.43,4.15-4.42S94,18,94,21.18L94,35.4H91.89Zm-.07-6s-.57-2.38-2.08-2.38c-1.12,0-1.87.65-1.88,3.67v2.45c0,2.91.71,3.67,1.86,3.67,1.52,0,2.1-2.34,2.1-2.34Z"/><path class="cls-2" d="M105.15,21.74h.61l5.89-11.51h.93L107.13,21l7,14.41H111.5l-5.92-13h-.43l0,12.95h-2.34l0-25.2h2.34Z"/><path class="cls-2" d="M118.17,22.15l0,13.28h-2.26l0-18.72h2.27v4.11s1-4.28,3.36-4.28c1.15,0,1.51.54,1.51,1.26a1.14,1.14,0,0,1-1.3,1.15c-.47,0-.68-.18-1.15-.18C119.08,18.77,118.46,20.71,118.17,22.15Z"/><path class="cls-2" d="M127.16,31.52c0,2.63.75,3.35,1.87,3.35s2.41-1.29,2.41-4.28l0-13.86h2.27l0,18.71h-2.26V33.22a3.12,3.12,0,0,1-3,2.41c-2.23,0-3.56-1.3-3.56-4.69l0-14.22h2.27Z"/><path class="cls-2" d="M145.32,37.31c0,2-1.48,3.56-4.51,3.55s-4.46-1.52-4.46-3.57v-.83A3.29,3.29,0,0,1,137.44,34l3.17-3.53c-2.66-.07-4.07-1.59-4.06-4.5V21.06c0-3,1.48-4.5,4.28-4.49,1.88,0,3.21.68,3.82,2,.54-.51.5-1.62.51-3v-.28c0-.54.18-1.12.93-1.12s.94.58.94,1.12v.29c0,2.23-1,3.13-2.17,3.38a6.84,6.84,0,0,1,.29,2.05v4.86c0,2.7-1.23,4.17-3.53,4.46l-2.42,2.69a7.75,7.75,0,0,1,1.62-.17c3,0,4.5,1.52,4.5,3.57Zm-6.74.38a2.27,2.27,0,1,0,4.5,0V36.11a2.28,2.28,0,1,0-4.5,0Zm4.35-17.2c0-2.63-.93-3.38-2.09-3.38s-2.05.75-2.05,3.38v6c0,2.63.93,3.39,2.05,3.39s2.09-.76,2.09-3.38Z"/><path class="cls-2" d="M156.56,24.83h-6.19v6.91c0,2.45.93,3.39,2.08,3.39s2.06-.93,2.06-3.38v-3h2.06v1.48c0,3.56-1.88,5.43-4.11,5.43-2.45,0-4.31-1.88-4.31-5.44V22c0-3.56,1.88-5.43,4.33-5.43,2.23,0,4.1,1.88,4.09,5.44Zm-2-4.32c0-2.45-.94-3.39-2.05-3.39s-2.09.93-2.09,3.38v3.71h4.14Z"/><path class="cls-2" d="M161.5,22.21l0,13.28h-2.27l0-18.72h2.27v4.11s.94-4.29,3.36-4.28c1.15,0,1.51.54,1.51,1.26a1.15,1.15,0,0,1-1.3,1.15c-.47,0-.69-.18-1.15-.18C162.4,18.83,161.79,20.77,161.5,22.21Z"/><path class="cls-2" d="M171.37,41.62h-.72l9.41-33.46h.72Z"/><path class="cls-2" d="M192.1,23.11h4.68v6.3c0,4.5-1.81,6.3-4.69,6.29-3.06,0-5-2-5-6.48l0-12.6c0-4.5,2-6.48,5.05-6.47,2.88,0,4.67,1.8,4.67,6.3V18.8h-2.16v-4c0-2.92-1.07-4.14-2.52-4.14-1.61,0-2.7,1.22-2.7,4.13l0,16.2c0,2.92,1.07,4.14,2.69,4.14,1.44,0,2.52-1.22,2.53-4.13v-7.2H192.1Z"/><path class="cls-2" d="M201.93,22.26l0,13.29h-2.26l0-18.71h2.27v4.1s.95-4.28,3.36-4.28c1.15,0,1.51.55,1.51,1.27a1.14,1.14,0,0,1-1.3,1.14c-.47,0-.68-.18-1.15-.18C202.84,18.88,202.22,20.82,201.93,22.26Z"/><path class="cls-2" d="M214.46,33.69a3,3,0,0,1-2.67,2.05c-2.48,0-3.78-1.3-3.77-4.29V29c0-2.8,1.48-4.31,3.75-4.31a2.54,2.54,0,0,1,2.63,1.87V20.23c0-2.27-.75-3-1.86-3s-1.88.76-1.88,2.95v1.19a1.14,1.14,0,0,1-2.27,0v-.25c0-3,1.52-4.43,4.15-4.43s4.1,1.48,4.09,4.69l0,14.22h-2.08Zm-.07-6s-.57-2.38-2.08-2.38c-1.12,0-1.87.64-1.88,3.67v2.44c0,2.92.71,3.68,1.87,3.68,1.51,0,2.09-2.34,2.09-2.34Z"/><path class="cls-2" d="M224.85,35.76a2.92,2.92,0,0,1-3-2.42v7.27h-2.27l0-23.76h2.26v2.23a2.91,2.91,0,0,1,3-2.41c2.23,0,3.74,1.48,3.74,5.44v8.21C228.6,34.29,227.09,35.76,224.85,35.76Zm1.54-15c0-2.42-.93-3.35-2.09-3.35s-2.41,1.29-2.41,4.28l0,9c0,3,1.29,4.29,2.41,4.29s2.09-.93,2.09-3.34Z"/><path class="cls-2" d="M240.3,21.38l0,14.22H238l0-14.8c0-2.63-.72-3.35-1.87-3.35s-2.41,1.29-2.42,4.28V35.59h-2.27l0-25.2h2.27V19.1a3.11,3.11,0,0,1,3-2.4C239,16.7,240.3,18,240.3,21.38Z"/><path class="cls-2" d="M245.64,13.11a1.26,1.26,0,1,1-2.52,0v-.18a1.26,1.26,0,0,1,2.52,0Zm-2.4,22.49,0-18.72h2.27l0,18.72Z"/><path class="cls-2" d="M250.5,20.64l0,11.23c0,2.45.94,3.38,2.09,3.38s2.05-.93,2.05-3.38v-3h2.05v1.48c0,3.56-1.88,5.43-4.11,5.42-2.45,0-4.32-1.87-4.32-5.44l0-8.2c0-3.57,1.88-5.44,4.32-5.43s4.1,1.69,4.1,4.79v1a1,1,0,0,1-1,1.11,1,1,0,0,1-1-1.11V20.57c0-1.83-.39-3.31-2-3.31C251.44,17.26,250.5,18.19,250.5,20.64Z"/><path class="cls-2" d="M266.57,35.63l0-24.54h-4.14v-.65l10.61,0v.64h-4.14l0,24.55Z"/></g></g></svg>