<svg xmlns="http://www.w3.org/2000/svg" viewBox="0 0 43.48 51.79"><defs><style>.cls-1{fill:#fff;}</style></defs><title>5_image</title><g id="レイヤー_2" data-name="レイヤー 2"><g id="レイヤー_1-2" data-name="レイヤー 1"><path class="cls-1" d="M27,36.44a2.11,2.11,0,0,1,2.19,2.19V43c0,5.55,1.83,7.67,4.75,7.67s4.75-2.12,4.75-7.67V26.21c0-5.48-1.82-7.67-4.75-7.67-3.28,0-6.21,2.19-6.21,8.4H26.31V.27H43.48V5.09H27.77V21.83a6.75,6.75,0,0,1,6.36-4.39c5.7,0,9.35,3.66,9.35,12.43v9.5c0,8.76-3.65,12.42-9.5,12.42-5.48,0-9.13-3.66-9.13-12.42v-.74A2.11,2.11,0,0,1,27,36.44Z"/><path class="cls-1" d="M6.41,0V17.59H4.9L1.36,5.71.63,2.64v15H0V0H1.51L5,11.74l.78,3V0Z"/><path class="cls-1" d="M8.66,8.19C8.66,5.71,10,4.4,11.8,4.4s3.14,1.31,3.14,3.79v5.73c0,2.49-1.31,3.8-3.14,3.8s-3.14-1.31-3.14-3.8ZM10.21,15c0,1.71.66,2.36,1.59,2.36s1.56-.65,1.56-2.36V7.14c0-1.71-.66-2.36-1.56-2.36s-1.59.65-1.59,2.36Z"/><path class="cls-1" d="M18.19,16.84a.88.88,0,0,1-1.76,0v-.13a.88.88,0,0,1,1.76,0Z"/></g></g></svg>