<svg xmlns="http://www.w3.org/2000/svg" viewBox="0 0 144.77 95.07"><defs><style>.cls-1{fill:#fff;}</style></defs><title>6-1_image</title><g id="レイヤー_2" data-name="レイヤー 2"><g id="レイヤー_1-2" data-name="レイヤー 1"><path class="cls-1" d="M2.1,27.73,0,14.11l2.84-.44a23.25,23.25,0,0,1,4.53-.39,6.35,6.35,0,0,1,2.47.64,5.72,5.72,0,0,1,2.32,2A7.53,7.53,0,0,1,13.33,19a7.46,7.46,0,0,1-.18,3.32A5.87,5.87,0,0,1,11.55,25a6.49,6.49,0,0,1-2.1,1.33,18.81,18.81,0,0,1-3.89.9l-.62.1Zm3.21-3.62L5.93,24A4.77,4.77,0,0,0,9,22.63a3.69,3.69,0,0,0,.57-3A3.71,3.71,0,0,0,8.1,16.91a4.65,4.65,0,0,0-3.33-.42l-.62.1Z"/><path class="cls-1" d="M16.13,25.57,14,11.94l3.88-.59a16.73,16.73,0,0,1,3.21-.29,4.22,4.22,0,0,1,1.66.47,3.67,3.67,0,0,1,1.35,1.25,4.63,4.63,0,0,1,.69,1.84,4.1,4.1,0,0,1-.38,2.7A3.83,3.83,0,0,1,22.38,19l4.56,4.92-4.2.65L18.79,19.7,19.61,25Zm2.37-7.72.69-.11a3,3,0,0,0,1.69-.68,1.51,1.51,0,0,0,.36-1.37,1.86,1.86,0,0,0-.74-1.38,2.76,2.76,0,0,0-1.8-.16l-.75.11Z"/><path class="cls-1" d="M28.54,23.65,26.44,10l8.35-1.29.46,3-4.73.73.37,2.36,4.45-.69.45,2.93-4.45.68.35,2.3,4.73-.73.47,3.06Z"/><path class="cls-1" d="M39.84,17.4a7.05,7.05,0,0,0,1.85,1.16,3.23,3.23,0,0,0,1.68.21,1.81,1.81,0,0,0,1.16-.59,1.27,1.27,0,0,0,.33-1.08,1.37,1.37,0,0,0-.58-1,5.33,5.33,0,0,0-2-.47,6.18,6.18,0,0,1-3-1,3.33,3.33,0,0,1-1.19-2.25A4.26,4.26,0,0,1,38.86,9a4.84,4.84,0,0,1,3.2-1.76,7.67,7.67,0,0,1,2.19,0,6.92,6.92,0,0,1,2,.62l-.75,2.85a4.69,4.69,0,0,0-1.42-.61A3.53,3.53,0,0,0,42.77,10a1.78,1.78,0,0,0-1,.49,1.07,1.07,0,0,0,.2,1.65,4,4,0,0,0,1.51.37l.17,0a7,7,0,0,1,3.2.89,3.49,3.49,0,0,1,.92,1.09,4.45,4.45,0,0,1,.49,1.52,4.57,4.57,0,0,1-.88,3.71,5.44,5.44,0,0,1-3.6,1.9,6.74,6.74,0,0,1-2.66-.08,7.65,7.65,0,0,1-2.48-1.17Z"/><path class="cls-1" d="M51.2,15.65a6.74,6.74,0,0,0,1.85,1.15,3.24,3.24,0,0,0,1.68.22,1.83,1.83,0,0,0,1.16-.59,1.29,1.29,0,0,0,.33-1.09,1.35,1.35,0,0,0-.58-1,5.33,5.33,0,0,0-2-.47,6.17,6.17,0,0,1-3-1,3.3,3.3,0,0,1-1.19-2.24,4.24,4.24,0,0,1,.81-3.39,4.84,4.84,0,0,1,3.21-1.76,8,8,0,0,1,2.18,0,7,7,0,0,1,2,.63L56.91,9a5,5,0,0,0-1.42-.62,3.52,3.52,0,0,0-1.36-.07,1.73,1.73,0,0,0-1,.49,1,1,0,0,0-.29.89,1,1,0,0,0,.49.76,4,4,0,0,0,1.51.37l.17,0a6.91,6.91,0,0,1,3.2.89,3.38,3.38,0,0,1,.92,1.09,4.45,4.45,0,0,1,.49,1.52A4.55,4.55,0,0,1,58.7,18a5.45,5.45,0,0,1-3.6,1.91,6.92,6.92,0,0,1-2.66-.09A7.26,7.26,0,0,1,50,18.67Z"/><path class="cls-1" d="M83.18,15.22l-3.47.54L78,10c-.12-.41-.24-.86-.37-1.36S77.38,7.58,77.25,7a17.58,17.58,0,0,1-.18,2.24q0,.28-.06.42l-.86,6.67-2.48.38-2.84-6.1-.17-.38a14.27,14.27,0,0,1-.84-2.07c0,.52.07,1,.1,1.55s0,1,.06,1.54l.11,6-3.46.54V3.83l3.67-.57L73.45,10l.11.23a9.37,9.37,0,0,1,.62,1.55,5.7,5.7,0,0,1,0-.82q0-.46.12-1.11l1-7.33L79,1.92Z"/><path class="cls-1" d="M85.18,14.91,83.08,1.29,91.43,0l.46,3-4.73.73.37,2.36L92,5.39l.45,2.93L88,9l.35,2.3,4.73-.73.47,3Z"/><path class="cls-1" d="M69.56,25.26l3.7.19L71.82,32.3q-.18.8-.24,1.23a6.6,6.6,0,0,0-.09.79,1.83,1.83,0,0,0,.43,1.4,1.92,1.92,0,0,0,1.37.56q2.11.11,3.3-5.51l0-.13,1-5,3.7.18L79.73,33.6h0a11.16,11.16,0,0,1-1.2,3.54,5.1,5.1,0,0,1-2.28,2,7.39,7.39,0,0,1-3.35.54A6.15,6.15,0,0,1,69,38.26a3.84,3.84,0,0,1-1.33-3.21c0-.39.09-.91.19-1.56s.26-1.45.46-2.4Z"/><path class="cls-1" d="M81.07,39.64,84,26l3.78.19a16,16,0,0,1,2.35.24,4.53,4.53,0,0,1,1.36.5,3.64,3.64,0,0,1,1.5,1.54,4.51,4.51,0,0,1,.41,2.26,5.17,5.17,0,0,1-.68,2.36,4.22,4.22,0,0,1-1.6,1.62,4,4,0,0,1-1.36.42,15,15,0,0,1-2.43,0l-.56,0-1,0-1,4.76Zm5.28-7.48.35,0a5.2,5.2,0,0,0,2.43-.26,1.37,1.37,0,0,0,.7-1.25,1.26,1.26,0,0,0-.49-1.14,3.15,3.15,0,0,0-1.68-.43l-.66,0Z"/><path class="cls-1" d="M52.44,43,50.65,57.43l-3.06-.38.19-1.53a4.7,4.7,0,0,1-1.61,1.25,3.41,3.41,0,0,1-1.82.25,4,4,0,0,1-3-1.76,5.56,5.56,0,0,1-.72-3.85,5.43,5.43,0,0,1,1.62-3.49,3.82,3.82,0,0,1,3.23-1,4,4,0,0,1,1.9.67,3.88,3.88,0,0,1,1.16,1.6,6.75,6.75,0,0,1,0-.77c0-.28.05-.59.09-.92l.61-4.94Zm-4.16,9.41a2.47,2.47,0,0,0-.37-1.81,2.31,2.31,0,0,0-3.18-.4,2.52,2.52,0,0,0-.79,1.67,2.41,2.41,0,0,0,.36,1.81,2.32,2.32,0,0,0,3.18.39A2.48,2.48,0,0,0,48.28,52.36Z"/><path class="cls-1" d="M53,57.72l1.16-9.44,3.14.39L57,50.89a4,4,0,0,1,1.55-1.66,3.44,3.44,0,0,1,2.11-.35,2.76,2.76,0,0,1,.4.06l.4.09-.69,3a3.34,3.34,0,0,0-.57-.22,3,3,0,0,0-.56-.12,2.38,2.38,0,0,0-2,.51,3.09,3.09,0,0,0-.92,2l-.48,3.9Z"/><path class="cls-1" d="M71.86,55.94l-7.18-.89A2.43,2.43,0,0,0,65,56.8a2,2,0,0,0,1.48.79,2.62,2.62,0,0,0,1.31-.13,1.85,1.85,0,0,0,.9-.74L71.11,58a3.29,3.29,0,0,1-1.8,1.48,6,6,0,0,1-2.86.24,5.66,5.66,0,0,1-3.79-1.85,4.74,4.74,0,0,1-1-3.8,4.93,4.93,0,0,1,2-3.48,5.19,5.19,0,0,1,4-1A4.84,4.84,0,0,1,71,51.56a5.83,5.83,0,0,1,.85,4.22Zm-3-2.29a2,2,0,0,0-.45-1.36,1.84,1.84,0,0,0-1.22-.65,1.87,1.87,0,0,0-1.35.29,2.33,2.33,0,0,0-.8,1.25Z"/><path class="cls-1" d="M72.68,59.36l1-2.46a5.58,5.58,0,0,0,1.48,1.18,5,5,0,0,0,1.72.55,1.75,1.75,0,0,0,1-.08.64.64,0,0,0,.4-.54c0-.42-.35-.79-1.2-1.1l-.67-.26a5.08,5.08,0,0,1-2-1.35,2.33,2.33,0,0,1-.46-1.82,2.69,2.69,0,0,1,1.3-2.07,4.4,4.4,0,0,1,2.9-.47,8.17,8.17,0,0,1,1.82.44,9.92,9.92,0,0,1,1.84.88l-1,2.21a5.53,5.53,0,0,0-1.27-.85,4.07,4.07,0,0,0-1.33-.4,1.59,1.59,0,0,0-.88.07.57.57,0,0,0-.36.47c0,.34.36.68,1.21,1l.43.17a5.84,5.84,0,0,1,2.26,1.46,2.48,2.48,0,0,1,.46,1.9,2.89,2.89,0,0,1-1.4,2.2,4.65,4.65,0,0,1-3.06.53,8.78,8.78,0,0,1-2.27-.57A7.45,7.45,0,0,1,72.68,59.36Z"/><path class="cls-1" d="M82.13,60.53l1-2.46a5.59,5.59,0,0,0,1.49,1.17,4.7,4.7,0,0,0,1.72.56,1.82,1.82,0,0,0,1-.08.64.64,0,0,0,.4-.54c.05-.42-.35-.79-1.2-1.1l-.67-.26a5.08,5.08,0,0,1-2-1.35,2.33,2.33,0,0,1-.46-1.82,2.68,2.68,0,0,1,1.3-2.07,4.47,4.47,0,0,1,2.9-.48,9.27,9.27,0,0,1,1.82.44,10.67,10.67,0,0,1,1.84.89l-1,2.2A6,6,0,0,0,89,54.79a4.15,4.15,0,0,0-1.34-.41,1.81,1.81,0,0,0-.88.07.57.57,0,0,0-.35.48c-.05.34.36.68,1.2,1,.19.09.34.14.43.18a5.86,5.86,0,0,1,2.27,1.46,2.48,2.48,0,0,1,.45,1.89,2.91,2.91,0,0,1-1.4,2.21,4.64,4.64,0,0,1-3.06.53A9.8,9.8,0,0,1,84,61.64,7.45,7.45,0,0,1,82.13,60.53Z"/><path class="cls-1" d="M109.32,64.68l.63-5.15a3.44,3.44,0,0,0-.09-1.73,1.19,1.19,0,0,0-1-.59,1.33,1.33,0,0,0-1.37.49,6.28,6.28,0,0,0-.7,2.61l-.49,4-3.22-.4.64-5.15a3.45,3.45,0,0,0-.09-1.74,1.15,1.15,0,0,0-1-.58,1.39,1.39,0,0,0-1.39.48,6.24,6.24,0,0,0-.7,2.62l-.5,4-3.23-.4L98,53.7l3.27.4-.2,1.65a4.15,4.15,0,0,1,1.54-1.31,3.4,3.4,0,0,1,1.87-.24,3.62,3.62,0,0,1,1.83.67,2.54,2.54,0,0,1,.89,1.47,3.55,3.55,0,0,1,1.51-1.17,3.77,3.77,0,0,1,1.92-.21,3.59,3.59,0,0,1,1.46.47,2.73,2.73,0,0,1,1,1,2.6,2.6,0,0,1,.36,1.11,9,9,0,0,1-.09,2l0,.21-.67,5.4Z"/><path class="cls-1" d="M125.16,62.52,118,61.63a2.46,2.46,0,0,0,.36,1.76,2,2,0,0,0,1.48.79,2.62,2.62,0,0,0,1.31-.13,1.93,1.93,0,0,0,.9-.75l2.38,1.32a3.29,3.29,0,0,1-1.8,1.48,6,6,0,0,1-2.86.24A5.62,5.62,0,0,1,116,64.48a4.72,4.72,0,0,1-1-3.79,4.93,4.93,0,0,1,2-3.48,5.19,5.19,0,0,1,4-1,4.77,4.77,0,0,1,3.51,1.93,5.77,5.77,0,0,1,.86,4.21Zm-3-2.28a2,2,0,0,0-.45-1.37,1.83,1.83,0,0,0-1.22-.64,1.87,1.87,0,0,0-1.35.28,2.4,2.4,0,0,0-.8,1.26Z"/><path class="cls-1" d="M104.06,74.86,104,89.64l-3.12.47V88.86a5.16,5.16,0,0,1-1.35,1.43,4.24,4.24,0,0,1-1.74.67,3.35,3.35,0,0,1-2.84-.83,4.76,4.76,0,0,1-1.51-3,6,6,0,0,1,.79-4.25,4.54,4.54,0,0,1,3.28-2.13,3.79,3.79,0,0,1,1.78.13,4.67,4.67,0,0,1,1.63,1l0-.27a5.35,5.35,0,0,1-.06-.59c0-.2,0-.41,0-.63l0-5.07ZM96.75,86.2a1.91,1.91,0,0,0,2.31,1.7,2.14,2.14,0,0,0,1.53-1,2.87,2.87,0,0,0,.37-2,1.93,1.93,0,0,0-.77-1.34,2,2,0,0,0-1.51-.33,2.19,2.19,0,0,0-1.56,1A2.88,2.88,0,0,0,96.75,86.2Z"/><path class="cls-1" d="M105.32,85.08a5.32,5.32,0,0,1,1-4.16,5.51,5.51,0,0,1,3.77-2.14,5.11,5.11,0,0,1,3.8.73,4.59,4.59,0,0,1,1.86,3.21,5.27,5.27,0,0,1-1,4.13A5.69,5.69,0,0,1,110.88,89a5,5,0,0,1-3.72-.74A4.47,4.47,0,0,1,105.32,85.08Zm5.09-3.59a2.09,2.09,0,0,0-1.52,1.06,3.08,3.08,0,0,0-.38,2.09,1.92,1.92,0,0,0,.7,1.3,1.74,1.74,0,0,0,1.39.32,2.13,2.13,0,0,0,1.58-1,3,3,0,0,0,.37-2.12,2,2,0,0,0-.71-1.31A1.8,1.8,0,0,0,110.41,81.49Z"/><path class="cls-1" d="M119.8,87.26l-4.14-9,3.24-.48,1.57,4.13c.09.22.18.46.26.71s.17.55.25.87a12.16,12.16,0,0,1,.39-1.64l0-.12,1.38-4.54,2.22-.33L126.64,81c.13.33.23.62.31.87s.16.49.22.71a10,10,0,0,1,.39-1.64l0-.12L129,76.26l3.34-.5-3.58,10.15-2.5.38-1.68-4.2c-.08-.21-.17-.45-.25-.71l-.24-.79c0,.2-.08.42-.14.68l-.29,1-1.4,4.6Z"/><path class="cls-1" d="M133.56,85.19l.08-9.63,3.18-.48v1.51A5.7,5.7,0,0,1,138.14,75a3.44,3.44,0,0,1,1.61-.67,3.09,3.09,0,0,1,2.38.45,2.93,2.93,0,0,1,1.14,2.08,12.38,12.38,0,0,1,.07,1.63,1.21,1.21,0,0,1,0,.18l0,5-3.32.5,0-5.1V78.7q0-.21,0-.36a1.25,1.25,0,0,0-.47-.88,1.29,1.29,0,0,0-1-.17,1.65,1.65,0,0,0-1.27.82,4.57,4.57,0,0,0-.4,2.1V84.7Z"/><path class="cls-1" d="M112.82,38.37l.52,6.39-2.07.17-.08-1a3,3,0,0,1-.92,1.06,2.59,2.59,0,0,1-1.28.42,2.52,2.52,0,0,1-2.12-.77,3.81,3.81,0,0,1-1-2.44,3.59,3.59,0,0,1,.6-2.55,2.7,2.7,0,0,1,2.08-1.1,2.49,2.49,0,0,1,1.27.2,2.59,2.59,0,0,1,1,.88l-.08-1.05Zm-1.72,3.35a1.69,1.69,0,0,0-.5-1.15,1.39,1.39,0,0,0-1.12-.35,1.41,1.41,0,0,0-1,.52,1.71,1.71,0,0,0-.3,1.22,1.68,1.68,0,0,0,.49,1.15,1.43,1.43,0,0,0,1.12.34,1.45,1.45,0,0,0,1.06-.52A1.68,1.68,0,0,0,111.1,41.72Z"/><path class="cls-1" d="M114.72,44.65l-.52-6.4,2.07-.17.1,1.3a3.09,3.09,0,0,1,.95-1.22,2.62,2.62,0,0,1,1.38-.48,2.89,2.89,0,0,1,1.12.11,2,2,0,0,1,.84.51,1.83,1.83,0,0,1,.42.75,6.48,6.48,0,0,1,.22,1.38l.3,3.66-2.26.18-.28-3.42a1.93,1.93,0,0,0-.34-1.1.92.92,0,0,0-.83-.28,1.11,1.11,0,0,0-1,.6,3.34,3.34,0,0,0-.19,1.71l.22,2.69Z"/><path class="cls-1" d="M129,33.6l.8,9.82-2.08.17-.08-1a3,3,0,0,1-.89,1.05,2.36,2.36,0,0,1-1.17.42,2.72,2.72,0,0,1-2.23-.76,3.77,3.77,0,0,1-1-2.44,3.73,3.73,0,0,1,.59-2.54,2.61,2.61,0,0,1,2-1.11,2.68,2.68,0,0,1,1.35.19,2.49,2.49,0,0,1,1,.9c0-.15-.07-.32-.09-.51a5.51,5.51,0,0,1-.07-.63l-.28-3.34Zm-1.46,6.79a1.68,1.68,0,0,0-.49-1.14,1.42,1.42,0,0,0-1.12-.35,1.4,1.4,0,0,0-1,.52,2,2,0,0,0,.19,2.36,1.35,1.35,0,0,0,1.11.34,1.38,1.38,0,0,0,1-.52A1.68,1.68,0,0,0,127.5,40.39Z"/><rect class="cls-1" x="1.56" y="23.19" width="94" height="1.49" transform="translate(-3.08 7.67) rotate(-8.75)"/><rect class="cls-1" x="81.22" y="21.2" width="1.49" height="86.85" transform="translate(7.76 138.03) rotate(-82.95)"/><rect class="cls-1" x="78.51" y="29.23" width="1.49" height="26.35" transform="translate(32.95 119.44) rotate(-87.14)"/><rect class="cls-1" x="93.21" y="89.73" width="51.74" height="1.49" transform="translate(-12.15 18.75) rotate(-8.57)"/></g></g></svg>