<svg xmlns="http://www.w3.org/2000/svg" viewBox="0 0 1178 51"><defs><style>.cls-1{isolation:isolate;}.cls-2{fill:#ff801e;mix-blend-mode:multiply;}.cls-3{fill:#fff;}</style></defs><title>6-2_image</title><g class="cls-1"><g id="レイヤー_2" data-name="レイヤー 2"><g id="レイヤー_1-2" data-name="レイヤー 1"><rect class="cls-2" x="563.5" y="-563.5" width="51" height="1178" transform="translate(563.5 614.5) rotate(-90)"/><path class="cls-3" d="M43.45,25.74v4.67c0,3.24-1.44,4.68-4.68,4.68h-4.5V9.9h4.14c3.24,0,4.5,1.26,4.5,4.14v3.67c0,3.63-2.88,3.63-2.88,3.63S43.45,21.34,43.45,25.74Zm-6.84-4.5h2.16c1.08,0,1.8-.72,1.8-2.78V13.32c0-2.06-.72-2.78-1.8-2.78H36.61ZM41.11,25c0-2.51-.72-3.23-2-3.23H36.61V34.45h2.52c1.26,0,2-.72,2-3.32Z"/><path class="cls-3" d="M52.39,33.22a3,3,0,0,1-2.66,2.05C47.25,35.27,46,34,46,31V28.54c0-2.8,1.47-4.32,3.74-4.32a2.54,2.54,0,0,1,2.63,1.87V19.76c0-2.27-.76-3-1.87-3s-1.87.75-1.87,3v1.19A1.11,1.11,0,0,1,47.42,22a1.09,1.09,0,0,1-1.11-1.11v-.26c0-2.95,1.51-4.42,4.14-4.42s4.1,1.47,4.1,4.68V35.09H52.46Zm-.07-6s-.58-2.38-2.09-2.38c-1.11,0-1.87.65-1.87,3.67V31c0,2.92.72,3.67,1.87,3.67,1.51,0,2.09-2.34,2.09-2.34Z"/><path class="cls-3" d="M59.8,21.81V35.09H57.54V16.38H59.8v4.1s.94-4.28,3.35-4.28c1.15,0,1.51.54,1.51,1.26a1.13,1.13,0,0,1-1.29,1.15c-.47,0-.69-.18-1.15-.18C60.7,18.43,60.09,20.37,59.8,21.81Z"/><path class="cls-3" d="M75.54,29.84c0,4-1.52,5.43-3.75,5.43a2.91,2.91,0,0,1-3-2.41v2.23H66.54V9.9H68.8v8.71a2.91,2.91,0,0,1,3-2.41c2.23,0,3.75,1.47,3.75,5.43ZM73.3,20.3c0-2.41-.93-3.35-2.08-3.35s-2.42,1.3-2.42,4.29v9c0,3,1.3,4.29,2.42,4.29s2.08-.94,2.08-3.35Z"/><path class="cls-3" d="M84.47,33.22a3,3,0,0,1-2.66,2.05C79.33,35.27,78,34,78,31V28.54c0-2.8,1.48-4.32,3.74-4.32a2.53,2.53,0,0,1,2.63,1.87V19.76c0-2.27-.75-3-1.87-3s-1.87.75-1.87,3v1.19a1.14,1.14,0,0,1-2.27,0v-.26c0-2.95,1.51-4.42,4.14-4.42s4.1,1.47,4.1,4.68V35.09H84.55Zm-.07-6s-.57-2.38-2.09-2.38c-1.11,0-1.87.65-1.87,3.67V31c0,2.92.72,3.67,1.87,3.67,1.52,0,2.09-2.34,2.09-2.34Z"/><path class="cls-3" d="M91.89,21.81V35.09H89.62V16.38h2.27v4.1s.93-4.28,3.34-4.28c1.16,0,1.52.54,1.52,1.26a1.14,1.14,0,0,1-1.3,1.15c-.47,0-.68-.18-1.15-.18C92.79,18.43,92.17,20.37,91.89,21.81Z"/><path class="cls-3" d="M104.43,33.22a3,3,0,0,1-2.67,2.05C99.28,35.27,98,34,98,31V28.54c0-2.8,1.47-4.32,3.74-4.32a2.54,2.54,0,0,1,2.63,1.87V19.76c0-2.27-.76-3-1.88-3s-1.87.75-1.87,3v1.19a1.14,1.14,0,0,1-2.27,0v-.26c0-2.95,1.52-4.42,4.14-4.42s4.11,1.47,4.11,4.68V35.09H104.5Zm-.07-6s-.58-2.38-2.09-2.38c-1.12,0-1.87.65-1.87,3.67V31c0,2.92.72,3.67,1.87,3.67,1.51,0,2.09-2.34,2.09-2.34Z"/><path class="cls-3" d="M117.75,21.42h.61L124.23,9.9h.93l-5.43,10.8,7,14.39h-2.66l-5.94-13h-.43v13h-2.34V9.9h2.34Z"/><path class="cls-3" d="M130.77,21.81V35.09H128.5V16.38h2.27v4.1s.94-4.28,3.35-4.28c1.15,0,1.51.54,1.51,1.26s-.5,1.15-1.3,1.15c-.46,0-.68-.18-1.15-.18C131.67,18.43,131.06,20.37,130.77,21.81Z"/><path class="cls-3" d="M139.77,31.17c0,2.63.76,3.35,1.87,3.35s2.41-1.3,2.41-4.29V16.38h2.27V35.09h-2.27V32.86a3.12,3.12,0,0,1-3,2.41c-2.24,0-3.57-1.29-3.57-4.68V16.38h2.27Z"/><path class="cls-3" d="M157.93,36.93c0,2-1.47,3.56-4.5,3.56S149,39,149,36.93V36.1a3.27,3.27,0,0,1,1.08-2.52l3.17-3.53c-2.67-.07-4.07-1.58-4.07-4.5V20.7c0-3,1.48-4.5,4.28-4.5,1.88,0,3.21.68,3.82,2,.54-.5.5-1.62.5-3V15c0-.54.18-1.11.94-1.11s.94.57.94,1.11v.29c0,2.23-1,3.13-2.16,3.38a6.93,6.93,0,0,1,.28,2.06v4.85c0,2.7-1.22,4.18-3.52,4.47l-2.41,2.7a6.94,6.94,0,0,1,1.61-.18c3,0,4.5,1.51,4.5,3.56Zm-6.73.4a2.27,2.27,0,1,0,4.5,0V35.74a2.28,2.28,0,1,0-4.5,0Zm4.32-17.21c0-2.63-.93-3.38-2.09-3.38s-2.05.75-2.05,3.38v6c0,2.63.94,3.39,2.05,3.39s2.09-.76,2.09-3.39Z"/><path class="cls-3" d="M169.16,24.44H163v6.91c0,2.45.94,3.38,2.09,3.38s2.05-.93,2.05-3.38v-3h2v1.48c0,3.56-1.87,5.43-4.1,5.43-2.45,0-4.32-1.87-4.32-5.43V21.63c0-3.56,1.87-5.43,4.32-5.43,2.23,0,4.1,1.87,4.1,5.43Zm-2-4.32c0-2.45-.94-3.38-2.05-3.38s-2.09.93-2.09,3.38v3.71h4.14Z"/><path class="cls-3" d="M174.1,21.81V35.09h-2.27V16.38h2.27v4.1s.93-4.28,3.35-4.28c1.15,0,1.51.54,1.51,1.26a1.14,1.14,0,0,1-1.3,1.15c-.47,0-.68-.18-1.15-.18C175,18.43,174.39,20.37,174.1,21.81Z"/><path class="cls-3" d="M184,41.21h-.72l9.36-33.47h.72Z"/><path class="cls-3" d="M204.7,22.68h4.68V29c0,4.5-1.8,6.3-4.68,6.3-3.06,0-5-2-5-6.48V16.2c0-4.5,2-6.48,5-6.48,2.88,0,4.68,1.8,4.68,6.3v2.34h-2.16v-4c0-2.92-1.08-4.14-2.52-4.14-1.62,0-2.7,1.22-2.7,4.14V30.59c0,2.92,1.08,4.14,2.7,4.14,1.44,0,2.52-1.22,2.52-4.14V23.4H204.7Z"/><path class="cls-3" d="M214.53,21.81V35.09h-2.27V16.38h2.27v4.1s.94-4.28,3.35-4.28c1.15,0,1.51.54,1.51,1.26s-.5,1.15-1.3,1.15c-.46,0-.68-.18-1.15-.18C215.43,18.43,214.82,20.37,214.53,21.81Z"/><path class="cls-3" d="M227.07,33.22a3,3,0,0,1-2.66,2.05c-2.49,0-3.78-1.29-3.78-4.28V28.54c0-2.8,1.47-4.32,3.74-4.32A2.54,2.54,0,0,1,227,26.09V19.76c0-2.27-.76-3-1.87-3s-1.87.75-1.87,3v1.19A1.11,1.11,0,0,1,222.1,22,1.09,1.09,0,0,1,221,20.88v-.26c0-2.95,1.51-4.42,4.14-4.42s4.1,1.47,4.1,4.68V35.09h-2.09Zm-.07-6s-.58-2.38-2.09-2.38c-1.11,0-1.87.65-1.87,3.67V31c0,2.92.72,3.67,1.87,3.67,1.51,0,2.09-2.34,2.09-2.34Z"/><path class="cls-3" d="M237.47,35.27a2.9,2.9,0,0,1-3-2.41v7.27h-2.27V16.38h2.27v2.23a2.9,2.9,0,0,1,3-2.41c2.23,0,3.75,1.47,3.75,5.43v8.21C241.22,33.8,239.7,35.27,237.47,35.27Zm1.51-15c0-2.41-.93-3.35-2.08-3.35s-2.41,1.3-2.41,4.29v9c0,3,1.29,4.29,2.41,4.29s2.08-.94,2.08-3.35Z"/><path class="cls-3" d="M252.89,20.88V35.09h-2.26V20.3c0-2.63-.72-3.35-1.88-3.35s-2.41,1.3-2.41,4.29V35.09h-2.26V9.9h2.26v8.71a3.12,3.12,0,0,1,3-2.41C251.56,16.2,252.89,17.49,252.89,20.88Z"/><path class="cls-3" d="M258.23,12.6a1.26,1.26,0,1,1-2.52,0v-.18a1.26,1.26,0,0,1,2.52,0Zm-2.38,22.49V16.38h2.27V35.09Z"/><path class="cls-3" d="M263.09,20.12V31.35c0,2.45.94,3.38,2.09,3.38s2.05-.93,2.05-3.38v-3h2.06v1.48c0,3.56-1.88,5.43-4.11,5.43-2.44,0-4.32-1.87-4.32-5.43V21.63c0-3.56,1.88-5.43,4.32-5.43s4.11,1.69,4.11,4.78v1c0,.58-.26,1.12-1,1.12a1,1,0,0,1-1-1.12V20.05c0-1.84-.39-3.31-2.05-3.31C264,16.74,263.09,17.67,263.09,20.12Z"/><path class="cls-3" d="M279.19,35.09V10.54h-4.14V9.9h10.62v.64h-4.14V35.09Z"/></g></g></g></svg>