<svg xmlns="http://www.w3.org/2000/svg" viewBox="0 0 351.45 108.26"><defs><style>.cls-1{fill:#fff;}</style></defs><title>6_image</title><g id="レイヤー_2" data-name="レイヤー 2"><g id="レイヤー_1-2" data-name="レイヤー 1"><path class="cls-1" d="M134.06,3V20.57h-1.51L129,8.68l-.73-3.06v15h-.63V3h1.51l3.49,11.74.78,3V3Z"/><path class="cls-1" d="M136.3,11.17c0-2.49,1.31-3.79,3.15-3.79s3.14,1.3,3.14,3.79V16.9c0,2.49-1.31,3.8-3.14,3.8s-3.15-1.31-3.15-3.8ZM137.86,18c0,1.71.66,2.36,1.59,2.36S141,19.67,141,18V10.12c0-1.71-.65-2.37-1.55-2.37s-1.59.66-1.59,2.37Z"/><path class="cls-1" d="M145.84,19.82a.88.88,0,0,1-1.76,0v-.13a.88.88,0,1,1,1.76,0Z"/><path class="cls-1" d="M172.85,11.35c0-7.19-2.37-9.93-6.15-9.93s-6.15,2.74-6.15,9.93V27.42a7.08,7.08,0,0,1,6.62-4.73c7.09,0,11.82,4.73,11.82,15.13V51.05c0,11.35-4.73,16.08-12.29,16.08s-12.29-4.73-12.29-16.08v-35C154.41,4.73,159.14,0,166.7,0c7.09,0,11.82,4.73,11.82,13.71a2.84,2.84,0,1,1-5.67,0Zm0,44.43V34c0-7.19-2.37-9.93-6.15-9.93s-6.15,2.74-6.15,9.93V55.78c0,7.19,2.37,9.93,6.15,9.93S172.85,63,172.85,55.78Z"/><path class="cls-1" d="M7.24,56.11C37,57.87,66.75,59.72,96.31,63.36c12,1.48,24.22,3.09,35.8,6.71,5.38,1.68,10.51,4.06,15.95,5.56,10,2.74,20.52,3.47,30.79,4.19,32,2.25,64.22,2.47,96.3,2.84a.38.38,0,0,0,0-.75c-29.74-.34-59.53-.67-89.23-2.39-11.95-.69-24.23-1.28-35.9-4.16-5.48-1.35-10.61-3.66-16-5.45-10.14-3.39-20.83-5-31.39-6.47-31.62-4.32-63.6-6.2-95.44-8.08-.48,0-.48.72,0,.75Z"/><path class="cls-1" d="M351.23,105.26l-46.6-3.14c-.26,0-.32.42-.06.47,15.28,3,30.58,6.8,46.26,5.36a.24.24,0,0,0,.21-.35c-3.19-6.32-7.7-13-15.22-14.28-5.81-.95-11.6,1.47-16.79,3.8-9,4-16.56,7.34-26.76,6.33-6.33-.62-12.48-2.29-18.68-3.63-6.55-1.42-13.18-2.43-19.77-3.63A1516.28,1516.28,0,0,1,101.74,60.06Q81,54,60.48,47.39q-10.32-3.33-20.6-6.8a24.44,24.44,0,0,1-3.74-1.38c.3.49,5.31.14,5.81.16l11.62.31a.24.24,0,0,0,.07-.47,219.53,219.53,0,0,0-53.41-4c-.31,0-.31.49,0,.48a214.05,214.05,0,0,1,34.34,1c1.23.14,17.07,2,17,2.54,0-.11-16-.5-17.41-.54-.28,0-.31.38-.07.47A1559.35,1559.35,0,0,0,208.86,87.72q21.87,4.69,43.87,8.75c6.91,1.27,13.87,2.33,20.73,3.81,6.53,1.4,13,3.19,19.7,3.74,9.44.77,16.79-2.22,25.13-6,8.91-4.08,18.71-7.24,26.47.9,1.4,1.47,6.42,6.61,4.23,8.77-.6.59-4.68.2-5.53.2-2.48,0-4.95-.13-7.41-.33-8.72-.74-17.3-2.57-25.87-4.3a26.05,26.05,0,0,0-3.66-.73c1.53.07,4.05.51,5.88.63L326,104l25.24,1.7c.3,0,.3-.46,0-.48Z"/></g></g></svg>