<svg xmlns="http://www.w3.org/2000/svg" viewBox="0 0 62.9 65.32"><title>7_image</title><g id="レイヤー_2" data-name="レイヤー 2"><g id="レイヤー_1-2" data-name="レイヤー 1"><path d="M38.62,15.43l4.53-11H26.58V0H44.51V4.06L40,15.76c-3,7.78-4.67,18.75-4.67,29.91a2,2,0,0,1-2.16,2,2,2,0,0,1-2.24-2C31,35,35.17,23.75,38.62,15.43Z"/><path d="M6.41.55V18.14H4.9L1.36,6.25.63,3.19v15H0V.55H1.51L5,12.29l.78,3V.55Z"/><path d="M8.66,8.74C8.66,6.25,10,5,11.8,5s3.14,1.3,3.14,3.79v5.73c0,2.49-1.31,3.8-3.14,3.8S8.66,17,8.66,14.47Zm1.55,6.79c0,1.71.66,2.36,1.59,2.36s1.56-.65,1.56-2.36V7.69c0-1.71-.66-2.37-1.56-2.37S10.21,6,10.21,7.69Z"/><path d="M18.19,17.39a.88.88,0,0,1-1.76,0v-.13a.88.88,0,0,1,1.76,0Z"/><path d="M20.58,56.76l19.18-1.6c3.17-.26,6.47-.26,9.6-.8,5.17-.88-1-.38-2.52-.12A140.76,140.76,0,0,0,13.19,64.62c-.38.17-.11.83.29.68A208.07,208.07,0,0,1,62.54,53.62c.48-.06.48-.81,0-.75a206.38,206.38,0,0,0-42.18,9.2c-1.46.49-4.26.86-5.32,1.86s4.35-1.15,5.09-1.45c3.36-1.32,6.78-2.51,10.23-3.56A142.54,142.54,0,0,1,53.19,54c.47-.06.49-.79,0-.75L20.58,56c-.48,0-.48.79,0,.75Z"/></g></g></svg>