<svg xmlns="http://www.w3.org/2000/svg" viewBox="0 0 50.4 67.13"><defs><style>.cls-1{fill:#fff;}</style></defs><title>8_image</title><g id="レイヤー_2" data-name="レイヤー 2"><g id="レイヤー_1-2" data-name="レイヤー 1"><path class="cls-1" d="M6.41,3V20.57H4.9L1.36,8.68.63,5.62v15H0V3H1.51L5,14.72l.78,3V3Z"/><path class="cls-1" d="M8.66,11.17c0-2.49,1.3-3.79,3.14-3.79s3.14,1.3,3.14,3.79V16.9c0,2.49-1.31,3.8-3.14,3.8s-3.14-1.31-3.14-3.8ZM10.21,18c0,1.71.66,2.36,1.59,2.36s1.56-.65,1.56-2.36V10.12c0-1.71-.66-2.37-1.56-2.37s-1.59.66-1.59,2.37Z"/><path class="cls-1" d="M18.19,19.82a.88.88,0,0,1-1.76,0v-.13a.88.88,0,0,1,1.76,0Z"/><path class="cls-1" d="M49.45,16.07c0,11.35-7.28,12.48-7.28,12.48S50.4,29.78,50.4,44v7.09c0,11.35-4.73,16.08-12.29,16.08S25.82,62.4,25.82,51.05V44C25.82,29.78,34,28.55,34,28.55s-7.28-1.13-7.28-12.48V13.24C26.76,4.25,31,0,38.11,0S49.45,4.25,49.45,13.24Zm-5.2,23.17c0-6.81-2.17-9.93-6.14-9.93S32,32.43,32,39.24V55.78c0,7.19,2.37,9.93,6.15,9.93s6.14-2.74,6.14-9.93Zm-.94-27.89c0-7.66-1.89-9.93-5.2-9.93s-5.2,2.27-5.2,9.93V18c0,7.57,1.89,10.12,5.2,10.12,3.49,0,5.2-2.55,5.2-10.12Z"/></g></g></svg>