<svg xmlns="http://www.w3.org/2000/svg" xmlns:xlink="http://www.w3.org/1999/xlink" viewBox="0 0 249.74 1311.41"><defs><style>.cls-1{fill:none;}.cls-2{opacity:0.5;}.cls-3{clip-path:url(#clip-path);}.cls-4{opacity:0.1;}.cls-5{fill:#fff;}</style><clipPath id="clip-path"><rect class="cls-1" x="-113.87" y="689.81" width="567.42" height="200" transform="translate(959.65 619.97) rotate(90)"/></clipPath></defs><title>butubutu_image</title><g id="レイヤー_2" data-name="レイヤー 2"><g id="レイヤー_1-2" data-name="レイヤー 1"><g class="cls-2"><g class="cls-3"><g class="cls-4"><path class="cls-5" d="M249.74,5.36A5.37,5.37,0,1,1,244.38,0,5.36,5.36,0,0,1,249.74,5.36Z"/><path class="cls-5" d="M249.74,36.33A5.37,5.37,0,1,1,244.38,31,5.35,5.35,0,0,1,249.74,36.33Z"/><path class="cls-5" d="M249.74,67.3a5.37,5.37,0,1,1-5.36-5.36A5.35,5.35,0,0,1,249.74,67.3Z"/><path class="cls-5" d="M249.74,98.27a5.37,5.37,0,1,1-5.36-5.36A5.35,5.35,0,0,1,249.74,98.27Z"/><path class="cls-5" d="M249.74,129.24a5.37,5.37,0,1,1-5.36-5.37A5.36,5.36,0,0,1,249.74,129.24Z"/><path class="cls-5" d="M249.74,160.21a5.37,5.37,0,1,1-5.36-5.37A5.36,5.36,0,0,1,249.74,160.21Z"/><path class="cls-5" d="M249.74,191.17a5.37,5.37,0,1,1-5.36-5.36A5.36,5.36,0,0,1,249.74,191.17Z"/><path class="cls-5" d="M249.74,222.14a5.37,5.37,0,1,1-5.36-5.36A5.36,5.36,0,0,1,249.74,222.14Z"/><path class="cls-5" d="M249.74,253.11a5.37,5.37,0,1,1-5.36-5.36A5.35,5.35,0,0,1,249.74,253.11Z"/><path class="cls-5" d="M249.74,284.08a5.37,5.37,0,1,1-5.36-5.36A5.35,5.35,0,0,1,249.74,284.08Z"/><path class="cls-5" d="M249.74,315.05a5.37,5.37,0,1,1-5.36-5.36A5.35,5.35,0,0,1,249.74,315.05Z"/><path class="cls-5" d="M249.74,346a5.37,5.37,0,1,1-5.36-5.36A5.35,5.35,0,0,1,249.74,346Z"/><path class="cls-5" d="M249.74,377a5.37,5.37,0,1,1-5.36-5.37A5.36,5.36,0,0,1,249.74,377Z"/><path class="cls-5" d="M249.74,408a5.37,5.37,0,1,1-5.36-5.37A5.36,5.36,0,0,1,249.74,408Z"/><path class="cls-5" d="M249.74,438.92a5.37,5.37,0,1,1-5.36-5.36A5.36,5.36,0,0,1,249.74,438.92Z"/><path class="cls-5" d="M249.74,469.89a5.37,5.37,0,1,1-5.36-5.36A5.35,5.35,0,0,1,249.74,469.89Z"/><path class="cls-5" d="M249.74,500.86a5.37,5.37,0,1,1-5.36-5.36A5.35,5.35,0,0,1,249.74,500.86Z"/><path class="cls-5" d="M249.74,531.83a5.37,5.37,0,1,1-5.36-5.36A5.35,5.35,0,0,1,249.74,531.83Z"/><path class="cls-5" d="M249.74,562.8a5.37,5.37,0,1,1-5.36-5.36A5.35,5.35,0,0,1,249.74,562.8Z"/><path class="cls-5" d="M249.74,593.77a5.37,5.37,0,1,1-5.36-5.37A5.36,5.36,0,0,1,249.74,593.77Z"/><path class="cls-5" d="M249.74,624.74a5.37,5.37,0,1,1-5.36-5.37A5.36,5.36,0,0,1,249.74,624.74Z"/><path class="cls-5" d="M249.74,655.7a5.37,5.37,0,1,1-5.36-5.36A5.36,5.36,0,0,1,249.74,655.7Z"/><path class="cls-5" d="M249.74,686.67a5.37,5.37,0,1,1-5.36-5.36A5.36,5.36,0,0,1,249.74,686.67Z"/><path class="cls-5" d="M249.74,717.64a5.37,5.37,0,1,1-5.36-5.36A5.35,5.35,0,0,1,249.74,717.64Z"/><path class="cls-5" d="M249.74,748.61a5.37,5.37,0,1,1-5.36-5.36A5.35,5.35,0,0,1,249.74,748.61Z"/><path class="cls-5" d="M249.74,779.58a5.37,5.37,0,1,1-5.36-5.36A5.35,5.35,0,0,1,249.74,779.58Z"/><path class="cls-5" d="M249.74,810.55a5.37,5.37,0,1,1-5.36-5.37A5.36,5.36,0,0,1,249.74,810.55Z"/><path class="cls-5" d="M249.74,841.52a5.37,5.37,0,1,1-5.36-5.37A5.36,5.36,0,0,1,249.74,841.52Z"/><path class="cls-5" d="M249.74,872.48a5.37,5.37,0,1,1-5.36-5.36A5.36,5.36,0,0,1,249.74,872.48Z"/><path class="cls-5" d="M249.74,903.45a5.37,5.37,0,1,1-5.36-5.36A5.36,5.36,0,0,1,249.74,903.45Z"/><path class="cls-5" d="M249.74,934.42a5.37,5.37,0,1,1-5.36-5.36A5.35,5.35,0,0,1,249.74,934.42Z"/><path class="cls-5" d="M249.74,965.39a5.37,5.37,0,1,1-5.36-5.36A5.35,5.35,0,0,1,249.74,965.39Z"/><path class="cls-5" d="M249.74,996.36a5.37,5.37,0,1,1-5.36-5.36A5.35,5.35,0,0,1,249.74,996.36Z"/><path class="cls-5" d="M249.74,1027.33a5.37,5.37,0,1,1-5.36-5.37A5.36,5.36,0,0,1,249.74,1027.33Z"/><path class="cls-5" d="M249.74,1058.3a5.37,5.37,0,1,1-5.36-5.37A5.36,5.36,0,0,1,249.74,1058.3Z"/><path class="cls-5" d="M249.74,1089.27a5.37,5.37,0,1,1-5.36-5.37A5.36,5.36,0,0,1,249.74,1089.27Z"/><path class="cls-5" d="M249.74,1120.23a5.37,5.37,0,1,1-5.36-5.36A5.36,5.36,0,0,1,249.74,1120.23Z"/><path class="cls-5" d="M249.74,1151.2a5.37,5.37,0,1,1-5.36-5.36A5.35,5.35,0,0,1,249.74,1151.2Z"/><path class="cls-5" d="M249.74,1182.17a5.37,5.37,0,1,1-5.36-5.36A5.35,5.35,0,0,1,249.74,1182.17Z"/><path class="cls-5" d="M249.74,1213.14a5.37,5.37,0,1,1-5.36-5.36A5.35,5.35,0,0,1,249.74,1213.14Z"/><path class="cls-5" d="M249.74,1244.11a5.37,5.37,0,1,1-5.36-5.36A5.35,5.35,0,0,1,249.74,1244.11Z"/><path class="cls-5" d="M249.74,1275.08a5.37,5.37,0,1,1-5.36-5.37A5.36,5.36,0,0,1,249.74,1275.08Z"/><path class="cls-5" d="M249.74,1306.05a5.37,5.37,0,1,1-5.36-5.37A5.36,5.36,0,0,1,249.74,1306.05Z"/><path class="cls-5" d="M215.59,20.85a5.36,5.36,0,1,1-5.36-5.37A5.35,5.35,0,0,1,215.59,20.85Z"/><path class="cls-5" d="M215.59,51.82a5.36,5.36,0,1,1-5.36-5.37A5.35,5.35,0,0,1,215.59,51.82Z"/><path class="cls-5" d="M215.59,82.79a5.36,5.36,0,1,1-5.36-5.37A5.35,5.35,0,0,1,215.59,82.79Z"/><path class="cls-5" d="M215.59,113.75a5.36,5.36,0,1,1-5.36-5.36A5.36,5.36,0,0,1,215.59,113.75Z"/><path class="cls-5" d="M215.59,144.72a5.36,5.36,0,1,1-5.36-5.36A5.35,5.35,0,0,1,215.59,144.72Z"/><path class="cls-5" d="M215.59,175.69a5.36,5.36,0,1,1-5.36-5.36A5.35,5.35,0,0,1,215.59,175.69Z"/><path class="cls-5" d="M215.59,206.66a5.36,5.36,0,1,1-5.36-5.36A5.35,5.35,0,0,1,215.59,206.66Z"/><path class="cls-5" d="M215.59,237.63a5.36,5.36,0,1,1-5.36-5.37A5.35,5.35,0,0,1,215.59,237.63Z"/><path class="cls-5" d="M215.59,268.6a5.36,5.36,0,1,1-5.36-5.37A5.35,5.35,0,0,1,215.59,268.6Z"/><path class="cls-5" d="M215.59,299.57a5.36,5.36,0,1,1-5.36-5.37A5.35,5.35,0,0,1,215.59,299.57Z"/><path class="cls-5" d="M215.59,330.53a5.36,5.36,0,1,1-5.36-5.36A5.36,5.36,0,0,1,215.59,330.53Z"/><path class="cls-5" d="M215.59,361.5a5.36,5.36,0,1,1-5.36-5.36A5.36,5.36,0,0,1,215.59,361.5Z"/><path class="cls-5" d="M215.59,392.47a5.36,5.36,0,1,1-5.36-5.36A5.35,5.35,0,0,1,215.59,392.47Z"/><path class="cls-5" d="M215.59,423.44a5.36,5.36,0,1,1-5.36-5.36A5.35,5.35,0,0,1,215.59,423.44Z"/><path class="cls-5" d="M215.59,454.41a5.36,5.36,0,1,1-5.36-5.37A5.35,5.35,0,0,1,215.59,454.41Z"/><path class="cls-5" d="M215.59,485.38a5.36,5.36,0,1,1-5.36-5.37A5.35,5.35,0,0,1,215.59,485.38Z"/><path class="cls-5" d="M215.59,516.35a5.36,5.36,0,1,1-5.36-5.37A5.35,5.35,0,0,1,215.59,516.35Z"/><path class="cls-5" d="M215.59,547.31a5.36,5.36,0,1,1-5.36-5.36A5.36,5.36,0,0,1,215.59,547.31Z"/><path class="cls-5" d="M215.59,578.28a5.36,5.36,0,1,1-5.36-5.36A5.36,5.36,0,0,1,215.59,578.28Z"/><path class="cls-5" d="M215.59,609.25a5.36,5.36,0,1,1-5.36-5.36A5.35,5.35,0,0,1,215.59,609.25Z"/><path class="cls-5" d="M215.59,640.22a5.36,5.36,0,1,1-5.36-5.36A5.35,5.35,0,0,1,215.59,640.22Z"/><path class="cls-5" d="M215.59,671.19a5.36,5.36,0,1,1-5.36-5.36A5.35,5.35,0,0,1,215.59,671.19Z"/><path class="cls-5" d="M215.59,702.16a5.36,5.36,0,1,1-5.36-5.37A5.35,5.35,0,0,1,215.59,702.16Z"/><path class="cls-5" d="M215.59,733.13a5.36,5.36,0,1,1-5.36-5.37A5.35,5.35,0,0,1,215.59,733.13Z"/><path class="cls-5" d="M215.59,764.09a5.36,5.36,0,1,1-5.36-5.36A5.36,5.36,0,0,1,215.59,764.09Z"/><path class="cls-5" d="M215.59,795.06a5.36,5.36,0,1,1-5.36-5.36A5.36,5.36,0,0,1,215.59,795.06Z"/><path class="cls-5" d="M215.59,826a5.36,5.36,0,1,1-5.36-5.36A5.35,5.35,0,0,1,215.59,826Z"/><path class="cls-5" d="M215.59,857a5.36,5.36,0,1,1-5.36-5.36A5.35,5.35,0,0,1,215.59,857Z"/><path class="cls-5" d="M215.59,888a5.36,5.36,0,1,1-5.36-5.36A5.35,5.35,0,0,1,215.59,888Z"/><path class="cls-5" d="M215.59,918.94a5.36,5.36,0,1,1-5.36-5.37A5.35,5.35,0,0,1,215.59,918.94Z"/><path class="cls-5" d="M215.59,949.91a5.36,5.36,0,1,1-5.36-5.37A5.35,5.35,0,0,1,215.59,949.91Z"/><path class="cls-5" d="M215.59,980.88a5.36,5.36,0,1,1-5.36-5.37A5.35,5.35,0,0,1,215.59,980.88Z"/><path class="cls-5" d="M215.59,1011.84a5.36,5.36,0,1,1-5.36-5.36A5.36,5.36,0,0,1,215.59,1011.84Z"/><path class="cls-5" d="M215.59,1042.81a5.36,5.36,0,1,1-5.36-5.36A5.35,5.35,0,0,1,215.59,1042.81Z"/><path class="cls-5" d="M215.59,1073.78a5.36,5.36,0,1,1-5.36-5.36A5.35,5.35,0,0,1,215.59,1073.78Z"/><path class="cls-5" d="M215.59,1104.75a5.36,5.36,0,1,1-5.36-5.36A5.35,5.35,0,0,1,215.59,1104.75Z"/><path class="cls-5" d="M215.59,1135.72a5.36,5.36,0,1,1-5.36-5.37A5.35,5.35,0,0,1,215.59,1135.72Z"/><path class="cls-5" d="M215.59,1166.69a5.36,5.36,0,1,1-5.36-5.37A5.35,5.35,0,0,1,215.59,1166.69Z"/><path class="cls-5" d="M215.59,1197.66a5.36,5.36,0,1,1-5.36-5.37A5.35,5.35,0,0,1,215.59,1197.66Z"/><path class="cls-5" d="M215.59,1228.62a5.36,5.36,0,1,1-5.36-5.36A5.36,5.36,0,0,1,215.59,1228.62Z"/><path class="cls-5" d="M215.59,1259.59a5.36,5.36,0,1,1-5.36-5.36A5.36,5.36,0,0,1,215.59,1259.59Z"/><path class="cls-5" d="M215.59,1290.56a5.36,5.36,0,1,1-5.36-5.36A5.35,5.35,0,0,1,215.59,1290.56Z"/><path class="cls-5" d="M181.45,5.36A5.37,5.37,0,1,1,176.09,0,5.36,5.36,0,0,1,181.45,5.36Z"/><path class="cls-5" d="M181.45,36.33A5.37,5.37,0,1,1,176.09,31,5.35,5.35,0,0,1,181.45,36.33Z"/><path class="cls-5" d="M181.45,67.3a5.37,5.37,0,1,1-5.36-5.36A5.35,5.35,0,0,1,181.45,67.3Z"/><path class="cls-5" d="M181.45,98.27a5.37,5.37,0,1,1-5.36-5.36A5.35,5.35,0,0,1,181.45,98.27Z"/><path class="cls-5" d="M181.45,129.24a5.37,5.37,0,1,1-5.36-5.37A5.36,5.36,0,0,1,181.45,129.24Z"/><path class="cls-5" d="M181.45,160.21a5.37,5.37,0,1,1-5.36-5.37A5.36,5.36,0,0,1,181.45,160.21Z"/><path class="cls-5" d="M181.45,191.17a5.37,5.37,0,1,1-5.36-5.36A5.36,5.36,0,0,1,181.45,191.17Z"/><path class="cls-5" d="M181.45,222.14a5.37,5.37,0,1,1-5.36-5.36A5.36,5.36,0,0,1,181.45,222.14Z"/><path class="cls-5" d="M181.45,253.11a5.37,5.37,0,1,1-5.36-5.36A5.35,5.35,0,0,1,181.45,253.11Z"/><path class="cls-5" d="M181.45,284.08a5.37,5.37,0,1,1-5.36-5.36A5.35,5.35,0,0,1,181.45,284.08Z"/><path class="cls-5" d="M181.45,315.05a5.37,5.37,0,1,1-5.36-5.36A5.35,5.35,0,0,1,181.45,315.05Z"/><path class="cls-5" d="M181.45,346a5.37,5.37,0,1,1-5.36-5.36A5.35,5.35,0,0,1,181.45,346Z"/><path class="cls-5" d="M181.45,377a5.37,5.37,0,1,1-5.36-5.37A5.36,5.36,0,0,1,181.45,377Z"/><path class="cls-5" d="M181.45,408a5.37,5.37,0,1,1-5.36-5.37A5.36,5.36,0,0,1,181.45,408Z"/><path class="cls-5" d="M181.45,438.92a5.37,5.37,0,1,1-5.36-5.36A5.36,5.36,0,0,1,181.45,438.92Z"/><path class="cls-5" d="M181.45,469.89a5.37,5.37,0,1,1-5.36-5.36A5.35,5.35,0,0,1,181.45,469.89Z"/><path class="cls-5" d="M181.45,500.86a5.37,5.37,0,1,1-5.36-5.36A5.35,5.35,0,0,1,181.45,500.86Z"/><path class="cls-5" d="M181.45,531.83a5.37,5.37,0,1,1-5.36-5.36A5.35,5.35,0,0,1,181.45,531.83Z"/><path class="cls-5" d="M181.45,562.8a5.37,5.37,0,1,1-5.36-5.36A5.35,5.35,0,0,1,181.45,562.8Z"/><path class="cls-5" d="M181.45,593.77a5.37,5.37,0,1,1-5.36-5.37A5.36,5.36,0,0,1,181.45,593.77Z"/><path class="cls-5" d="M181.45,624.74a5.37,5.37,0,1,1-5.36-5.37A5.36,5.36,0,0,1,181.45,624.74Z"/><path class="cls-5" d="M181.45,655.7a5.37,5.37,0,1,1-5.36-5.36A5.36,5.36,0,0,1,181.45,655.7Z"/><path class="cls-5" d="M181.45,686.67a5.37,5.37,0,1,1-5.36-5.36A5.36,5.36,0,0,1,181.45,686.67Z"/><path class="cls-5" d="M181.45,717.64a5.37,5.37,0,1,1-5.36-5.36A5.35,5.35,0,0,1,181.45,717.64Z"/><path class="cls-5" d="M181.45,748.61a5.37,5.37,0,1,1-5.36-5.36A5.35,5.35,0,0,1,181.45,748.61Z"/><path class="cls-5" d="M181.45,779.58a5.37,5.37,0,1,1-5.36-5.36A5.35,5.35,0,0,1,181.45,779.58Z"/><path class="cls-5" d="M181.45,810.55a5.37,5.37,0,1,1-5.36-5.37A5.36,5.36,0,0,1,181.45,810.55Z"/><path class="cls-5" d="M181.45,841.52a5.37,5.37,0,1,1-5.36-5.37A5.36,5.36,0,0,1,181.45,841.52Z"/><path class="cls-5" d="M181.45,872.48a5.37,5.37,0,1,1-5.36-5.36A5.36,5.36,0,0,1,181.45,872.48Z"/><path class="cls-5" d="M181.45,903.45a5.37,5.37,0,1,1-5.36-5.36A5.36,5.36,0,0,1,181.45,903.45Z"/><path class="cls-5" d="M181.45,934.42a5.37,5.37,0,1,1-5.36-5.36A5.35,5.35,0,0,1,181.45,934.42Z"/><path class="cls-5" d="M181.45,965.39a5.37,5.37,0,1,1-5.36-5.36A5.35,5.35,0,0,1,181.45,965.39Z"/><path class="cls-5" d="M181.45,996.36a5.37,5.37,0,1,1-5.36-5.36A5.35,5.35,0,0,1,181.45,996.36Z"/><path class="cls-5" d="M181.45,1027.33a5.37,5.37,0,1,1-5.36-5.37A5.36,5.36,0,0,1,181.45,1027.33Z"/><path class="cls-5" d="M181.45,1058.3a5.37,5.37,0,1,1-5.36-5.37A5.36,5.36,0,0,1,181.45,1058.3Z"/><path class="cls-5" d="M181.45,1089.27a5.37,5.37,0,1,1-5.36-5.37A5.36,5.36,0,0,1,181.45,1089.27Z"/><path class="cls-5" d="M181.45,1120.23a5.37,5.37,0,1,1-5.36-5.36A5.36,5.36,0,0,1,181.45,1120.23Z"/><path class="cls-5" d="M181.45,1151.2a5.37,5.37,0,1,1-5.36-5.36A5.35,5.35,0,0,1,181.45,1151.2Z"/><path class="cls-5" d="M181.45,1182.17a5.37,5.37,0,1,1-5.36-5.36A5.35,5.35,0,0,1,181.45,1182.17Z"/><path class="cls-5" d="M181.45,1213.14a5.37,5.37,0,1,1-5.36-5.36A5.35,5.35,0,0,1,181.45,1213.14Z"/><path class="cls-5" d="M181.45,1244.11a5.37,5.37,0,1,1-5.36-5.36A5.35,5.35,0,0,1,181.45,1244.11Z"/><path class="cls-5" d="M181.45,1275.08a5.37,5.37,0,1,1-5.36-5.37A5.36,5.36,0,0,1,181.45,1275.08Z"/><path class="cls-5" d="M181.45,1306.05a5.37,5.37,0,1,1-5.36-5.37A5.36,5.36,0,0,1,181.45,1306.05Z"/><path class="cls-5" d="M147.3,20.85a5.36,5.36,0,1,1-5.36-5.37A5.35,5.35,0,0,1,147.3,20.85Z"/><path class="cls-5" d="M147.3,51.82a5.36,5.36,0,1,1-5.36-5.37A5.35,5.35,0,0,1,147.3,51.82Z"/><path class="cls-5" d="M147.3,82.79a5.36,5.36,0,1,1-5.36-5.37A5.35,5.35,0,0,1,147.3,82.79Z"/><path class="cls-5" d="M147.3,113.75a5.36,5.36,0,1,1-5.36-5.36A5.36,5.36,0,0,1,147.3,113.75Z"/><path class="cls-5" d="M147.3,144.72a5.36,5.36,0,1,1-5.36-5.36A5.35,5.35,0,0,1,147.3,144.72Z"/><path class="cls-5" d="M147.3,175.69a5.36,5.36,0,1,1-5.36-5.36A5.35,5.35,0,0,1,147.3,175.69Z"/><path class="cls-5" d="M147.3,206.66a5.36,5.36,0,1,1-5.36-5.36A5.35,5.35,0,0,1,147.3,206.66Z"/><path class="cls-5" d="M147.3,237.63a5.36,5.36,0,1,1-5.36-5.37A5.35,5.35,0,0,1,147.3,237.63Z"/><path class="cls-5" d="M147.3,268.6a5.36,5.36,0,1,1-5.36-5.37A5.35,5.35,0,0,1,147.3,268.6Z"/><path class="cls-5" d="M147.3,299.57a5.36,5.36,0,1,1-5.36-5.37A5.35,5.35,0,0,1,147.3,299.57Z"/><path class="cls-5" d="M147.3,330.53a5.36,5.36,0,1,1-5.36-5.36A5.36,5.36,0,0,1,147.3,330.53Z"/><path class="cls-5" d="M147.3,361.5a5.36,5.36,0,1,1-5.36-5.36A5.36,5.36,0,0,1,147.3,361.5Z"/><path class="cls-5" d="M147.3,392.47a5.36,5.36,0,1,1-5.36-5.36A5.35,5.35,0,0,1,147.3,392.47Z"/><path class="cls-5" d="M147.3,423.44a5.36,5.36,0,1,1-5.36-5.36A5.35,5.35,0,0,1,147.3,423.44Z"/><path class="cls-5" d="M147.3,454.41a5.36,5.36,0,1,1-5.36-5.37A5.35,5.35,0,0,1,147.3,454.41Z"/><path class="cls-5" d="M147.3,485.38a5.36,5.36,0,1,1-5.36-5.37A5.35,5.35,0,0,1,147.3,485.38Z"/><path class="cls-5" d="M147.3,516.35a5.36,5.36,0,1,1-5.36-5.37A5.35,5.35,0,0,1,147.3,516.35Z"/><path class="cls-5" d="M147.3,547.31a5.36,5.36,0,1,1-5.36-5.36A5.36,5.36,0,0,1,147.3,547.31Z"/><path class="cls-5" d="M147.3,578.28a5.36,5.36,0,1,1-5.36-5.36A5.36,5.36,0,0,1,147.3,578.28Z"/><path class="cls-5" d="M147.3,609.25a5.36,5.36,0,1,1-5.36-5.36A5.35,5.35,0,0,1,147.3,609.25Z"/><path class="cls-5" d="M147.3,640.22a5.36,5.36,0,1,1-5.36-5.36A5.35,5.35,0,0,1,147.3,640.22Z"/><path class="cls-5" d="M147.3,671.19a5.36,5.36,0,1,1-5.36-5.36A5.35,5.35,0,0,1,147.3,671.19Z"/><path class="cls-5" d="M147.3,702.16a5.36,5.36,0,1,1-5.36-5.37A5.35,5.35,0,0,1,147.3,702.16Z"/><path class="cls-5" d="M147.3,733.13a5.36,5.36,0,1,1-5.36-5.37A5.35,5.35,0,0,1,147.3,733.13Z"/><path class="cls-5" d="M147.3,764.09a5.36,5.36,0,1,1-5.36-5.36A5.36,5.36,0,0,1,147.3,764.09Z"/><path class="cls-5" d="M147.3,795.06a5.36,5.36,0,1,1-5.36-5.36A5.36,5.36,0,0,1,147.3,795.06Z"/><path class="cls-5" d="M147.3,826a5.36,5.36,0,1,1-5.36-5.36A5.35,5.35,0,0,1,147.3,826Z"/><path class="cls-5" d="M147.3,857a5.36,5.36,0,1,1-5.36-5.36A5.35,5.35,0,0,1,147.3,857Z"/><path class="cls-5" d="M147.3,888a5.36,5.36,0,1,1-5.36-5.36A5.35,5.35,0,0,1,147.3,888Z"/><path class="cls-5" d="M147.3,918.94a5.36,5.36,0,1,1-5.36-5.37A5.35,5.35,0,0,1,147.3,918.94Z"/><path class="cls-5" d="M147.3,949.91a5.36,5.36,0,1,1-5.36-5.37A5.35,5.35,0,0,1,147.3,949.91Z"/><path class="cls-5" d="M147.3,980.88a5.36,5.36,0,1,1-5.36-5.37A5.35,5.35,0,0,1,147.3,980.88Z"/><path class="cls-5" d="M147.3,1011.84a5.36,5.36,0,1,1-5.36-5.36A5.36,5.36,0,0,1,147.3,1011.84Z"/><path class="cls-5" d="M147.3,1042.81a5.36,5.36,0,1,1-5.36-5.36A5.35,5.35,0,0,1,147.3,1042.81Z"/><path class="cls-5" d="M147.3,1073.78a5.36,5.36,0,1,1-5.36-5.36A5.35,5.35,0,0,1,147.3,1073.78Z"/><path class="cls-5" d="M147.3,1104.75a5.36,5.36,0,1,1-5.36-5.36A5.35,5.35,0,0,1,147.3,1104.75Z"/><path class="cls-5" d="M147.3,1135.72a5.36,5.36,0,1,1-5.36-5.37A5.35,5.35,0,0,1,147.3,1135.72Z"/><path class="cls-5" d="M147.3,1166.69a5.36,5.36,0,1,1-5.36-5.37A5.35,5.35,0,0,1,147.3,1166.69Z"/><path class="cls-5" d="M147.3,1197.66a5.36,5.36,0,1,1-5.36-5.37A5.35,5.35,0,0,1,147.3,1197.66Z"/><path class="cls-5" d="M147.3,1228.62a5.36,5.36,0,1,1-5.36-5.36A5.36,5.36,0,0,1,147.3,1228.62Z"/><path class="cls-5" d="M147.3,1259.59a5.36,5.36,0,1,1-5.36-5.36A5.36,5.36,0,0,1,147.3,1259.59Z"/><path class="cls-5" d="M147.3,1290.56a5.36,5.36,0,1,1-5.36-5.36A5.35,5.35,0,0,1,147.3,1290.56Z"/><path class="cls-5" d="M113.16,5.36A5.37,5.37,0,1,1,107.8,0,5.36,5.36,0,0,1,113.16,5.36Z"/><path class="cls-5" d="M113.16,36.33A5.37,5.37,0,1,1,107.8,31,5.35,5.35,0,0,1,113.16,36.33Z"/><path class="cls-5" d="M113.16,67.3a5.37,5.37,0,1,1-5.36-5.36A5.35,5.35,0,0,1,113.16,67.3Z"/><path class="cls-5" d="M113.16,98.27a5.37,5.37,0,1,1-5.36-5.36A5.35,5.35,0,0,1,113.16,98.27Z"/><path class="cls-5" d="M113.16,129.24a5.37,5.37,0,1,1-5.36-5.37A5.36,5.36,0,0,1,113.16,129.24Z"/><path class="cls-5" d="M113.16,160.21a5.37,5.37,0,1,1-5.36-5.37A5.36,5.36,0,0,1,113.16,160.21Z"/><path class="cls-5" d="M113.16,191.17a5.37,5.37,0,1,1-5.36-5.36A5.36,5.36,0,0,1,113.16,191.17Z"/><path class="cls-5" d="M113.16,222.14a5.37,5.37,0,1,1-5.36-5.36A5.36,5.36,0,0,1,113.16,222.14Z"/><path class="cls-5" d="M113.16,253.11a5.37,5.37,0,1,1-5.36-5.36A5.35,5.35,0,0,1,113.16,253.11Z"/><path class="cls-5" d="M113.16,284.08a5.37,5.37,0,1,1-5.36-5.36A5.35,5.35,0,0,1,113.16,284.08Z"/><path class="cls-5" d="M113.16,315.05a5.37,5.37,0,1,1-5.36-5.36A5.35,5.35,0,0,1,113.16,315.05Z"/><path class="cls-5" d="M113.16,346a5.37,5.37,0,1,1-5.36-5.36A5.35,5.35,0,0,1,113.16,346Z"/><path class="cls-5" d="M113.16,377a5.37,5.37,0,1,1-5.36-5.37A5.36,5.36,0,0,1,113.16,377Z"/><path class="cls-5" d="M113.16,408a5.37,5.37,0,1,1-5.36-5.37A5.36,5.36,0,0,1,113.16,408Z"/><path class="cls-5" d="M113.16,438.92a5.37,5.37,0,1,1-5.36-5.36A5.36,5.36,0,0,1,113.16,438.92Z"/><path class="cls-5" d="M113.16,469.89a5.37,5.37,0,1,1-5.36-5.36A5.35,5.35,0,0,1,113.16,469.89Z"/><path class="cls-5" d="M113.16,500.86a5.37,5.37,0,1,1-5.36-5.36A5.35,5.35,0,0,1,113.16,500.86Z"/><path class="cls-5" d="M113.16,531.83a5.37,5.37,0,1,1-5.36-5.36A5.35,5.35,0,0,1,113.16,531.83Z"/><path class="cls-5" d="M113.16,562.8a5.37,5.37,0,1,1-5.36-5.36A5.35,5.35,0,0,1,113.16,562.8Z"/><path class="cls-5" d="M113.16,593.77a5.37,5.37,0,1,1-5.36-5.37A5.36,5.36,0,0,1,113.16,593.77Z"/><path class="cls-5" d="M113.16,624.74a5.37,5.37,0,1,1-5.36-5.37A5.36,5.36,0,0,1,113.16,624.74Z"/><path class="cls-5" d="M113.16,655.7a5.37,5.37,0,1,1-5.36-5.36A5.36,5.36,0,0,1,113.16,655.7Z"/><path class="cls-5" d="M113.16,686.67a5.37,5.37,0,1,1-5.36-5.36A5.36,5.36,0,0,1,113.16,686.67Z"/><path class="cls-5" d="M113.16,717.64a5.37,5.37,0,1,1-5.36-5.36A5.35,5.35,0,0,1,113.16,717.64Z"/><path class="cls-5" d="M113.16,748.61a5.37,5.37,0,1,1-5.36-5.36A5.35,5.35,0,0,1,113.16,748.61Z"/><path class="cls-5" d="M113.16,779.58a5.37,5.37,0,1,1-5.36-5.36A5.35,5.35,0,0,1,113.16,779.58Z"/><path class="cls-5" d="M113.16,810.55a5.37,5.37,0,1,1-5.36-5.37A5.36,5.36,0,0,1,113.16,810.55Z"/><path class="cls-5" d="M113.16,841.52a5.37,5.37,0,1,1-5.36-5.37A5.36,5.36,0,0,1,113.16,841.52Z"/><path class="cls-5" d="M113.16,872.48a5.37,5.37,0,1,1-5.36-5.36A5.36,5.36,0,0,1,113.16,872.48Z"/><path class="cls-5" d="M113.16,903.45a5.37,5.37,0,1,1-5.36-5.36A5.36,5.36,0,0,1,113.16,903.45Z"/><path class="cls-5" d="M113.16,934.42a5.37,5.37,0,1,1-5.36-5.36A5.35,5.35,0,0,1,113.16,934.42Z"/><path class="cls-5" d="M113.16,965.39A5.37,5.37,0,1,1,107.8,960,5.35,5.35,0,0,1,113.16,965.39Z"/><path class="cls-5" d="M113.16,996.36A5.37,5.37,0,1,1,107.8,991,5.35,5.35,0,0,1,113.16,996.36Z"/><path class="cls-5" d="M113.16,1027.33a5.37,5.37,0,1,1-5.36-5.37A5.36,5.36,0,0,1,113.16,1027.33Z"/><path class="cls-5" d="M113.16,1058.3a5.37,5.37,0,1,1-5.36-5.37A5.36,5.36,0,0,1,113.16,1058.3Z"/><path class="cls-5" d="M113.16,1089.27a5.37,5.37,0,1,1-5.36-5.37A5.36,5.36,0,0,1,113.16,1089.27Z"/><path class="cls-5" d="M113.16,1120.23a5.37,5.37,0,1,1-5.36-5.36A5.36,5.36,0,0,1,113.16,1120.23Z"/><path class="cls-5" d="M113.16,1151.2a5.37,5.37,0,1,1-5.36-5.36A5.35,5.35,0,0,1,113.16,1151.2Z"/><path class="cls-5" d="M113.16,1182.17a5.37,5.37,0,1,1-5.36-5.36A5.35,5.35,0,0,1,113.16,1182.17Z"/><path class="cls-5" d="M113.16,1213.14a5.37,5.37,0,1,1-5.36-5.36A5.35,5.35,0,0,1,113.16,1213.14Z"/><path class="cls-5" d="M113.16,1244.11a5.37,5.37,0,1,1-5.36-5.36A5.35,5.35,0,0,1,113.16,1244.11Z"/><path class="cls-5" d="M113.16,1275.08a5.37,5.37,0,1,1-5.36-5.37A5.36,5.36,0,0,1,113.16,1275.08Z"/><path class="cls-5" d="M113.16,1306.05a5.37,5.37,0,1,1-5.36-5.37A5.36,5.36,0,0,1,113.16,1306.05Z"/><path class="cls-5" d="M79,20.85a5.36,5.36,0,1,1-5.36-5.37A5.35,5.35,0,0,1,79,20.85Z"/><path class="cls-5" d="M79,51.82a5.36,5.36,0,1,1-5.36-5.37A5.35,5.35,0,0,1,79,51.82Z"/><path class="cls-5" d="M79,82.79a5.36,5.36,0,1,1-5.36-5.37A5.35,5.35,0,0,1,79,82.79Z"/><path class="cls-5" d="M79,113.75a5.36,5.36,0,1,1-5.36-5.36A5.36,5.36,0,0,1,79,113.75Z"/><path class="cls-5" d="M79,144.72a5.36,5.36,0,1,1-5.36-5.36A5.35,5.35,0,0,1,79,144.72Z"/><path class="cls-5" d="M79,175.69a5.36,5.36,0,1,1-5.36-5.36A5.35,5.35,0,0,1,79,175.69Z"/><path class="cls-5" d="M79,206.66a5.36,5.36,0,1,1-5.36-5.36A5.35,5.35,0,0,1,79,206.66Z"/><path class="cls-5" d="M79,237.63a5.36,5.36,0,1,1-5.36-5.37A5.35,5.35,0,0,1,79,237.63Z"/><path class="cls-5" d="M79,268.6a5.36,5.36,0,1,1-5.36-5.37A5.35,5.35,0,0,1,79,268.6Z"/><path class="cls-5" d="M79,299.57a5.36,5.36,0,1,1-5.36-5.37A5.35,5.35,0,0,1,79,299.57Z"/><path class="cls-5" d="M79,330.53a5.36,5.36,0,1,1-5.36-5.36A5.36,5.36,0,0,1,79,330.53Z"/><path class="cls-5" d="M79,361.5a5.36,5.36,0,1,1-5.36-5.36A5.36,5.36,0,0,1,79,361.5Z"/><path class="cls-5" d="M79,392.47a5.36,5.36,0,1,1-5.36-5.36A5.35,5.35,0,0,1,79,392.47Z"/><path class="cls-5" d="M79,423.44a5.36,5.36,0,1,1-5.36-5.36A5.35,5.35,0,0,1,79,423.44Z"/><path class="cls-5" d="M79,454.41A5.36,5.36,0,1,1,73.65,449,5.35,5.35,0,0,1,79,454.41Z"/><path class="cls-5" d="M79,485.38A5.36,5.36,0,1,1,73.65,480,5.35,5.35,0,0,1,79,485.38Z"/><path class="cls-5" d="M79,516.35A5.36,5.36,0,1,1,73.65,511,5.35,5.35,0,0,1,79,516.35Z"/><path class="cls-5" d="M79,547.31A5.36,5.36,0,1,1,73.65,542,5.36,5.36,0,0,1,79,547.31Z"/><path class="cls-5" d="M79,578.28a5.36,5.36,0,1,1-5.36-5.36A5.36,5.36,0,0,1,79,578.28Z"/><path class="cls-5" d="M79,609.25a5.36,5.36,0,1,1-5.36-5.36A5.35,5.35,0,0,1,79,609.25Z"/><path class="cls-5" d="M79,640.22a5.36,5.36,0,1,1-5.36-5.36A5.35,5.35,0,0,1,79,640.22Z"/><path class="cls-5" d="M79,671.19a5.36,5.36,0,1,1-5.36-5.36A5.35,5.35,0,0,1,79,671.19Z"/><path class="cls-5" d="M79,702.16a5.36,5.36,0,1,1-5.36-5.37A5.35,5.35,0,0,1,79,702.16Z"/><path class="cls-5" d="M79,733.13a5.36,5.36,0,1,1-5.36-5.37A5.35,5.35,0,0,1,79,733.13Z"/><path class="cls-5" d="M79,764.09a5.36,5.36,0,1,1-5.36-5.36A5.36,5.36,0,0,1,79,764.09Z"/><path class="cls-5" d="M79,795.06a5.36,5.36,0,1,1-5.36-5.36A5.36,5.36,0,0,1,79,795.06Z"/><path class="cls-5" d="M79,826a5.36,5.36,0,1,1-5.36-5.36A5.35,5.35,0,0,1,79,826Z"/><path class="cls-5" d="M79,857a5.36,5.36,0,1,1-5.36-5.36A5.35,5.35,0,0,1,79,857Z"/><path class="cls-5" d="M79,888a5.36,5.36,0,1,1-5.36-5.36A5.35,5.35,0,0,1,79,888Z"/><path class="cls-5" d="M79,918.94a5.36,5.36,0,1,1-5.36-5.37A5.35,5.35,0,0,1,79,918.94Z"/><path class="cls-5" d="M79,949.91a5.36,5.36,0,1,1-5.36-5.37A5.35,5.35,0,0,1,79,949.91Z"/><path class="cls-5" d="M79,980.88a5.36,5.36,0,1,1-5.36-5.37A5.35,5.35,0,0,1,79,980.88Z"/><path class="cls-5" d="M79,1011.84a5.36,5.36,0,1,1-5.36-5.36A5.36,5.36,0,0,1,79,1011.84Z"/><path class="cls-5" d="M79,1042.81a5.36,5.36,0,1,1-5.36-5.36A5.35,5.35,0,0,1,79,1042.81Z"/><path class="cls-5" d="M79,1073.78a5.36,5.36,0,1,1-5.36-5.36A5.35,5.35,0,0,1,79,1073.78Z"/><path class="cls-5" d="M79,1104.75a5.36,5.36,0,1,1-5.36-5.36A5.35,5.35,0,0,1,79,1104.75Z"/><path class="cls-5" d="M79,1135.72a5.36,5.36,0,1,1-5.36-5.37A5.35,5.35,0,0,1,79,1135.72Z"/><path class="cls-5" d="M79,1166.69a5.36,5.36,0,1,1-5.36-5.37A5.35,5.35,0,0,1,79,1166.69Z"/><path class="cls-5" d="M79,1197.66a5.36,5.36,0,1,1-5.36-5.37A5.35,5.35,0,0,1,79,1197.66Z"/><path class="cls-5" d="M79,1228.62a5.36,5.36,0,1,1-5.36-5.36A5.36,5.36,0,0,1,79,1228.62Z"/><path class="cls-5" d="M79,1259.59a5.36,5.36,0,1,1-5.36-5.36A5.36,5.36,0,0,1,79,1259.59Z"/><path class="cls-5" d="M79,1290.56a5.36,5.36,0,1,1-5.36-5.36A5.35,5.35,0,0,1,79,1290.56Z"/><path class="cls-5" d="M44.87,5.36A5.37,5.37,0,1,1,39.51,0,5.36,5.36,0,0,1,44.87,5.36Z"/><path class="cls-5" d="M44.87,36.33A5.37,5.37,0,1,1,39.51,31,5.35,5.35,0,0,1,44.87,36.33Z"/><path class="cls-5" d="M44.87,67.3a5.37,5.37,0,1,1-5.36-5.36A5.35,5.35,0,0,1,44.87,67.3Z"/><path class="cls-5" d="M44.87,98.27a5.37,5.37,0,1,1-5.36-5.36A5.35,5.35,0,0,1,44.87,98.27Z"/><path class="cls-5" d="M44.87,129.24a5.37,5.37,0,1,1-5.36-5.37A5.36,5.36,0,0,1,44.87,129.24Z"/><path class="cls-5" d="M44.87,160.21a5.37,5.37,0,1,1-5.36-5.37A5.36,5.36,0,0,1,44.87,160.21Z"/><path class="cls-5" d="M44.87,191.17a5.37,5.37,0,1,1-5.36-5.36A5.36,5.36,0,0,1,44.87,191.17Z"/><path class="cls-5" d="M44.87,222.14a5.37,5.37,0,1,1-5.36-5.36A5.36,5.36,0,0,1,44.87,222.14Z"/><path class="cls-5" d="M44.87,253.11a5.37,5.37,0,1,1-5.36-5.36A5.35,5.35,0,0,1,44.87,253.11Z"/><path class="cls-5" d="M44.87,284.08a5.37,5.37,0,1,1-5.36-5.36A5.35,5.35,0,0,1,44.87,284.08Z"/><path class="cls-5" d="M44.87,315.05a5.37,5.37,0,1,1-5.36-5.36A5.35,5.35,0,0,1,44.87,315.05Z"/><path class="cls-5" d="M44.87,346a5.37,5.37,0,1,1-5.36-5.36A5.35,5.35,0,0,1,44.87,346Z"/><path class="cls-5" d="M44.87,377a5.37,5.37,0,1,1-5.36-5.37A5.36,5.36,0,0,1,44.87,377Z"/><path class="cls-5" d="M44.87,408a5.37,5.37,0,1,1-5.36-5.37A5.36,5.36,0,0,1,44.87,408Z"/><path class="cls-5" d="M44.87,438.92a5.37,5.37,0,1,1-5.36-5.36A5.36,5.36,0,0,1,44.87,438.92Z"/><path class="cls-5" d="M44.87,469.89a5.37,5.37,0,1,1-5.36-5.36A5.35,5.35,0,0,1,44.87,469.89Z"/><path class="cls-5" d="M44.87,500.86a5.37,5.37,0,1,1-5.36-5.36A5.35,5.35,0,0,1,44.87,500.86Z"/><path class="cls-5" d="M44.87,531.83a5.37,5.37,0,1,1-5.36-5.36A5.35,5.35,0,0,1,44.87,531.83Z"/><path class="cls-5" d="M44.87,562.8a5.37,5.37,0,1,1-5.36-5.36A5.35,5.35,0,0,1,44.87,562.8Z"/><path class="cls-5" d="M44.87,593.77a5.37,5.37,0,1,1-5.36-5.37A5.36,5.36,0,0,1,44.87,593.77Z"/><path class="cls-5" d="M44.87,624.74a5.37,5.37,0,1,1-5.36-5.37A5.36,5.36,0,0,1,44.87,624.74Z"/><path class="cls-5" d="M44.87,655.7a5.37,5.37,0,1,1-5.36-5.36A5.36,5.36,0,0,1,44.87,655.7Z"/><path class="cls-5" d="M44.87,686.67a5.37,5.37,0,1,1-5.36-5.36A5.36,5.36,0,0,1,44.87,686.67Z"/><path class="cls-5" d="M44.87,717.64a5.37,5.37,0,1,1-5.36-5.36A5.35,5.35,0,0,1,44.87,717.64Z"/><path class="cls-5" d="M44.87,748.61a5.37,5.37,0,1,1-5.36-5.36A5.35,5.35,0,0,1,44.87,748.61Z"/><path class="cls-5" d="M44.87,779.58a5.37,5.37,0,1,1-5.36-5.36A5.35,5.35,0,0,1,44.87,779.58Z"/><path class="cls-5" d="M44.87,810.55a5.37,5.37,0,1,1-5.36-5.37A5.36,5.36,0,0,1,44.87,810.55Z"/><path class="cls-5" d="M44.87,841.52a5.37,5.37,0,1,1-5.36-5.37A5.36,5.36,0,0,1,44.87,841.52Z"/><path class="cls-5" d="M44.87,872.48a5.37,5.37,0,1,1-5.36-5.36A5.36,5.36,0,0,1,44.87,872.48Z"/><path class="cls-5" d="M44.87,903.45a5.37,5.37,0,1,1-5.36-5.36A5.36,5.36,0,0,1,44.87,903.45Z"/><path class="cls-5" d="M44.87,934.42a5.37,5.37,0,1,1-5.36-5.36A5.35,5.35,0,0,1,44.87,934.42Z"/><path class="cls-5" d="M44.87,965.39A5.37,5.37,0,1,1,39.51,960,5.35,5.35,0,0,1,44.87,965.39Z"/><path class="cls-5" d="M44.87,996.36A5.37,5.37,0,1,1,39.51,991,5.35,5.35,0,0,1,44.87,996.36Z"/><path class="cls-5" d="M44.87,1027.33a5.37,5.37,0,1,1-5.36-5.37A5.36,5.36,0,0,1,44.87,1027.33Z"/><path class="cls-5" d="M44.87,1058.3a5.37,5.37,0,1,1-5.36-5.37A5.36,5.36,0,0,1,44.87,1058.3Z"/><path class="cls-5" d="M44.87,1089.27a5.37,5.37,0,1,1-5.36-5.37A5.36,5.36,0,0,1,44.87,1089.27Z"/><path class="cls-5" d="M44.87,1120.23a5.37,5.37,0,1,1-5.36-5.36A5.36,5.36,0,0,1,44.87,1120.23Z"/><path class="cls-5" d="M44.87,1151.2a5.37,5.37,0,1,1-5.36-5.36A5.35,5.35,0,0,1,44.87,1151.2Z"/><path class="cls-5" d="M44.87,1182.17a5.37,5.37,0,1,1-5.36-5.36A5.35,5.35,0,0,1,44.87,1182.17Z"/><path class="cls-5" d="M44.87,1213.14a5.37,5.37,0,1,1-5.36-5.36A5.35,5.35,0,0,1,44.87,1213.14Z"/><path class="cls-5" d="M44.87,1244.11a5.37,5.37,0,1,1-5.36-5.36A5.35,5.35,0,0,1,44.87,1244.11Z"/><path class="cls-5" d="M44.87,1275.08a5.37,5.37,0,1,1-5.36-5.37A5.36,5.36,0,0,1,44.87,1275.08Z"/><path class="cls-5" d="M44.87,1306.05a5.37,5.37,0,1,1-5.36-5.37A5.36,5.36,0,0,1,44.87,1306.05Z"/><path class="cls-5" d="M10.72,20.85a5.36,5.36,0,1,1-5.36-5.37A5.35,5.35,0,0,1,10.72,20.85Z"/><path class="cls-5" d="M10.72,51.82a5.36,5.36,0,1,1-5.36-5.37A5.35,5.35,0,0,1,10.72,51.82Z"/><path class="cls-5" d="M10.72,82.79a5.36,5.36,0,1,1-5.36-5.37A5.35,5.35,0,0,1,10.72,82.79Z"/><path class="cls-5" d="M10.72,113.75a5.36,5.36,0,1,1-5.36-5.36A5.36,5.36,0,0,1,10.72,113.75Z"/><path class="cls-5" d="M10.72,144.72a5.36,5.36,0,1,1-5.36-5.36A5.35,5.35,0,0,1,10.72,144.72Z"/><path class="cls-5" d="M10.72,175.69a5.36,5.36,0,1,1-5.36-5.36A5.35,5.35,0,0,1,10.72,175.69Z"/><path class="cls-5" d="M10.72,206.66a5.36,5.36,0,1,1-5.36-5.36A5.35,5.35,0,0,1,10.72,206.66Z"/><path class="cls-5" d="M10.72,237.63a5.36,5.36,0,1,1-5.36-5.37A5.35,5.35,0,0,1,10.72,237.63Z"/><path class="cls-5" d="M10.72,268.6a5.36,5.36,0,1,1-5.36-5.37A5.35,5.35,0,0,1,10.72,268.6Z"/><path class="cls-5" d="M10.72,299.57a5.36,5.36,0,1,1-5.36-5.37A5.35,5.35,0,0,1,10.72,299.57Z"/><path class="cls-5" d="M10.72,330.53a5.36,5.36,0,1,1-5.36-5.36A5.36,5.36,0,0,1,10.72,330.53Z"/><path class="cls-5" d="M10.72,361.5a5.36,5.36,0,1,1-5.36-5.36A5.36,5.36,0,0,1,10.72,361.5Z"/><path class="cls-5" d="M10.72,392.47a5.36,5.36,0,1,1-5.36-5.36A5.35,5.35,0,0,1,10.72,392.47Z"/><path class="cls-5" d="M10.72,423.44a5.36,5.36,0,1,1-5.36-5.36A5.35,5.35,0,0,1,10.72,423.44Z"/><path class="cls-5" d="M10.72,454.41A5.36,5.36,0,1,1,5.36,449,5.35,5.35,0,0,1,10.72,454.41Z"/><path class="cls-5" d="M10.72,485.38A5.36,5.36,0,1,1,5.36,480,5.35,5.35,0,0,1,10.72,485.38Z"/><path class="cls-5" d="M10.72,516.35A5.36,5.36,0,1,1,5.36,511,5.35,5.35,0,0,1,10.72,516.35Z"/><path class="cls-5" d="M10.72,547.31A5.36,5.36,0,1,1,5.36,542,5.36,5.36,0,0,1,10.72,547.31Z"/><path class="cls-5" d="M10.72,578.28a5.36,5.36,0,1,1-5.36-5.36A5.36,5.36,0,0,1,10.72,578.28Z"/><path class="cls-5" d="M10.72,609.25a5.36,5.36,0,1,1-5.36-5.36A5.35,5.35,0,0,1,10.72,609.25Z"/><path class="cls-5" d="M10.72,640.22a5.36,5.36,0,1,1-5.36-5.36A5.35,5.35,0,0,1,10.72,640.22Z"/><path class="cls-5" d="M10.72,671.19a5.36,5.36,0,1,1-5.36-5.36A5.35,5.35,0,0,1,10.72,671.19Z"/><path class="cls-5" d="M10.72,702.16a5.36,5.36,0,1,1-5.36-5.37A5.35,5.35,0,0,1,10.72,702.16Z"/><path class="cls-5" d="M10.72,733.13a5.36,5.36,0,1,1-5.36-5.37A5.35,5.35,0,0,1,10.72,733.13Z"/><path class="cls-5" d="M10.72,764.09a5.36,5.36,0,1,1-5.36-5.36A5.36,5.36,0,0,1,10.72,764.09Z"/><path class="cls-5" d="M10.72,795.06a5.36,5.36,0,1,1-5.36-5.36A5.36,5.36,0,0,1,10.72,795.06Z"/><path class="cls-5" d="M10.72,826a5.36,5.36,0,1,1-5.36-5.36A5.35,5.35,0,0,1,10.72,826Z"/><path class="cls-5" d="M10.72,857a5.36,5.36,0,1,1-5.36-5.36A5.35,5.35,0,0,1,10.72,857Z"/><path class="cls-5" d="M10.72,888a5.36,5.36,0,1,1-5.36-5.36A5.35,5.35,0,0,1,10.72,888Z"/><path class="cls-5" d="M10.72,918.94a5.36,5.36,0,1,1-5.36-5.37A5.35,5.35,0,0,1,10.72,918.94Z"/><path class="cls-5" d="M10.72,949.91a5.36,5.36,0,1,1-5.36-5.37A5.35,5.35,0,0,1,10.72,949.91Z"/><path class="cls-5" d="M10.72,980.88a5.36,5.36,0,1,1-5.36-5.37A5.35,5.35,0,0,1,10.72,980.88Z"/><path class="cls-5" d="M10.72,1011.84a5.36,5.36,0,1,1-5.36-5.36A5.36,5.36,0,0,1,10.72,1011.84Z"/><path class="cls-5" d="M10.72,1042.81a5.36,5.36,0,1,1-5.36-5.36A5.35,5.35,0,0,1,10.72,1042.81Z"/><path class="cls-5" d="M10.72,1073.78a5.36,5.36,0,1,1-5.36-5.36A5.35,5.35,0,0,1,10.72,1073.78Z"/><path class="cls-5" d="M10.72,1104.75a5.36,5.36,0,1,1-5.36-5.36A5.35,5.35,0,0,1,10.72,1104.75Z"/><path class="cls-5" d="M10.72,1135.72a5.36,5.36,0,1,1-5.36-5.37A5.35,5.35,0,0,1,10.72,1135.72Z"/><path class="cls-5" d="M10.72,1166.69a5.36,5.36,0,1,1-5.36-5.37A5.35,5.35,0,0,1,10.72,1166.69Z"/><path class="cls-5" d="M10.72,1197.66a5.36,5.36,0,1,1-5.36-5.37A5.35,5.35,0,0,1,10.72,1197.66Z"/><path class="cls-5" d="M10.72,1228.62a5.36,5.36,0,1,1-5.36-5.36A5.36,5.36,0,0,1,10.72,1228.62Z"/><path class="cls-5" d="M10.72,1259.59a5.36,5.36,0,1,1-5.36-5.36A5.36,5.36,0,0,1,10.72,1259.59Z"/><path class="cls-5" d="M10.72,1290.56a5.36,5.36,0,1,1-5.36-5.36A5.35,5.35,0,0,1,10.72,1290.56Z"/></g></g></g></g></g></svg>