<svg xmlns="http://www.w3.org/2000/svg" viewBox="0 0 191.52 51.04"><defs><style>.cls-1{fill:red;}.cls-2{fill:#fff;}</style></defs><title>check_image</title><g id="レイヤー_2" data-name="レイヤー 2"><g id="レイヤー_1-2" data-name="レイヤー 1"><polygon class="cls-1" points="191.52 0 0 0 0 43.43 29.27 43.43 37.7 51.04 37.48 43.43 191.52 43.43 191.52 0"/><path class="cls-2" d="M25,20.8a2.51,2.51,0,0,0-2-1A2.45,2.45,0,0,0,22,20a2.33,2.33,0,0,0-.77.52,2.24,2.24,0,0,0-.51.79,2.79,2.79,0,0,0,0,2,2.36,2.36,0,0,0,.52.79,2.21,2.21,0,0,0,.77.53,2.3,2.3,0,0,0,.95.19,2.73,2.73,0,0,0,2-1v2.78l-.24.08a6.76,6.76,0,0,1-1,.28,4.86,4.86,0,0,1-.92.09A4.57,4.57,0,0,1,21,26.71a4.76,4.76,0,0,1-1.51-1,5.07,5.07,0,0,1-1-1.52,4.84,4.84,0,0,1,0-3.83,4.85,4.85,0,0,1,1-1.5,4.67,4.67,0,0,1,1.52-1,4.58,4.58,0,0,1,1.8-.35,4.65,4.65,0,0,1,1.06.11A6.93,6.93,0,0,1,25,18Z"/><path class="cls-2" d="M30,21.27h3.38V17.79h2.35v9H33.41V23.09H30v3.72H27.68v-9H30Z"/><path class="cls-2" d="M44,19.77H41.19v1.51h2.64v2H41.19v1.56H44v2H38.85v-9H44Z"/><path class="cls-2" d="M53.37,20.8a2.53,2.53,0,0,0-2-1,2.45,2.45,0,0,0-1,.19,2.33,2.33,0,0,0-.77.52,2.24,2.24,0,0,0-.51.79,2.65,2.65,0,0,0,0,2,2.37,2.37,0,0,0,1.29,1.32,2.3,2.3,0,0,0,1,.19,2.73,2.73,0,0,0,2-1v2.78l-.24.08a6.76,6.76,0,0,1-1,.28,4.86,4.86,0,0,1-.92.09,4.57,4.57,0,0,1-1.79-.35,4.76,4.76,0,0,1-1.51-1,5.28,5.28,0,0,1-1-1.52,4.71,4.71,0,0,1-.39-1.92,4.59,4.59,0,0,1,.39-1.91,4.85,4.85,0,0,1,1-1.5,4.74,4.74,0,0,1,1.51-1,5,5,0,0,1,2.87-.24,6.93,6.93,0,0,1,1.1.35Z"/><path class="cls-2" d="M58.39,21.51l2.87-3.72h2.89l-3.58,4.27,3.92,4.75h-3L58.39,22.9v3.91H56.05v-9h2.34Z"/><path class="cls-2" d="M66.68,25.66a1.4,1.4,0,0,1,.1-.54,1.77,1.77,0,0,1,.3-.45,1.37,1.37,0,0,1,.45-.3,1.46,1.46,0,0,1,.55-.11,1.41,1.41,0,0,1,.54.11,1.38,1.38,0,0,1,.75.75,1.41,1.41,0,0,1,0,1.09,1.37,1.37,0,0,1-.3.45,1.54,1.54,0,0,1-.45.3,1.4,1.4,0,0,1-.54.1,1.45,1.45,0,0,1-.55-.1,1.54,1.54,0,0,1-.45-.3,1.77,1.77,0,0,1-.3-.45A1.42,1.42,0,0,1,66.68,25.66ZM67,23.75v-6H69.2v6Z"/><path class="cls-2" d="M82.75,20.1a2.81,2.81,0,0,0-.76-.46,2.09,2.09,0,0,0-.75-.15,1.22,1.22,0,0,0-.74.21.69.69,0,0,0-.29.57.54.54,0,0,0,.15.39,1.28,1.28,0,0,0,.38.27,3.13,3.13,0,0,0,.52.2,5.58,5.58,0,0,1,.58.18,3.5,3.5,0,0,1,1.68,1A2.5,2.5,0,0,1,84.06,24a3.22,3.22,0,0,1-.24,1.26,2.59,2.59,0,0,1-.68,1,3,3,0,0,1-1.1.62,4.52,4.52,0,0,1-1.48.22,5.41,5.41,0,0,1-3.17-1l1-1.89a3.91,3.91,0,0,0,1,.69,2.51,2.51,0,0,0,1,.23,1.2,1.2,0,0,0,.86-.27.77.77,0,0,0,.28-.59.8.8,0,0,0-.07-.36.76.76,0,0,0-.24-.27,2,2,0,0,0-.44-.24l-.65-.24c-.3-.09-.6-.2-.89-.31a3,3,0,0,1-.78-.46,2.23,2.23,0,0,1-.55-.73,2.56,2.56,0,0,1-.21-1.11A3.34,3.34,0,0,1,78,19.29a2.86,2.86,0,0,1,.62-.93,2.91,2.91,0,0,1,1-.61,3.77,3.77,0,0,1,1.3-.21,5.91,5.91,0,0,1,1.4.18,6.67,6.67,0,0,1,1.4.55Z"/><path class="cls-2" d="M86.32,26.81l1.53-9h2.32L92,22.6l1.8-4.81H96.1l1.53,9H95.3l-.78-5.19-2.13,5.19h-.93l-2-5.19-.78,5.19Z"/><path class="cls-2" d="M105.84,25.25h-3.35L102,26.81h-2.5l3.44-9h2.56l3.43,9h-2.5Zm-.62-1.79-1-3-1.06,3Z"/><path class="cls-2" d="M118.61,26.81h-2.92l-2.23-3.47v3.47h-2.35v-9h3.65a3.58,3.58,0,0,1,1.32.22,2.76,2.76,0,0,1,.93.6,2.72,2.72,0,0,1,.55.89,3.14,3.14,0,0,1,.18,1.08,2.61,2.61,0,0,1-.5,1.67,2.52,2.52,0,0,1-1.46.86Zm-5.15-5h.44a1.63,1.63,0,0,0,1.06-.29,1,1,0,0,0,.38-.82,1,1,0,0,0-.38-.83,1.69,1.69,0,0,0-1.06-.29h-.44Z"/><path class="cls-2" d="M124.22,19.77v7h-2.35v-7h-1.93v-2h6.2v2Z"/><path class="cls-2" d="M130.73,26.81h-2.35v-9h3.74a3.19,3.19,0,0,1,2.33.79,3,3,0,0,1,.8,2.22,3,3,0,0,1-.8,2.23,3.19,3.19,0,0,1-2.33.79h-1.39Zm0-4.88h.78c.86,0,1.29-.38,1.29-1.13s-.43-1.12-1.29-1.12h-.78Z"/><path class="cls-2" d="M140,21.27h3.39V17.79h2.34v9h-2.34V23.09H140v3.72h-2.35v-9H140Z"/><path class="cls-2" d="M148.46,22.3a4.66,4.66,0,0,1,.37-1.87,4.55,4.55,0,0,1,1-1.52,4.66,4.66,0,0,1,1.57-1,5.46,5.46,0,0,1,2-.36,5.52,5.52,0,0,1,2,.36,4.7,4.7,0,0,1,1.58,1,4.57,4.57,0,0,1,1,1.52,4.91,4.91,0,0,1,0,3.74,4.57,4.57,0,0,1-1,1.52,4.7,4.7,0,0,1-1.58,1,5.52,5.52,0,0,1-2,.36,5.46,5.46,0,0,1-2-.36,4.66,4.66,0,0,1-1.57-1,4.55,4.55,0,0,1-1-1.52A4.66,4.66,0,0,1,148.46,22.3Zm2.45,0a2.43,2.43,0,0,0,.75,1.78,2.39,2.39,0,0,0,.81.52,2.48,2.48,0,0,0,1,.19,2.65,2.65,0,0,0,1.79-.71,2.34,2.34,0,0,0,.55-.79,2.44,2.44,0,0,0,0-2,2.34,2.34,0,0,0-.55-.79,2.65,2.65,0,0,0-1.79-.71,2.48,2.48,0,0,0-1,.19,2.39,2.39,0,0,0-.81.52,2.43,2.43,0,0,0-.75,1.78Z"/><path class="cls-2" d="M161.13,26.81v-9h2.35l4.33,5.52V17.79h2.34v9h-2.34l-4.33-5.52v5.52Z"/><path class="cls-2" d="M178.37,19.77h-2.79v1.51h2.63v2h-2.63v1.56h2.79v2h-5.14v-9h5.14Z"/></g></g></svg>