<svg xmlns="http://www.w3.org/2000/svg" viewBox="0 0 50.16 21"><defs><style>.cls-1{fill:red;}.cls-2{fill:#fff;}</style></defs><title>chek smal_image</title><g id="レイヤー_2" data-name="レイヤー 2"><g id="レイヤー_1-2" data-name="レイヤー 1"><polygon class="cls-1" points="0 0 50.16 0 50.16 17.58 40.88 17.58 37.09 21 37.19 17.58 0 17.58 0 0"/><path class="cls-2" d="M9.62,9.53a1.72,1.72,0,0,0-.95-.32,1.25,1.25,0,0,0-.88.34,1.13,1.13,0,0,0-.27.4,1.28,1.28,0,0,0-.09.5,1.39,1.39,0,0,0,.09.5,1.28,1.28,0,0,0,.26.38,1,1,0,0,0,.4.26,1.3,1.3,0,0,0,.49.09,1.51,1.51,0,0,0,.95-.35v1.54a3.27,3.27,0,0,1-1.27.29A3,3,0,0,1,7.28,13a2.82,2.82,0,0,1-.89-.55,2.54,2.54,0,0,1-.61-.85,2.46,2.46,0,0,1-.23-1.1,2.73,2.73,0,0,1,.22-1.12,2.74,2.74,0,0,1,1.5-1.44,3.24,3.24,0,0,1,1.13-.2A2.67,2.67,0,0,1,9.62,8Z"/><path class="cls-2" d="M11.65,4.7h1.81V8.52a2,2,0,0,1,.75-.61,2.4,2.4,0,0,1,.89-.15,1.92,1.92,0,0,1,1.46.53,2.06,2.06,0,0,1,.5,1.45V13H15.25V10.41a2.68,2.68,0,0,0-.06-.63.77.77,0,0,0-.2-.37.86.86,0,0,0-.58-.21.89.89,0,0,0-.71.28,1.14,1.14,0,0,0-.24.78V13H11.65Z"/><path class="cls-2" d="M20.92,10.74c0,.78.36,1.17,1.1,1.17a1,1,0,0,0,.89-.48h1.75A2.46,2.46,0,0,1,22,13.19a3.5,3.5,0,0,1-1.19-.2,2.7,2.7,0,0,1-.93-.55,2.59,2.59,0,0,1-.59-.86,2.87,2.87,0,0,1-.21-1.12,3.28,3.28,0,0,1,.2-1.16,2.35,2.35,0,0,1,.57-.87,2.46,2.46,0,0,1,.89-.56,3.42,3.42,0,0,1,1.19-.19,3.34,3.34,0,0,1,1.17.19,2.39,2.39,0,0,1,.88.57,2.57,2.57,0,0,1,.55.9,3.79,3.79,0,0,1,.19,1.21v.19ZM23,9.69a1.13,1.13,0,0,0-.37-.61A1.07,1.07,0,0,0,22,8.85a1,1,0,0,0-.69.22,1,1,0,0,0-.33.62Z"/><path class="cls-2" d="M30.63,9.53a1.72,1.72,0,0,0-.95-.32,1.25,1.25,0,0,0-.88.34,1.13,1.13,0,0,0-.27.4,1.28,1.28,0,0,0-.09.5,1.39,1.39,0,0,0,.09.5,1.28,1.28,0,0,0,.26.38,1,1,0,0,0,.4.26,1.3,1.3,0,0,0,.49.09,1.53,1.53,0,0,0,.95-.35v1.54a3.27,3.27,0,0,1-1.27.29A3,3,0,0,1,28.29,13a2.82,2.82,0,0,1-.89-.55,2.54,2.54,0,0,1-.61-.85,2.46,2.46,0,0,1-.23-1.1,2.73,2.73,0,0,1,.22-1.12,2.47,2.47,0,0,1,.6-.86,2.63,2.63,0,0,1,.9-.58,3.24,3.24,0,0,1,1.13-.2A2.67,2.67,0,0,1,30.63,8Z"/><path class="cls-2" d="M34.47,4.7v5l1.9-1.85h2.48l-2.57,2.37L39,13H36.46l-2-2.09V13H32.66V4.7Z"/><path class="cls-2" d="M40.77,12a1.22,1.22,0,0,1,.09-.46,1.15,1.15,0,0,1,.25-.37,1.05,1.05,0,0,1,.37-.25,1.22,1.22,0,0,1,.46-.09,1.13,1.13,0,0,1,.45.09,1.09,1.09,0,0,1,.38.25,1.34,1.34,0,0,1,.25.37,1.22,1.22,0,0,1,.09.46,1.13,1.13,0,0,1-.09.45,1.25,1.25,0,0,1-.25.38,1.09,1.09,0,0,1-.38.25,1.13,1.13,0,0,1-.45.09,1.22,1.22,0,0,1-.46-.09,1.05,1.05,0,0,1-.37-.25,1.09,1.09,0,0,1-.25-.38A1.13,1.13,0,0,1,40.77,12Zm.23-1.6v-5h1.88v5Z"/></g></g></svg>