<svg xmlns="http://www.w3.org/2000/svg" viewBox="0 0 260.8 63.84"><defs><style>.cls-1{fill:#bcbcbc;}</style></defs><title>face tw_image</title><g id="レイヤー_2" data-name="レイヤー 2"><g id="レイヤー_1-2" data-name="レイヤー 1"><path d="M178.79,49.94H177v-.66h4.43v.66h-1.83v5.32h-.78Z"/><path d="M183.92,55.26l-1.51-6h.81l.71,3c.18.74.34,1.49.45,2.06h0c.1-.59.29-1.3.49-2.07l.8-3h.81l.72,3c.17.71.33,1.41.42,2h0c.12-.65.29-1.32.48-2.06l.79-3h.79l-1.7,6h-.8l-.76-3.11c-.18-.77-.31-1.35-.39-1.95h0a17.64,17.64,0,0,1-.46,1.95l-.85,3.11Z"/><path d="M192.11,49.28v6h-.77v-6Z"/><path d="M195.48,49.94h-1.82v-.66h4.42v.66h-1.82v5.32h-.78Z"/><path d="M200.77,49.94H199v-.66h4.42v.66h-1.83v5.32h-.78Z"/><path d="M208,52.46H205.7v2.15h2.59v.65h-3.36v-6h3.23v.65H205.7v1.89H208Z"/><path d="M210.18,49.36a8.05,8.05,0,0,1,1.48-.12,2.44,2.44,0,0,1,1.73.49,1.48,1.48,0,0,1,.47,1.13,1.58,1.58,0,0,1-1.13,1.53v0a1.5,1.5,0,0,1,.88,1.21,10.6,10.6,0,0,0,.46,1.64h-.8a7.89,7.89,0,0,1-.39-1.43c-.18-.82-.5-1.13-1.2-1.16H211v2.59h-.77Zm.77,2.72h.79c.82,0,1.35-.45,1.35-1.13s-.56-1.11-1.38-1.12a3.55,3.55,0,0,0-.76.07Z"/><path d="M63.42,36.73h4.29V26.36h2.86l.37-3.57H67.71V21c0-.93.09-1.43,1.43-1.43h1.78V16H68.07c-3.44,0-4.65,1.74-4.65,4.65v2.15H61.28v3.57h2.14Z"/><g id="layer1"><path id="rect2989" d="M198.79,17.76a4.14,4.14,0,0,0-3.9,5,11.66,11.66,0,0,1-8.46-4.29,4,4,0,0,0-.56,2.07A4.1,4.1,0,0,0,187.7,24a4,4,0,0,1-1.86-.51v.05a4.11,4.11,0,0,0,3.29,4,4.2,4.2,0,0,1-1.08.14,4.9,4.9,0,0,1-.77-.07,4.1,4.1,0,0,0,3.83,2.85,8.23,8.23,0,0,1-5.1,1.76,8.06,8.06,0,0,1-1-.06,11.67,11.67,0,0,0,18-9.84c0-.18,0-.36,0-.53a8.31,8.31,0,0,0,2.05-2.13,8.18,8.18,0,0,1-2.36.65,4.13,4.13,0,0,0,1.81-2.27,8.32,8.32,0,0,1-2.61,1,4.11,4.11,0,0,0-3-1.3Z"/></g><rect class="cls-1" x="259.8" width="1" height="63.84"/><rect class="cls-1" x="129.9" width="1" height="63.84"/><rect class="cls-1" width="1" height="63.84"/><path d="M44.48,52.55h3.21v.64H45.25v2h2.26v.64H45.25v2.7h-.77Z"/><path d="M50.65,56.64,50,58.52h-.8l2-6h.93l2,6H53.4l-.63-1.88Zm2-.6L52,54.32c-.13-.39-.22-.74-.31-1.09h0c-.09.35-.18.72-.3,1.08L50.81,56Z"/><path d="M60.17,58.33a3.86,3.86,0,0,1-1.58.28,2.79,2.79,0,0,1-3-3,3,3,0,0,1,3.12-3.14,3.38,3.38,0,0,1,1.42.26l-.19.63a2.83,2.83,0,0,0-1.2-.24,2.22,2.22,0,0,0-2.33,2.46A2.17,2.17,0,0,0,58.75,58,2.94,2.94,0,0,0,60,57.71Z"/><path d="M65.12,55.72H62.79v2.15h2.59v.65H62v-6h3.23v.64H62.79v1.89h2.33Z"/><path d="M67.27,52.63a7.53,7.53,0,0,1,1.41-.13,2.47,2.47,0,0,1,1.64.44,1.25,1.25,0,0,1,.5,1.05,1.41,1.41,0,0,1-1,1.31v0A1.53,1.53,0,0,1,71,56.82a1.64,1.64,0,0,1-.5,1.2,3,3,0,0,1-2.07.56,8.11,8.11,0,0,1-1.2-.08ZM68,55.07h.7c.82,0,1.3-.42,1.3-1s-.53-1-1.31-1a3.23,3.23,0,0,0-.69,0Zm0,2.87a5.43,5.43,0,0,0,.65,0c.8,0,1.53-.29,1.53-1.16s-.7-1.15-1.54-1.15H68Z"/><path d="M78.07,55.47c0,2.06-1.25,3.15-2.77,3.15a2.74,2.74,0,0,1-2.69-3,2.84,2.84,0,0,1,2.77-3.14A2.72,2.72,0,0,1,78.07,55.47Zm-4.64.1c0,1.28.7,2.42,1.91,2.42s1.92-1.13,1.92-2.48c0-1.19-.63-2.43-1.91-2.43S73.43,54.26,73.43,55.57Z"/><path d="M85.07,55.47c0,2.06-1.25,3.15-2.78,3.15a2.73,2.73,0,0,1-2.68-3,2.84,2.84,0,0,1,2.77-3.14A2.72,2.72,0,0,1,85.07,55.47Zm-4.64.1c0,1.28.69,2.42,1.91,2.42s1.91-1.13,1.91-2.48c0-1.19-.62-2.43-1.9-2.43S80.43,54.26,80.43,55.57Z"/><path d="M87,52.55h.77v2.88h0c.16-.23.32-.45.47-.64l1.83-2.24h1l-2.16,2.53,2.33,3.44h-.92l-2-2.93-.57.65v2.28H87Z"/></g></g></svg>