<svg xmlns="http://www.w3.org/2000/svg" viewBox="0 0 269.88 269.88"><defs><style>.cls-1{fill:#fff;}</style></defs><title>issue_image</title><g id="レイヤー_2" data-name="レイヤー 2"><g id="レイヤー_1-2" data-name="レイヤー 1"><circle cx="134.94" cy="134.94" r="134.94"/><path class="cls-1" d="M53,147.09V164.6H50.06V147.09H44.39v-3.24H58.68v3.24Z"/><path class="cls-1" d="M74,154a14.4,14.4,0,0,0-4.23-2.76L71,148.36a12.49,12.49,0,0,1,4.34,2.93ZM80.62,159a33.8,33.8,0,0,1-7.48,6.14c-.09.05-.14.14-.18.31-.09.4-.13.51-.22.51s-.46-.54-.54-.77L71,162.49c5.5-3,9.36-6.68,13-13.61l1.72,2.73A34.18,34.18,0,0,1,80.62,159Zm-4.23-11.55a12.83,12.83,0,0,0-4.24-2.75l1.25-2.85a12.81,12.81,0,0,1,4.23,2.76Z"/><path class="cls-1" d="M105.53,158.74l-2-1.11c.37-.82.44-1,1-2.3.41-.88.46-1,.87-1.9l-4,1,1.63,10.86-2.33.71-1.51-11-4,1.08-.78-2.55,4.4-1.11-.72-5.09,2.08-.31c.11,0,.56-.06.56.25,0,.06,0,.12-.17.4a.87.87,0,0,0-.13.43l.59,3.75,5.1-1.28c.37-.09.64-.54.75-.74l1.76,1.68C107.77,153.65,107,155.3,105.53,158.74Z"/><path class="cls-1" d="M119.43,152a28.63,28.63,0,0,0-2-5.49l2.33-1.19a31.53,31.53,0,0,1,2,5.57Zm14.45-6.2a1.77,1.77,0,0,0-.39.26,10.61,10.61,0,0,0-.42,1.59c-2.12,10.74-7.55,15-10.1,16.94l-2.14-2.42a19.25,19.25,0,0,0,7.22-7.84A25.89,25.89,0,0,0,130.87,144l2.62,1c.06,0,.48.2.48.46A.4.4,0,0,1,133.88,145.75Zm-9.43,4.52a28.18,28.18,0,0,0-1.74-5.57l2.29-1.08a41.18,41.18,0,0,1,1.76,5.57Z"/><path class="cls-1" d="M151,163.26a2.85,2.85,0,0,1-2.48,1.11,13.07,13.07,0,0,1-1.64-.11l-.52-3.07a5.14,5.14,0,0,0,1.48.22,1.55,1.55,0,0,0,1.51-.79c1-1.59,1.15-5.18,1.15-6.54,0-2.19-.41-2.87-1.77-2.87a5.32,5.32,0,0,0-1.17.14c-1.12,5.83-2.16,9.24-4.15,13.16l-2.27-1.33a35,35,0,0,0,4-11.09,17,17,0,0,0-3,1.53l-.8-3.41c1.65-.34,2.4-.54,4.18-1.05a41.57,41.57,0,0,0,.22-5.4l2.62.48c.28.06.53.2.53.43s0,.14-.25.31-.26.23-.3.6c-.11,1.14-.15,1.65-.33,2.93a6.83,6.83,0,0,1,1.6-.2c2.94,0,3.2,3.38,3.2,5.91C152.78,158.31,152,162,151,163.26Zm4.06-6.42-1.15-2.7c.78-.15,1.24-.29,1.24-1s-.83-3-3.14-6.54l1.77-1.59c1,1.56,4,6.14,4,9.15C157.74,156.35,155.86,156.69,155.05,156.84Zm1.9-9.1a12.79,12.79,0,0,0-1.72-2.5l1.17-1.14a15.86,15.86,0,0,1,1.69,2.42Zm2.23-1.68a11.18,11.18,0,0,0-1.55-2.44l1.13-1.08a11.77,11.77,0,0,1,1.7,2.39Z"/><path class="cls-1" d="M175.09,150a12,12,0,0,0-2.66,6.82A4.89,4.89,0,0,0,174,160.5a5.69,5.69,0,0,0,3.84,1.45l-.85,3.47a8.83,8.83,0,0,1-5.37-3.15,8.42,8.42,0,0,1-1.61-5.12,12.51,12.51,0,0,1,1.48-5.66,21,21,0,0,1,2.88-4.32c-2.92.31-6.13.65-8.31,1.05l-.37-3.18c4.71.06,11.48-.63,15.6-2.28v3.3C180.26,146.15,177.86,146.35,175.09,150Zm4.56,4.86a11.28,11.28,0,0,0-1.79-2.19l.9-1.37a11.29,11.29,0,0,1,1.81,2.19Zm1.77-2.59a11.85,11.85,0,0,0-1.81-2.16l.92-1.37a12.46,12.46,0,0,1,1.81,2.16Z"/><path class="cls-1" d="M194.72,143.36c-.35.26-.4.29-.53.68-.37,1.14-.58,1.79-1.28,3.5l.3.2a.4.4,0,0,1,.11.28c0,.23-.15.34-.24.46a.75.75,0,0,0-.33.51v16.86h-2.48v-13c-.24.4-.46.72-.72,1.09l-2.19-1.77c2.34-3.29,3.32-5.6,4.46-10.34l2.85.88a.31.31,0,0,1,.22.28A.47.47,0,0,1,194.72,143.36Zm6.19,5.29v2.87h5v2.9h-5v2.84h5.68v3.16h-5.68v5.4h-2.53V148.65h-.74a25.31,25.31,0,0,1-2.38,4.52L193,151.58c2.2-3,3.16-5.32,4.19-9.9l2.62,1a.33.33,0,0,1,.19.28.35.35,0,0,1-.13.29,4.21,4.21,0,0,0-.41.28c0,.06-.55,1.76-.63,2.05h8.16v3Z"/><path class="cls-1" d="M221.46,165.14a3.78,3.78,0,0,1-4.13-3.9c0-1.62,1.07-3.78,3.21-3.78s3.69,2.33,4.3,3.33a5.58,5.58,0,0,0,1.44-3.78,3.48,3.48,0,0,0-3.54-3.73,4.79,4.79,0,0,0-2.48.71c-1.36.94-3.28,3.47-4.5,5.09l-1.83-2.5A51.1,51.1,0,0,0,222,146.32a15.87,15.87,0,0,1-5.1.71l-.51-3.18c.53.05,1.77.17,2.45.17a19.35,19.35,0,0,0,6.61-1.43l1.13,2.31a62.24,62.24,0,0,0-4.84,6.08,13.66,13.66,0,0,1,2.12-.17c3,0,4.84,3.16,4.84,6.28C228.7,161.81,225.3,165.14,221.46,165.14Zm-.83-5.18a1.11,1.11,0,0,0-1.09,1.2c0,1,1,1.28,1.78,1.28a4.77,4.77,0,0,0,1.49-.26C222.53,161.53,221.87,160,220.63,160Z"/><path class="cls-1" d="M85.82,211a20.49,20.49,0,0,1-6.26-6.06v6.6H77v-6.71a21.54,21.54,0,0,1-6.4,6.28l-1.9-2.27c2.38-1.11,4-2.33,6.57-5.83h-4v-9.38H77v-1.51H69v-2.7h8v-2.36l2.64.23c.26,0,.32.17.32.28a.5.5,0,0,1-.13.26c-.19.2-.24.25-.24.4v1.19h8v2.7h-8v1.51h5.76V203H81.09c1.44,1.93,2.92,3.35,6.46,5.54ZM77,195.76H73.76v1.31H77Zm0,3.58H73.76v1.37H77Zm5.84-3.58H79.56v1.31h3.25Zm0,3.58H79.56v1.37h3.25Z"/><path class="cls-1" d="M92.9,192.23v-2.67H101v-2.5l3,.46c.13,0,.28.08.28.28a.29.29,0,0,1-.15.23c-.26.22-.39.34-.39.42v1.11h7.92v2.67Zm6.79,12.71c-.28.09-.33.12-.37.2a31.64,31.64,0,0,1-3.75,5.4l-2.32-1.73a22,22,0,0,0,4.21-6.37l2.34,1.9a.51.51,0,0,1,.11.32A.3.3,0,0,1,99.69,204.94Zm3.82-3v6.71c0,.93-.18,2.1-1,2.44a7.34,7.34,0,0,1-2.77.46l-1.07-3.27a8.78,8.78,0,0,0,1.39.17c.59,0,.79-.32.79-.83V202H95.43v-8.08h13.68V202Zm2.94-5.46H98.07v2.87h8.38Zm2.23,14.13a23.76,23.76,0,0,0-4-5.86l1.7-2.3a32.61,32.61,0,0,1,4.39,5.94Z"/><path class="cls-1" d="M132.65,209.4a41.65,41.65,0,0,0-5.33-7.1,22.74,22.74,0,0,1-7.46,7.3L117.94,207a19.87,19.87,0,0,0,7-6.14,24.7,24.7,0,0,0,3.71-7.76H120.3v-3.3h9.4a1.86,1.86,0,0,0,1.13-.63l1.69,2.42a3.71,3.71,0,0,0-1.18,1.71,39.19,39.19,0,0,1-2.53,6.36,51.8,51.8,0,0,1,5.78,7Z"/><path class="cls-1" d="M156.92,195.05a32.64,32.64,0,0,1-2.51,6.82c.54.6,1.07,1.2,1.83,2.16l-1.61,2.45c-.37-.46-.79-1-1.7-2.08a23.41,23.41,0,0,1-6.92,6.94l-2-2.67a17.12,17.12,0,0,0,7-6.26,28.06,28.06,0,0,0-3.6-3l1.33-2.14a18.83,18.83,0,0,1,3.71,2.71,18.67,18.67,0,0,0,2-5.26h-5.59a25.4,25.4,0,0,1-3.95,5.77l-2-2c3.08-2.73,5.17-7.59,6.11-11.15l2.4.91c.13.06.44.23.44.43s-.2.28-.51.45c-.26.69-.67,1.79-1.11,2.76h5c.26,0,.65-.4,1-.68l1.62,2.19A3.67,3.67,0,0,0,156.92,195.05Z"/><path class="cls-1" d="M180.62,190.5c-.32,0-.37.09-.67.51a32.89,32.89,0,0,1-3.6,4.44V210.6h-2.73V198.09a38.41,38.41,0,0,1-5.5,4l-1.9-2.53c4.56-2.33,9.36-7,12.66-12.08l1.9,2a1.53,1.53,0,0,1,.37.68C181.15,190.44,181.06,190.47,180.62,190.5Z"/><path class="cls-1" d="M196,191a.41.41,0,0,0-.16.37c0,5.31,0,5.74-.11,7A15.48,15.48,0,0,1,191,208.64l-2.42-2.31c2.09-1.59,4.67-4,4.67-11.08a53.06,53.06,0,0,0-.24-5.37l2.64.22c.39,0,.63.12.63.43C196.32,190.64,196.28,190.67,196,191Zm4,17.71-1.85-1.88V189.53l2.53.4c.2,0,.61.09.61.37,0,.12,0,.2-.24.43,0,0-.26.31-.26.34v12.42a22.87,22.87,0,0,0,5.76-7.28l1.48,2.88A33.75,33.75,0,0,1,200.05,208.67Z"/><path class="cls-1" d="M116.07,56.84h-1.31l-2-10.8H114l1.45,7.35.31,2L117.69,46h.54Z"/><path class="cls-1" d="M116.22,57h-1.61l0-.15-2.08-11h1.67l1.48,7.5.16,1,1.73-8.52h.92l0,.23Zm-1.3-.37h1L118,46.22h-.16l-2.08,10.26-.47-3.06-1.43-7.2H113Z"/><path class="cls-1" d="M121.74,49.07c0-2,1.08-3.13,2.6-3.13s2.59,1.08,2.59,3.13v4.74c0,2-1.08,3.13-2.59,3.13s-2.6-1.08-2.6-3.13ZM123,54.68c0,1.41.54,2,1.31,2s1.28-.54,1.28-2V48.2c0-1.41-.54-2-1.28-2s-1.31.54-1.31,2Z"/><path class="cls-1" d="M124.34,57.13c-1.72,0-2.79-1.28-2.79-3.32V49.07c0-2,1.07-3.32,2.79-3.32s2.78,1.27,2.78,3.32v4.74C127.12,55.85,126.05,57.13,124.34,57.13Zm.58-11c.45.21.89.74.89,2v6.48c0,1.28-.44,1.81-.89,2,1.15-.26,1.83-1.3,1.83-2.89V49.07C126.75,47.48,126.07,46.44,124.92,46.18Zm-1.18,0c-1.15.26-1.81,1.3-1.81,2.89v4.74c0,1.59.66,2.62,1.81,2.88-.46-.21-.9-.74-.9-2V48.2C122.84,46.92,123.28,46.39,123.74,46.18Zm.6.25c-.75,0-1.13.6-1.13,1.77v6.48c0,1.17.38,1.77,1.13,1.77s1.1-.6,1.1-1.77V48.2C125.44,47,125.07,46.43,124.34,46.43Z"/><path class="cls-1" d="M131.18,56.84V42.3h1.27V56.84Z"/><path class="cls-1" d="M132.63,57H131V42.12h1.64Zm-1.27-.37h.9V42.49h-.9Z"/><path class="cls-1" d="M137.92,56.22a.73.73,0,0,1-1.46,0v-.11a.73.73,0,1,1,1.46,0Z"/><path class="cls-1" d="M137.19,57.13a.89.89,0,0,1-.91-.91v-.11a.91.91,0,1,1,1.82,0v.11A.89.89,0,0,1,137.19,57.13Zm0-1.56a.53.53,0,0,0-.54.54v.11a.54.54,0,0,0,1.08,0v-.11A.53.53,0,0,0,137.19,55.57Z"/><path class="cls-1" d="M142.11,52.58a.59.59,0,0,1,.62.62v1.25c0,1.58.52,2.18,1.35,2.18s1.35-.6,1.35-2.18V49.78c0-1.54-.52-2.14-1.35-2.14a2.74,2.74,0,0,0-1.7.79l-.27-.31,4-4.45H141.7V42.3h5.08v1.25l-3.73,4.09a1.92,1.92,0,0,1,1.14-.35c1.55,0,2.59,1,2.59,3.53v2.59c0,2.49-1,3.53-2.7,3.53s-2.59-1-2.59-3.53V53.2A.6.6,0,0,1,142.11,52.58Z"/><path class="cls-1" d="M144.08,57.13c-1,0-2.78-.49-2.78-3.72V53.2a.81.81,0,0,1,1.62,0v1.25c0,1.79.66,2,1.16,2s1.17-.21,1.17-2V49.78c0-2-.88-2-1.17-2a2.56,2.56,0,0,0-1.57.74l-.14.14-.51-.59,3.8-4.25h-4.15V42.12H147v1.5l-3.22,3.52a2.87,2.87,0,0,1,.44,0c1,0,2.78.48,2.78,3.72v2.59C147,56.48,145.4,57.13,144.08,57.13Zm.29-9.65c.83.13,1.25.91,1.25,2.3v4.67c0,1.23-.32,2-.94,2.25,1.27-.25,1.92-1.35,1.92-3.29V50.82C146.6,48.68,145.85,47.56,144.37,47.48Zm-2.26,5.29a.42.42,0,0,0-.44.43v.21c0,1.91.61,3,1.8,3.28-.61-.28-.92-1-.92-2.24V53.2A.42.42,0,0,0,142.11,52.77Zm.25-4.65,0,0a3.25,3.25,0,0,1,.69-.46l-.18-.19,3.69-4v-1h-4.72v1h4.61Z"/><path class="cls-1" d="M74.81,85V70.85H72.42v-.37h6.13v.37H76.16V85Z"/><path class="cls-1" d="M76.34,85.2H74.62V71H72.23v-.74h6.5V71H76.34ZM75,84.83h1V70.66H75Z"/><path class="cls-1" d="M92.45,81.69c0,2.28-1.14,3.43-2.8,3.43S87,84,87,81.69V79.82H88.2v2.7c0,1.56.62,2.29,1.45,2.29s1.46-.73,1.46-2.29V81.36c0-1.75-.73-2.39-1.94-3.53l-.39-.38c-1-.93-1.83-1.68-1.83-3.24v-.93a2.66,2.66,0,1,1,5.3,0v1.87H91V72.86c0-1.45-.62-2.18-1.35-2.18s-1.35.73-1.35,2.18v.94c0,1.24.67,1.89,1.54,2.72l.39.37c1.19,1.12,2.22,2.2,2.22,3.8Z"/><path class="cls-1" d="M89.65,85.3c-1.78,0-2.88-1.38-2.88-3.61v-2h1.61v2.88c0,1.31.48,2.1,1.27,2.1s1.27-.79,1.27-2.1V81.36c0-1.62-.63-2.22-1.79-3.31l-.6-.58c-.94-.9-1.76-1.68-1.76-3.26v-.93a2.84,2.84,0,1,1,5.66,0v2H90.82V72.86c0-1.21-.46-2-1.17-2s-1.16.78-1.16,2v.94c0,1.18.62,1.77,1.48,2.58l.39.38c1.25,1.18,2.28,2.29,2.28,3.93v1C92.64,84,91.52,85.3,89.65,85.3Zm-.48-14.7a2.5,2.5,0,0,0-2,2.68v.93c0,1.42.73,2.12,1.65,3l.6.57c1.14,1.08,1.9,1.8,1.9,3.58v1.16c0,1.24-.39,2.07-1.07,2.36,1.31-.24,2-1.38,2-3.19v-1c0-1.49-.94-2.5-2.16-3.66l-.4-.38a3.75,3.75,0,0,1-1.59-2.85v-.94C88.12,71.51,88.61,70.83,89.17,70.6Zm-2,9.41v1.68c0,1.76.7,2.9,1.91,3.18-.66-.3-1-1.13-1-2.35V80Zm4-5.05h.87V73.28a2.52,2.52,0,0,0-1.9-2.67c.54.24,1,.92,1,2.25Z"/><path class="cls-1" d="M102.56,70.48V85h-1.35v-7H98.1v7H96.75V70.48H98.1v7.16h3.11V70.48Z"/><path class="cls-1" d="M102.75,85.2H101v-7H98.28v7H96.56V70.29h1.72v7.17H101V70.29h1.72Zm-1.35-.37h1V70.66h-1v7.17H97.91V70.66h-1V84.83h1v-7h3.49Z"/><path class="cls-1" d="M108.58,85h-1.35V70.48h1.35Z"/><path class="cls-1" d="M108.76,85.2H107V70.29h1.72Zm-1.35-.37h1V70.66h-1Z"/><path class="cls-1" d="M116.63,78.51l2.64,6.5h-1.54l-2.41-6.44h-.75V85h-1.34V70.48h2.59c1.87,0,2.7.83,2.7,2.7v2.7C118.52,77.45,117.92,78.28,116.63,78.51Zm.54-5.75c0-1.5-.41-1.91-1.14-1.91h-1.46v7.31H116c.73,0,1.14-.42,1.14-1.87Z"/><path class="cls-1" d="M119.54,85.2H117.6l-2.41-6.44h-.43V85.2H113V70.29h2.78c2,0,2.89.92,2.89,2.89v2.7c0,1.56-.6,2.47-1.82,2.77Zm-1.68-.37H119l-2.62-6.46.23,0c1.2-.21,1.73-1,1.73-2.45v-2.7c0-1.62-.62-2.38-2.08-2.5.77.1,1.11.74,1.11,2.08v3.53c0,1.44-.4,2-1.33,2h-1.64V70.66h-1V84.83h1V78.39h1.06ZM114.76,78H116c.46,0,1-.13,1-1.68V72.76c0-1.59-.48-1.73-1-1.73h-1.27Z"/><path class="cls-1" d="M124.4,85V70.85H122v-.37h6.12v.37h-2.39V85Z"/><path class="cls-1" d="M125.94,85.2h-1.72V71h-2.39v-.74h6.5V71h-2.39Zm-1.35-.37h1V70.66h-1Z"/><path class="cls-1" d="M136.9,81.69c0,2.28-1.14,3.43-2.8,3.43s-2.7-1.15-2.7-3.43V79.82h1.25v2.7c0,1.56.62,2.29,1.45,2.29s1.45-.73,1.45-2.29V81.36c0-1.75-.72-2.39-1.93-3.53l-.39-.38c-1-.93-1.83-1.68-1.83-3.24v-.93a2.66,2.66,0,1,1,5.3,0v1.87h-1.25V72.86c0-1.45-.62-2.18-1.35-2.18s-1.35.73-1.35,2.18v.94c0,1.24.67,1.89,1.54,2.72l.39.37c1.19,1.12,2.22,2.2,2.22,3.8Z"/><path class="cls-1" d="M134.1,85.3c-1.78,0-2.88-1.38-2.88-3.61v-2h1.61v2.88c0,1.31.48,2.1,1.27,2.1s1.27-.79,1.27-2.1V81.36c0-1.62-.63-2.22-1.79-3.31l-.6-.58a4.16,4.16,0,0,1-1.76-3.26v-.93a2.84,2.84,0,1,1,5.66,0v2h-1.61V72.86c0-1.21-.46-2-1.17-2s-1.16.78-1.16,2v.94c0,1.18.62,1.77,1.48,2.58l.39.38c1.25,1.18,2.28,2.29,2.28,3.93v1C137.09,84,136,85.3,134.1,85.3Zm-.48-14.7a2.49,2.49,0,0,0-2,2.68v.93c0,1.42.73,2.12,1.65,3l.6.57c1.14,1.08,1.9,1.8,1.9,3.58v1.16c0,1.24-.39,2.07-1.07,2.36,1.31-.24,2.05-1.38,2.05-3.19v-1c0-1.49-.94-2.5-2.17-3.66l-.39-.38a3.72,3.72,0,0,1-1.59-2.85v-.94C132.57,71.51,133.06,70.83,133.62,70.6Zm-2,9.41v1.68c0,1.76.7,2.9,1.91,3.18-.66-.3-1-1.13-1-2.35V80Zm4-5.05h.87V73.28a2.52,2.52,0,0,0-1.9-2.67c.54.24,1,.92,1,2.25Z"/><path class="cls-1" d="M151.64,81.69c0,2.28-1.14,3.43-2.8,3.43s-2.7-1.15-2.7-3.43V79.82h1.25v2.7c0,1.56.62,2.29,1.45,2.29s1.45-.73,1.45-2.29V81.36c0-1.75-.72-2.39-1.93-3.53l-.39-.38c-1-.93-1.83-1.68-1.83-3.24v-.93a2.66,2.66,0,1,1,5.3,0v1.87h-1.25V72.86c0-1.45-.62-2.18-1.35-2.18s-1.35.73-1.35,2.18v.94c0,1.24.66,1.89,1.54,2.72l.39.37c1.19,1.12,2.22,2.2,2.22,3.8Z"/><path class="cls-1" d="M148.84,85.3c-1.78,0-2.89-1.38-2.89-3.61v-2h1.62v2.88c0,1.31.48,2.1,1.27,2.1s1.27-.79,1.27-2.1V81.36c0-1.62-.64-2.22-1.79-3.31l-.6-.58c-.95-.9-1.77-1.68-1.77-3.26v-.93a2.85,2.85,0,1,1,5.67,0v2H150V72.86c0-1.21-.45-2-1.16-2s-1.16.78-1.16,2v.94c0,1.18.62,1.77,1.47,2.58l.4.38c1.25,1.18,2.28,2.29,2.28,3.93v1C151.83,84,150.71,85.3,148.84,85.3Zm-.48-14.7a2.49,2.49,0,0,0-2,2.68v.93c0,1.42.72,2.12,1.65,3l.6.57c1.14,1.08,1.9,1.8,1.9,3.58v1.16c0,1.24-.39,2.07-1.07,2.36,1.31-.24,2.05-1.38,2.05-3.19v-1c0-1.49-.94-2.5-2.17-3.66l-.39-.38a3.73,3.73,0,0,1-1.6-2.85v-.94C147.3,71.51,147.8,70.83,148.36,70.6Zm-2,9.41v1.68c0,1.76.7,2.9,1.91,3.18-.66-.3-1-1.13-1-2.35V80Zm4-5.05h.87V73.28a2.52,2.52,0,0,0-1.9-2.67c.54.24,1,.92,1,2.25Z"/><path class="cls-1" d="M157.14,85V70.85h-2.39v-.37h6.12v.37h-2.38V85Z"/><path class="cls-1" d="M158.67,85.2H157V71h-2.39v-.74h6.5V71h-2.39Zm-1.35-.37h1V70.66h-1Z"/><path class="cls-1" d="M166.86,79.92l-2.72-9.44h1.37l2,7.35.37,1.47L170,70.48h.52l-2.29,9.44V85h-1.35Z"/><path class="cls-1" d="M168.4,85.2h-1.72V80l-2.78-9.66h1.75l2.24,8.23,1.94-8.23h.9L168.39,80Zm-1.35-.37h1V79.92l2.23-9.26h-.14l-2.21,9.42-.56-2.21-2-7.21h-1l2.66,9.26Z"/><path class="cls-1" d="M179.05,84.6V85h-4.57V70.48h1.35V84.6Z"/><path class="cls-1" d="M179.24,85.2H174.3V70.29H176V84.41h3.22Zm-4.57-.37h4.2v0h-3.22V70.66h-1Z"/><path class="cls-1" d="M187.61,84.64V85h-4.67V70.48h4.36v.37h-3v6.58h2.28v.38h-2.28v6.83Z"/><path class="cls-1" d="M187.79,85.2h-5V70.29h4.73V71h-3v6.22h2.29V78h-2.29v6.46h3.32Zm-4.67-.37h1v-7.2h0v-7h-1Z"/><path class="cls-1" d="M115.06,113.19h-1.35V98.65h1.35Z"/><path class="cls-1" d="M115.25,113.37h-1.72V98.46h1.72ZM113.9,113h1V98.84h-1Z"/><path class="cls-1" d="M124.89,109.86c0,2.29-1.14,3.43-2.8,3.43s-2.7-1.14-2.7-3.43V108h1.24v2.69c0,1.56.63,2.29,1.46,2.29s1.45-.73,1.45-2.29v-1.16c0-1.74-.73-2.39-1.93-3.53l-.4-.37c-1-.94-1.82-1.68-1.82-3.24v-.94a2.66,2.66,0,1,1,5.29,0v1.87h-1.24V101c0-1.46-.63-2.18-1.35-2.18s-1.35.72-1.35,2.18V102c0,1.25.66,1.89,1.53,2.72l.4.38c1.18,1.12,2.22,2.2,2.22,3.8Z"/><path class="cls-1" d="M122.09,113.48c-1.78,0-2.89-1.39-2.89-3.62v-2h1.62v2.88c0,1.32.47,2.1,1.27,2.1s1.26-.78,1.26-2.1v-1.16c0-1.62-.63-2.22-1.78-3.31l-.6-.57c-1-.91-1.77-1.69-1.77-3.26v-.94a2.85,2.85,0,1,1,5.67,0v2.06h-1.62V101c0-1.21-.46-2-1.16-2s-1.17.79-1.17,2V102c0,1.18.62,1.77,1.48,2.59l.4.37c1.24,1.18,2.27,2.3,2.27,3.94v1C125.07,112.13,124,113.48,122.09,113.48Zm-.49-14.71a2.51,2.51,0,0,0-2,2.68v.94c0,1.41.73,2.11,1.65,3l.6.57c1.15,1.08,1.91,1.8,1.91,3.58v1.16c0,1.24-.4,2.08-1.08,2.36,1.31-.24,2-1.37,2-3.19v-1c0-1.5-.93-2.51-2.16-3.67l-.39-.37a3.75,3.75,0,0,1-1.6-2.86V101C120.55,99.68,121.05,99,121.6,98.77Zm-2,9.41v1.68c0,1.76.71,2.9,1.92,3.18-.66-.3-1-1.13-1-2.35v-2.51Zm4.05-5h.88v-1.69a2.53,2.53,0,0,0-1.91-2.67c.55.25,1,.92,1,2.26Z"/><path class="cls-1" d="M134.43,109.86c0,2.29-1.14,3.43-2.8,3.43s-2.7-1.14-2.7-3.43V108h1.24v2.69c0,1.56.63,2.29,1.46,2.29s1.45-.73,1.45-2.29v-1.16c0-1.74-.73-2.39-1.93-3.53l-.4-.37c-1-.94-1.82-1.68-1.82-3.24v-.94a2.66,2.66,0,1,1,5.29,0v1.87H133V101c0-1.46-.63-2.18-1.35-2.18s-1.35.72-1.35,2.18V102c0,1.25.66,1.89,1.53,2.72l.4.38c1.18,1.12,2.22,2.2,2.22,3.8Z"/><path class="cls-1" d="M131.63,113.48c-1.78,0-2.89-1.39-2.89-3.62v-2h1.62v2.88c0,1.32.47,2.1,1.27,2.1s1.27-.78,1.27-2.1v-1.16c0-1.62-.64-2.22-1.79-3.31l-.6-.57c-.95-.91-1.77-1.69-1.77-3.26v-.94a2.85,2.85,0,1,1,5.67,0v2.06h-1.62V101c0-1.21-.46-2-1.16-2s-1.17.79-1.17,2V102c0,1.18.62,1.77,1.48,2.59l.4.37c1.24,1.18,2.28,2.3,2.28,3.94v1C134.62,112.13,133.5,113.48,131.63,113.48Zm-.49-14.71a2.51,2.51,0,0,0-2,2.68v.94c0,1.41.73,2.11,1.66,3l.59.57c1.15,1.08,1.91,1.8,1.91,3.58v1.16c0,1.24-.4,2.08-1.08,2.36,1.32-.24,2.05-1.37,2.05-3.19v-1c0-1.5-.93-2.51-2.16-3.67l-.39-.37a3.75,3.75,0,0,1-1.6-2.86V101C130.09,99.68,130.59,99,131.14,98.77Zm-2,9.41v1.68c0,1.76.71,2.9,1.92,3.18-.66-.3-1-1.13-1-2.35v-2.51Zm4-5H134v-1.69a2.53,2.53,0,0,0-1.91-2.67c.55.25,1,.92,1,2.26Z"/><path class="cls-1" d="M140,110.67c0,1.4.62,2.31,1.58,2.31s1.76-.73,1.76-2.16V98.65h.52v11.86c0,2.18-1.14,2.8-2.4,2.8-.9,0-2.81-.21-2.81-3.63v-11H140Z"/><path class="cls-1" d="M141.48,113.5c-2,0-3-1.29-3-3.82V98.46h1.72v12.21c0,1.29.54,2.12,1.39,2.12s1.58-.61,1.58-2V98.46h.89v12.05C144.07,113,142.66,113.5,141.48,113.5Zm-2.62-14.66v10.84c0,3.09,1.58,3.41,2.38,3.44-.85-.2-1.4-1.13-1.4-2.45V98.84Zm4.69,0v12a2.24,2.24,0,0,1-1.06,2.12c.8-.34,1.21-1.15,1.21-2.43V98.84Z"/><path class="cls-1" d="M153.17,112.81v.38H148.5V98.65h4.36V99h-3v6.59h2.28V106h-2.28v6.83Z"/><path class="cls-1" d="M153.35,113.37h-5V98.46H153v.75h-3v6.21h2.29v.75H150v6.46h3.32Zm-4.67-.37h1v-7.2h0v-7h-1Z"/></g></g></svg>