<svg xmlns="http://www.w3.org/2000/svg" viewBox="0 0 499.66 142.62"><title>last_image</title><g id="レイヤー_2" data-name="レイヤー 2"><g id="レイヤー_1-2" data-name="レイヤー 1"><path d="M129.93,48.81v14h-3.14V29h5.8q6.53,0,6.52,6.52v6.76q0,6.51-6.52,6.52Zm6-14.25c0-3.48-1.21-4.68-2.9-4.68h-3.14v18h3.14c1.69,0,2.9-1.21,2.9-4.59Z"/><path d="M159.37,61.85v1H148.75V29h3.14V61.85Z"/><path d="M177,55.09h-7.78L168,62.81h-1.21l6-33.8h3.14l5.84,33.8h-3.38Zm-7.58-1h7.39l-2.9-17.39-.68-5Z"/><path d="M192.59,51l-6.33-22h3.19l4.68,17.09.87,3.43L199.83,29H201l-5.31,22V62.81h-3.14Z"/><path d="M237,62.81V29.88h-5.56V29h14.25v.87h-5.55V62.81Z"/><path d="M250.22,49.77h11.11v1H250.22Z"/><path d="M282.6,55.09c0,5.31-2.65,8-6.52,8-3.62,0-6.28-2.65-6.28-8V50.74h2.9V57c0,3.62,1.45,5.31,3.38,5.31s3.38-1.69,3.38-5.31V54.31c0-4.05-1.69-5.55-4.49-8.21l-.92-.87c-2.27-2.17-4.25-3.91-4.25-7.53V35.53c0-4.11,2.66-6.76,6.28-6.76,3.38,0,6,2.65,6,6.76v4.34h-2.9V34.56c0-3.38-1.45-5.07-3.14-5.07s-3.14,1.69-3.14,5.07v2.17c0,2.9,1.55,4.4,3.58,6.33l.91.87c2.76,2.61,5.17,5.12,5.17,8.84Z"/><path d="M305.65,29v33.8h-3.14V46.63h-7.25V62.81h-3.13V29h3.13V45.67h7.25V29Z"/><path d="M319.15,62.81H316V29h3.13Z"/><path d="M337.39,47.7l6.13,15.11H340l-5.6-15h-1.74v15h-3.14V29h6c4.34,0,6.27,1.93,6.27,6.28v6.27C341.78,45.23,340.38,47.17,337.39,47.7Zm1.26-13.38c0-3.48-1-4.44-2.66-4.44h-3.38v17H336c1.69,0,2.66-1,2.66-4.35Z"/><path d="M355,62.81V29.88h-5.56V29h14.25v.87h-5.55V62.81Z"/><path d="M383.68,55.09c0,5.31-2.66,8-6.52,8-3.62,0-6.28-2.65-6.28-8V50.74h2.9V57c0,3.62,1.45,5.31,3.38,5.31s3.38-1.69,3.38-5.31V54.31c0-4.05-1.69-5.55-4.49-8.21l-.92-.87c-2.27-2.17-4.25-3.91-4.25-7.53V35.53c0-4.11,2.66-6.76,6.28-6.76,3.38,0,6,2.65,6,6.76v4.34h-2.9V34.56c0-3.38-1.45-5.07-3.14-5.07S374,31.18,374,34.56v2.17c0,2.9,1.55,4.4,3.57,6.33l.92.87c2.75,2.61,5.17,5.12,5.17,8.84Z"/><path d="M217.28,86.18c0-.71-.2-.9-.45-.9s-.6.33-.61,1.09v3.77h-.6V86.08c0-.63-.22-.8-.45-.8s-.6.35-.6,1.15v3.71H214v-5h.61v.6a.76.76,0,0,1,.75-.64.8.8,0,0,1,.82.7h0s.2-.7.8-.7.91.34.91,1.25v3.81h-.6Z"/><path d="M220.65,84.11a.34.34,0,1,1-.67,0v0a.34.34,0,0,1,.67,0Zm-.64,6v-5h.61v5Z"/><path d="M223.71,85.08a.78.78,0,0,1,.8.64V83.39h.6v6.75h-.6v-.6a.79.79,0,0,1-.8.65c-.6,0-1-.4-1-1.46v-2.2C222.7,85.47,223.11,85.08,223.71,85.08Zm-.41,4c0,.64.25.89.56.89s.65-.34.65-1.14V86.43c0-.8-.35-1.15-.65-1.15s-.56.25-.56.9Z"/><path d="M227.07,87.54h2.22v.19h-2.22Z"/><path d="M233,86.18c0-.71-.2-.9-.51-.9s-.64.35-.64,1.15v3.71h-.61v-5h.61v.6a.83.83,0,0,1,.8-.64c.6,0,.95.34.95,1.25v3.81H233Z"/><path d="M236.37,84.11a.34.34,0,1,1-.67,0v0a.34.34,0,0,1,.67,0Zm-.63,6v-5h.6v5Z"/><path d="M240.77,90.63c0,.55-.39,1-1.2,1s-1.2-.41-1.2-1v-.22a.91.91,0,0,1,.29-.68l.85-.94c-.72,0-1.09-.43-1.09-1.21v-1.3c0-.81.39-1.2,1.15-1.2a1,1,0,0,1,1,.54c.14-.14.13-.44.13-.79v-.08c0-.15.05-.3.25-.3s.25.15.25.3v.08c0,.59-.27.83-.57.9a2.23,2.23,0,0,1,.07.55v1.3c0,.73-.33,1.12-.94,1.2l-.65.72a1.9,1.9,0,0,1,.44,0c.81,0,1.2.41,1.2,1Zm-1.8.11a.61.61,0,1,0,1.2,0v-.43a.61.61,0,1,0-1.2,0Zm1.16-4.61c0-.71-.26-.91-.56-.91s-.55.2-.55.91v1.6c0,.7.25.91.55.91s.56-.21.56-.91Z"/><path d="M245.44,86.33v3.81h-.61v-4c0-.71-.19-.9-.5-.9s-.65.35-.65,1.15v3.71h-.6V83.39h.6v2.33a.84.84,0,0,1,.8-.64C245.08,85.08,245.44,85.42,245.44,86.33Z"/><path d="M249.11,85.12v.19h-.66v4.83h-.59V85.31h-.66v-.19h.66V83.63h.59v1.49Z"/><path d="M253.51,84.25v0l.42.84h.7v.19h-.7v4.83h-.6V85.31h-.56v-.19h.56v-.73c0-.75.35-1.1.7-1.1h.2a.3.3,0,0,1,.3.31.28.28,0,0,1-.3.29h-.35C253.61,83.89,253.51,84,253.51,84.25Z"/><path d="M257.12,86.58v3.56h-.61v-5h.61v1.1s.25-1.14.89-1.14c.31,0,.41.14.41.33s-.14.31-.35.31-.18,0-.31,0C257.36,85.67,257.19,86.19,257.12,86.58Z"/><path d="M260.11,86.53c0-1,.5-1.45,1.21-1.45s1.2.5,1.2,1.45v2.2c0,1-.5,1.46-1.2,1.46s-1.21-.5-1.21-1.46Zm.6,2.61c0,.65.25.9.61.9s.59-.25.59-.9v-3c0-.66-.25-.91-.59-.91s-.61.25-.61.91Z"/><path d="M267.94,86.18c0-.71-.2-.9-.45-.9s-.6.33-.61,1.09v3.77h-.6V86.08c0-.63-.22-.8-.45-.8s-.6.35-.6,1.15v3.71h-.61v-5h.61v.6a.76.76,0,0,1,.75-.64.8.8,0,0,1,.82.7h0s.2-.7.8-.7.91.34.91,1.25v3.81h-.6Z"/><path d="M274.55,85.12v.19h-.66v4.83h-.6V85.31h-.65v-.19h.65V83.63h.6v1.49Z"/><path d="M276.21,86.53c0-1,.5-1.45,1.2-1.45s1.21.5,1.21,1.45v2.2c0,1-.5,1.46-1.21,1.46s-1.2-.5-1.2-1.46Zm.59,2.61c0,.65.26.9.61.9s.6-.25.6-.9v-3c0-.66-.25-.91-.6-.91s-.61.25-.61.91Z"/><path d="M281.33,87.38h.23l1.2-2.26H283l-1.06,2.06,1.34,3h-.68l-1.11-2.6h-.14v2.6h-.61V83.39h.61Z"/><path d="M286.16,90.58c-.09.48-.3,1-.8,1h-.05a.3.3,0,0,1-.3-.3.29.29,0,0,1,.3-.3h.2a.46.46,0,0,0,.46-.41l.08-.44h-.34l-1-5h.6l.71,3.42.15.94.74-4.36h.25Z"/><path d="M288.92,86.53c0-1,.5-1.45,1.2-1.45s1.21.5,1.21,1.45v2.2c0,1-.5,1.46-1.21,1.46s-1.2-.5-1.2-1.46Zm.59,2.61c0,.65.25.9.61.9s.6-.25.6-.9v-3c0-.66-.25-.91-.6-.91s-.61.25-.61.91Z"/><path d="M296.49,90.63c0,.55-.21,1-.61,1h-.3a.3.3,0,0,1-.3-.31.27.27,0,0,1,.3-.29h.36c.19,0,.34,0,.34-.36l-.4-.76V85.12h.61Zm0-6.52a.34.34,0,1,1-.67,0v0a.34.34,0,0,1,.67,0Z"/><path d="M300.25,89.64a.81.81,0,0,1-.72.55c-.66,0-1-.35-1-1.15v-.66c0-.75.4-1.15,1-1.15a.69.69,0,0,1,.71.5V86c0-.61-.2-.81-.5-.81s-.5.2-.5.79v.32a.3.3,0,0,1-.31.3.29.29,0,0,1-.3-.3v-.07c0-.79.4-1.18,1.11-1.18s1.1.39,1.1,1.25v3.81h-.56Zm0-1.6s-.16-.64-.56-.64-.5.17-.5,1V89c0,.78.19,1,.5,1s.56-.62.56-.62Z"/><path d="M304.38,90.19a.78.78,0,0,1-.8-.65v1.95H303V85.12h.61v.6a.77.77,0,0,1,.8-.64c.59,0,1,.39,1,1.45v2.2C305.38,89.79,305,90.19,304.38,90.19Zm.4-4c0-.65-.25-.9-.56-.9s-.64.35-.64,1.15v2.41c0,.8.34,1.14.64,1.14s.56-.25.56-.89Z"/><path d="M309.11,89.64a.81.81,0,0,1-.72.55c-.66,0-1-.35-1-1.15v-.66c0-.75.4-1.15,1-1.15a.69.69,0,0,1,.71.5V86c0-.61-.2-.81-.5-.81s-.5.2-.5.79v.32a.3.3,0,0,1-.31.3.29.29,0,0,1-.3-.3v-.07c0-.79.4-1.18,1.11-1.18s1.1.39,1.1,1.25v3.81h-.56Zm0-1.6s-.16-.64-.56-.64-.5.17-.5,1V89c0,.78.19,1,.5,1s.56-.62.56-.62Z"/><path d="M313.58,86.18c0-.71-.19-.9-.5-.9s-.65.35-.65,1.15v3.71h-.6v-5h.6v.6a.84.84,0,0,1,.8-.64c.6,0,1,.34,1,1.25v3.81h-.61Z"/><path d="M208.72,76.47H207.5l15.85-56.71h1.22Z"/><path d="M376.64,127.27c4.25-7.67,5.95.28,5.68,2.55a.23.23,0,0,0,.17.23c8.41,1.6,16.53-.56,24.75-2.28l28.83-6,58.62-12.26c1.65-.35,4.51-1.19,1.14-.11-2.09.68-4.14,1.56-6.21,2.31q-7.12,2.6-14.31,5c-9,3-18.05,5.7-27.17,8.25-18.55,5.19-37.32,9.6-56.15,13.71-1.34.29-14.57,3.7-14.83,3.17-.15-.3,11.51-5.89,12.6-6.4q8-3.76,16.32-7c2.33-.91,4.69-1.72,7-2.61,4-1.54.92-.25,2-.88a15.47,15.47,0,0,1-7.44,1.65.24.24,0,0,0,0,.48,18,18,0,0,0,9-2.5c.23-.13.08-.53-.18-.44a274.78,274.78,0,0,0-41.27,18.09c-.24.13-.07.49.19.44,42-8.83,83.95-18.63,124.07-34.16a.24.24,0,0,0-.13-.46l-94.18,19.71a112.08,112.08,0,0,1-13.1,2.38,22.59,22.59,0,0,1-5.69.08c-6.92-1.36-2.39-.6-3.58-2.83s-1.62-5.15-4.75-5.19c-2.13,0-5,2.87-3.88,5.13.7,1.38,2.15,1.51,2.86.23.15-.27-.26-.51-.41-.24Z"/><path d="M449.71,108.54a15.75,15.75,0,0,0,12.87-1.05c.31-.17,0-.64-.27-.47a15.23,15.23,0,0,1-12.45,1c-.34-.12-.48.41-.15.52Z"/><path d="M0,.35A269.82,269.82,0,0,0,38.32,51.16C45,58.12,52,65.07,59.66,70.93c6.54,5,14.31,9.65,22.83,7.94a.24.24,0,0,0-.06-.47,3.87,3.87,0,0,0-3.06,1.42.23.23,0,0,0,.11.39c3,.53,4.72-.8,6.4-3.21.16-.21-.2-.5-.37-.28L76.61,88a.24.24,0,0,0,.23.4c2.74-.38,4.11-2.1,5.41-4.42a.24.24,0,0,0-.41-.24c-.61,1.1-5,6.08-4,3.63a16.84,16.84,0,0,1,2.39-3.24l2.23-2.81c1.46-1.85,4.06-3-.25-2.64A26.91,26.91,0,0,1,65.5,74.39C56,68.66,48,60.37,40.28,52.5A269.35,269.35,0,0,1,.45.11.24.24,0,0,0,0,.35Z"/><path d="M10.51,31.42C26.75,46.81,43,62.62,61.75,75A105.19,105.19,0,0,0,86.08,87.44c4.18,1.4,2.41.44-.69-.43a80.7,80.7,0,0,1-7.69-2.58c-.39-.15-7.72-3.13-7.65-3.33s8.76,2.13,9.55,2.32c.3.07.43-.39.13-.46L68.27,80.17c-.25-.06-.43.31-.18.44a94.92,94.92,0,0,0,22.27,8.11.24.24,0,0,0,.13-.46C75.13,84,61.59,75.05,49.18,65.3,35.71,54.71,23.27,42.86,10.84,31.09c-.22-.21-.56.12-.33.33Z"/></g></g></svg>