<svg xmlns="http://www.w3.org/2000/svg" viewBox="0 0 216.02 74.75"><defs><style>.cls-1{fill:#fff;}</style></defs><title>midhight_image</title><g id="レイヤー_2" data-name="レイヤー 2"><g id="レイヤー_1-2" data-name="レイヤー 1"><path class="cls-1" d="M13.79,10.12c0-2.56-.73-3.26-1.64-3.26s-2.17,1.19-2.21,4V24.5H7.77V9.77C7.7,7.49,7,6.86,6.13,6.86S4,8.12,4,11V24.5H1.75V6.3H4V8.47A2.75,2.75,0,0,1,6.69,6.13c1.5,0,2.48.8,3,2.55h.11s.73-2.55,2.9-2.55S16,7.39,16,10.68V24.5H13.79Z"/><path class="cls-1" d="M25.38,2.63a1.23,1.23,0,0,1-2.45,0V2.45a1.23,1.23,0,0,1,2.45,0ZM23.07,24.5V6.3h2.21V24.5Z"/><path class="cls-1" d="M35.8,6.13a2.83,2.83,0,0,1,2.9,2.34V0h2.21V24.5H38.7V22.33a2.83,2.83,0,0,1-2.9,2.35c-2.17,0-3.64-1.44-3.64-5.29v-8C32.16,7.56,33.63,6.13,35.8,6.13ZM34.33,20.69c0,2.34.91,3.25,2,3.25s2.34-1.26,2.34-4.16V11c0-2.91-1.26-4.17-2.34-4.17s-2,.91-2,3.26Z"/><path class="cls-1" d="M47.38,15.05h8v.7h-8Z"/><path class="cls-1" d="M68.26,10.12c0-2.56-.7-3.26-1.82-3.26S64.09,8.12,64.09,11V24.5h-2.2V6.3h2.2V8.47A3,3,0,0,1,67,6.13c2.17,0,3.46,1.26,3.46,4.55V24.5h-2.2Z"/><path class="cls-1" d="M79.87,2.63a1.23,1.23,0,0,1-2.45,0V2.45a1.23,1.23,0,0,1,2.45,0ZM77.56,24.5V6.3h2.2V24.5Z"/><path class="cls-1" d="M95.2,26.29c0,2-1.43,3.46-4.37,3.46s-4.34-1.47-4.34-3.46v-.81A3.18,3.18,0,0,1,87.54,23l3.08-3.43c-2.59-.07-4-1.54-4-4.37V10.5c0-2.94,1.44-4.37,4.17-4.37,1.82,0,3.11.66,3.71,2,.52-.49.49-1.58.49-2.87V4.94c0-.53.17-1.09.91-1.09s.91.56.91,1.09v.28c0,2.17-1,3-2.1,3.29a6.82,6.82,0,0,1,.28,2v4.73c0,2.62-1.19,4.06-3.43,4.34l-2.35,2.62A7.35,7.35,0,0,1,90.83,22c2.94,0,4.37,1.47,4.37,3.46Zm-6.54.38a2.21,2.21,0,1,0,4.37,0V25.13a2.21,2.21,0,1,0-4.37,0Zm4.2-16.73c0-2.55-.91-3.29-2-3.29s-2,.74-2,3.29v5.81c0,2.56.91,3.29,2,3.29s2-.73,2-3.29Z"/><path class="cls-1" d="M111.56,10.68V24.5h-2.2V10.12c0-2.56-.7-3.26-1.82-3.26s-2.35,1.26-2.35,4.17V24.5H103V0h2.2V8.47a3,3,0,0,1,2.91-2.34C110.27,6.13,111.56,7.39,111.56,10.68Z"/><path class="cls-1" d="M124.27,6.3V7h-2.39V24.5h-2.17V7h-2.38V6.3h2.38V.88h2.17V6.3Z"/><path class="cls-1" d="M2.66,48.12v.1L4.2,51.3H6.76V52H4.2V69.5H2V52H0V51.3H2V48.64c0-2.73,1.26-4,2.52-4h.74a1.08,1.08,0,0,1,1.08,1.12,1,1,0,0,1-1.08,1H4C3.05,46.82,2.66,47.21,2.66,48.12Z"/><path class="cls-1" d="M15.17,56.59V69.5H13V51.3h2.21v4s.91-4.16,3.25-4.16c1.12,0,1.47.52,1.47,1.22a1.11,1.11,0,0,1-1.26,1.12c-.45,0-.66-.17-1.12-.17C16,53.3,15.45,55.19,15.17,56.59Z"/><path class="cls-1" d="M25.44,56.41c0-3.46,1.82-5.28,4.37-5.28s4.38,1.82,4.38,5.28v8c0,3.47-1.82,5.29-4.38,5.29s-4.37-1.82-4.37-5.29Zm2.17,9.45c0,2.38.91,3.29,2.2,3.29S32,68.24,32,65.86V54.94c0-2.38-.91-3.29-2.17-3.29s-2.2.91-2.2,3.29Z"/><path class="cls-1" d="M53.2,55.12c0-2.56-.73-3.26-1.64-3.26s-2.17,1.19-2.21,4V69.5H47.18V54.77c-.07-2.28-.8-2.91-1.64-2.91S43.37,53.12,43.37,56V69.5H41.16V51.3h2.21v2.17a2.75,2.75,0,0,1,2.73-2.34c1.5,0,2.48.8,3,2.55h.11s.73-2.55,2.9-2.55,3.29,1.26,3.29,4.55V69.5H53.2Z"/><path class="cls-1" d="M77.18,51.3V52H74.8V69.5H72.63V52H70.25V51.3h2.38V45.88H74.8V51.3Z"/><path class="cls-1" d="M82.58,56.41c0-3.46,1.82-5.28,4.37-5.28s4.38,1.82,4.38,5.28v8c0,3.47-1.82,5.29-4.38,5.29s-4.37-1.82-4.37-5.29Zm2.17,9.45c0,2.38.91,3.29,2.2,3.29s2.17-.91,2.17-3.29V54.94c0-2.38-.91-3.29-2.17-3.29s-2.2.91-2.2,3.29Z"/><path class="cls-1" d="M100.51,59.49h.84l4.37-8.19h.77l-3.85,7.46,4.9,10.74h-2.48l-4-9.45h-.52V69.5H98.3V45h2.21Z"/><path class="cls-1" d="M117.49,71.11c-.31,1.75-1.08,3.64-2.9,3.64h-.18a1.06,1.06,0,0,1-1.08-1.08,1,1,0,0,1,1.08-1.09h.74a1.63,1.63,0,0,0,1.64-1.47l.32-1.61h-1.26l-3.64-18.2h2.17l2.55,12.39.56,3.43,2.7-15.82h.91Z"/><path class="cls-1" d="M126.87,56.41c0-3.46,1.82-5.28,4.38-5.28s4.37,1.82,4.37,5.28v8c0,3.47-1.82,5.29-4.37,5.29s-4.38-1.82-4.38-5.29ZM129,65.86c0,2.38.91,3.29,2.21,3.29s2.17-.91,2.17-3.29V54.94c0-2.38-.91-3.29-2.17-3.29s-2.21.91-2.21,3.29Z"/><path class="cls-1" d="M154.34,71.29c0,2-.73,3.46-2.2,3.46h-1.09A1.09,1.09,0,0,1,150,73.63a1,1,0,0,1,1.08-1h1.3c.7,0,1.26,0,1.26-1.29l-1.47-2.77V51.3h2.2Zm.11-23.66a1.23,1.23,0,0,1-2.45,0v-.18a1.23,1.23,0,0,1,2.45,0Z"/><path class="cls-1" d="M167.35,67.68a2.89,2.89,0,0,1-2.59,2c-2.41,0-3.67-1.26-3.67-4.17V63.13c0-2.73,1.43-4.2,3.64-4.2a2.46,2.46,0,0,1,2.55,1.82V54.59c0-2.2-.73-2.94-1.82-2.94s-1.82.74-1.82,2.87v1.16a1.1,1.1,0,0,1-2.2,0v-.25c0-2.87,1.47-4.3,4-4.3s4,1.43,4,4.55V69.5h-2Zm-.07-5.81s-.56-2.31-2-2.31c-1.08,0-1.82.63-1.82,3.57v2.38c0,2.84.7,3.57,1.82,3.57,1.47,0,2-2.27,2-2.27Z"/><path class="cls-1" d="M181.68,69.68a2.82,2.82,0,0,1-2.9-2.35V74.4h-2.21V51.3h2.21v2.17a2.82,2.82,0,0,1,2.9-2.34c2.17,0,3.64,1.43,3.64,5.28v8C185.32,68.24,183.85,69.68,181.68,69.68Zm1.47-14.56c0-2.35-.91-3.26-2-3.26s-2.34,1.26-2.34,4.17v8.75c0,2.9,1.26,4.16,2.34,4.16s2-.91,2-3.25Z"/><path class="cls-1" d="M198.23,67.68a2.89,2.89,0,0,1-2.59,2c-2.42,0-3.68-1.26-3.68-4.17V63.13c0-2.73,1.44-4.2,3.64-4.2a2.48,2.48,0,0,1,2.56,1.82V54.59c0-2.2-.74-2.94-1.82-2.94s-1.82.74-1.82,2.87v1.16a1.11,1.11,0,0,1-2.21,0v-.25c0-2.87,1.47-4.3,4-4.3s4,1.43,4,4.55V69.5h-2Zm-.07-5.81s-.56-2.31-2-2.31c-1.09,0-1.82.63-1.82,3.57v2.38c0,2.84.7,3.57,1.82,3.57,1.47,0,2-2.27,2-2.27Z"/><path class="cls-1" d="M213.82,55.12c0-2.56-.7-3.26-1.82-3.26s-2.35,1.26-2.35,4.17V69.5h-2.2V51.3h2.2v2.17a3,3,0,0,1,2.91-2.34c2.17,0,3.46,1.26,3.46,4.55V69.5h-2.2Z"/></g></g></svg>