<svg xmlns="http://www.w3.org/2000/svg" viewBox="0 0 93.6 58.92"><defs><style>.cls-1{fill:#fff;}</style></defs><title>rayrog_image</title><g id="レイヤー_2" data-name="レイヤー 2"><g id="レイヤー_1-2" data-name="レイヤー 1"><path class="cls-1" d="M2.59.2A.56.56,0,0,1,3.26.07a5.89,5.89,0,0,0,5,1.29C13.72.14,18.77-.31,24.28.84a12.31,12.31,0,0,1,4,1.37,17.14,17.14,0,0,1,3.91,3.3c1.49,1.66.65,3.81-.34,5.35a12.08,12.08,0,0,1-2.7,3.23,29,29,0,0,1-6.82,3.45c-.16.07-.36.39-.31.45,1.24,1.65,3.33,2.26,4,4.28A69.58,69.58,0,0,1,37.93,33.5c1.26,1.43,2.91,2.58,3.29,4.66A5.21,5.21,0,0,1,40.5,41a.4.4,0,0,1-.49.18A5.12,5.12,0,0,1,37.62,39a24.84,24.84,0,0,0-2.93-4.34c-.29-.3-.73-.43-1-.75-4.2-4.78-7.79-9.52-12.69-13.58-1.17-1-2.38-2.11-3.94-2.35-3.16-.48-6.18-.93-9.33-1.15A3.09,3.09,0,0,1,5.08,15c-.28-1.1,1.38-1.69,2.46-1.84,4.35-.59,8.26,1,12.42,2.16,1.8.5,3.73-.76,5.56-1.54a7.32,7.32,0,0,0,4-3.52c.75-1.61,0-3.42-.76-4.85-1.52-2.72-5-3.22-7.82-3.16a36.23,36.23,0,0,0-6.53.48c-3.61.74-7.06.82-10.4,2.14a1.16,1.16,0,0,0-.53,1C3.26,9.46,2.88,13,2.63,16.61c-.09,1.28-.42,2.61-.46,3.89-.15,5,2.65,9.36,3.55,14.34.29,1.58,1.37,2.86,1,4.53a5.6,5.6,0,0,1-.8,2.31c-.57.78-1.41.17-1.56-.53-.53-2.6-2.34-4.36-3.12-6.73a10.69,10.69,0,0,1,0-4.4,3.32,3.32,0,0,0-.19-.89,8.12,8.12,0,0,1,0-1.56c-.23-2.65.22-5.28-.39-7.92C-.47,14.67,0,9.93.84,5,1,4,2.35,3.77,2.32,2.85c0-.68-.13-1.42-.2-2.12C2.11.57,2.4.38,2.59.2Z"/><path class="cls-1" d="M93.49,39a17.87,17.87,0,0,1-7.79,5.76c-.18.05-.64-.25-.6-.44,1-4.79,3.46-8.73,4-13.45.08-.67-.88-2.13-1.44-1.58-2.81,2.8-4.83,6.48-8.47,8.3a5.1,5.1,0,0,1-3-4.76,7.61,7.61,0,0,0,1.19-10,.33.33,0,0,0-.49.14c-.79,1.46-1.67,2.79-1.69,4.42,0,2.12.27,4.21-.28,6.34a3.54,3.54,0,0,1-1.26,1.53c-2.55,2.33-6.61,3-9.45.74-2.14-1.71-.7-4.52-1.43-6.61-.27-.78-1.38-1.07-1.43-2.18s.37-2.44.16-3.7c-.27-1.64-1.38-3.58-2.92-3.29-3.21.63-5.45,3.35-6.53,6.48s-.53,6.64-1.6,9.82c-.2.59-1.18.85-1.57,1.49-.5.84-.27,1.85-.41,2.79,1.4-.16,2-1.8,3.36-1.86,1.52-.07,3,.88,4.58.26a5.22,5.22,0,0,0,2.92-3.49c.23-.77,1-2,1.5-1.59,2,1.65,3,4.67,5.52,5.42A7.68,7.68,0,0,0,74,37c1.86-2,3.29,1.81,4.28,3.24,1.14-.71,2.56-.92,3.49-2S83,36,84.16,35.59c.7-.23,1.1.69,1.08,1.14-.19,4.65-2.39,8.9-4.68,13.05-.13.23-.55.29-.62.56a10.36,10.36,0,0,1-1,2.95,14.44,14.44,0,0,0-2.19,5,.61.61,0,0,0,.49.63c2.19.13,3-2.18,4.11-3.73a8.94,8.94,0,0,0,1.59-4c0-.14.33-.21.46-.38.24-.32.31-.74.58-1s.64-.42.82-.75a8.77,8.77,0,0,1,2.66-2.83c2-1.48,4.67-1.69,5.85-3.78C93.83,41.55,93.49,40.21,93.49,39ZM60.06,33.32c-1.91,1.87-3.91,6-7,3.37a2.79,2.79,0,0,1-1-2.07c.13-3.64.4-7.8,3.59-10.44,1.45-1.2,4.15-1.36,4.33.92,0,.41-.15,1-.15,1.4,0,1.32-.62,2.56-.24,3.64S61.06,32.35,60.06,33.32Z"/><path class="cls-1" d="M29.73,52.28a1.51,1.51,0,0,0,1-1.58c0-1.23-.76-1.93-2.11-1.93H26.13v7.41h2.48c1.51,0,2.32-.72,2.32-2.1A1.72,1.72,0,0,0,29.73,52.28ZM27.54,50h.68c.81,0,1.09.21,1.09.84s-.3.86-1,.86h-.72Zm.75,4.89h-.75V53h.7c.88,0,1.24.29,1.24,1S29.12,54.92,28.29,54.92Z"/><polyline class="cls-1" points="38.31 48.77 33.99 48.77 33.99 56.18 38.31 56.18 38.31 54.9 35.39 54.9 35.39 52.86 37.97 52.86 37.97 51.62 35.39 51.62 35.39 50.03 38.31 50.03 38.31 48.77"/><path class="cls-1" d="M44.72,48.77H43.11l-2,7.41h1.47L43,54.63h1.84l.36,1.55h1.48Zm-.8,1.79.63,2.83H43.28Z"/><polyline class="cls-1" points="55.74 48.77 55.74 56.18 54.41 56.18 54.41 52.07 53.3 56.18 52.16 56.18 51.03 52.08 51.03 56.18 49.69 56.18 49.69 48.77 51.42 48.77 52.73 53.74 54.02 48.77 55.74 48.77"/><path class="cls-1" d="M63.81,50.94v-.07a2.1,2.1,0,0,0-2.31-2.29,2.21,2.21,0,0,0-2.42,2.24c0,1,.5,1.59,1.71,2.06l.88.34c.55.21.82.53.82,1a1,1,0,0,1-1,.92c-.74,0-1.08-.42-1.1-1.33H58.92a1.41,1.41,0,0,0,0,.2,2.26,2.26,0,0,0,2.52,2.39,2.29,2.29,0,0,0,2.5-2.32c0-1-.5-1.66-1.77-2.14l-.85-.32c-.55-.21-.79-.48-.79-.91a.87.87,0,0,1,.95-.84,1,1,0,0,1,1,1v.07h1.34"/></g></g></svg>