<svg xmlns="http://www.w3.org/2000/svg" viewBox="0 0 989.24 182.9"><defs><style>.cls-1{fill:#fff;}</style></defs><title>top1_image</title><g id="レイヤー_2" data-name="レイヤー 2"><g id="レイヤー_1-2" data-name="レイヤー 1"><path class="cls-1" d="M308.5,74v35.66h-8V23.55h14.75q16.61,0,16.6,16.6V57.37q0,16.6-16.6,16.6ZM323.87,37.7c0-8.86-3.07-11.93-7.38-11.93h-8V71.51h8c4.31,0,7.38-3.07,7.38-11.68Z"/><path class="cls-1" d="M382.48,107.17v2.46H355.43V23.55h8v83.62Z"/><path class="cls-1" d="M426.7,90H406.9l-3.32,19.67h-3.07l15.24-86.08h8l14.88,86.08H430ZM407.39,87.5h18.82l-7.38-44.27-1.72-12.79Z"/><path class="cls-1" d="M465.28,79.51l-16.11-56h8.11l11.93,43.54,2.21,8.73,12.3-52.27h3.08l-13.53,56v30.12h-8Z"/><path class="cls-1" d="M578.41,109.63V25.77H564.26V23.55h36.28v2.22H586.4v83.86Z"/><path class="cls-1" d="M611,76.43h28.28v2.46H611Z"/><path class="cls-1" d="M692.6,90c0,13.52-6.77,20.29-16.61,20.29-9.22,0-16-6.77-16-20.29V78.89h7.38v16c0,9.22,3.69,13.52,8.6,13.52s8.61-4.3,8.61-13.52V88c0-10.33-4.3-14.14-11.43-20.9l-2.34-2.22c-5.78-5.53-10.82-10-10.82-19.18V40.15c0-10.45,6.76-17.21,16-17.21,8.61,0,15.38,6.76,15.38,17.21V51.22H684V37.7c0-8.61-3.69-12.92-8-12.92s-8,4.31-8,12.92v5.53c0,7.38,3.94,11.19,9.1,16.11l2.34,2.21c7,6.64,13.16,13,13.16,22.51Z"/><path class="cls-1" d="M750.32,23.55v86.08h-8V68.44H723.88v41.19h-8V23.55h8V66h18.44V23.55Z"/><path class="cls-1" d="M783.68,109.63h-8V23.55h8Z"/><path class="cls-1" d="M829.08,71.14l15.62,38.49h-9.1L821.33,71.51h-4.42v38.12h-8V23.55h15.37c11.07,0,16,4.92,16,16v16C840.27,64.87,836.7,69.79,829.08,71.14Zm3.2-34.06c0-8.85-2.46-11.31-6.77-11.31h-8.6V69.05h8.6c4.31,0,6.77-2.46,6.77-11.06Z"/><path class="cls-1" d="M873.09,109.63V25.77H859V23.55h36.28v2.22H881.08v83.86Z"/><path class="cls-1" d="M945.14,90c0,13.52-6.76,20.29-16.6,20.29-9.22,0-16-6.77-16-20.29V78.89h7.38v16c0,9.22,3.69,13.52,8.61,13.52s8.61-4.3,8.61-13.52V88c0-10.33-4.31-14.14-11.44-20.9l-2.34-2.22c-5.78-5.53-10.82-10-10.82-19.18V40.15c0-10.45,6.77-17.21,16-17.21,8.61,0,15.37,6.76,15.37,17.21V51.22h-7.38V37.7c0-8.61-3.69-12.92-8-12.92s-8,4.31-8,12.92v5.53c0,7.38,3.93,11.19,9.1,16.11L932,61.55c7,6.64,13.16,13,13.16,22.51Z"/><path class="cls-1" d="M529.59,169.13c0-1.8-.51-2.29-1.15-2.29s-1.52.84-1.55,2.78v9.6h-1.52V168.88c0-1.6-.57-2-1.16-2s-1.52.89-1.52,2.92v9.46h-1.54V166.45h1.54V168a1.94,1.94,0,0,1,1.92-1.64,2.05,2.05,0,0,1,2.08,1.79h.08s.51-1.79,2-1.79,2.3.88,2.3,3.19v9.7h-1.52Z"/><path class="cls-1" d="M537.81,163.87a.86.86,0,1,1-1.72,0v-.12a.86.86,0,1,1,1.72,0Zm-1.62,15.35V166.45h1.55v12.77Z"/><path class="cls-1" d="M545.2,166.33a2,2,0,0,1,2,1.64V162h1.55v17.19h-1.55v-1.53a2,2,0,0,1-2,1.65c-1.52,0-2.55-1-2.55-3.71V170C542.65,167.33,543.68,166.33,545.2,166.33Zm-1,10.21c0,1.65.64,2.28,1.42,2.28s1.65-.88,1.65-2.92v-6.14c0-2-.89-2.92-1.65-2.92s-1.42.64-1.42,2.29Z"/><path class="cls-1" d="M553.41,172.59h5.64v.49h-5.64Z"/><path class="cls-1" d="M568.13,169.13c0-1.8-.49-2.29-1.27-2.29s-1.65.89-1.65,2.92v9.46h-1.54V166.45h1.54V168a2.13,2.13,0,0,1,2-1.64c1.52,0,2.43.88,2.43,3.19v9.7h-1.55Z"/><path class="cls-1" d="M576.36,163.87a.86.86,0,1,1-1.72,0v-.12a.86.86,0,0,1,1.72,0Zm-1.62,15.35V166.45h1.55v12.77Z"/><path class="cls-1" d="M587.2,180.47c0,1.4-1,2.43-3.07,2.43s-3-1-3-2.43v-.57a2.23,2.23,0,0,1,.74-1.71l2.16-2.41c-1.82-.05-2.78-1.08-2.78-3.07V169.4c0-2.07,1-3.07,2.92-3.07a2.61,2.61,0,0,1,2.61,1.37c.36-.34.34-1.1.34-2v-.2c0-.37.12-.76.64-.76s.64.39.64.76v.2c0,1.52-.69,2.13-1.48,2.31a4.45,4.45,0,0,1,.2,1.4v3.31c0,1.84-.83,2.85-2.41,3L583,177.6a4.55,4.55,0,0,1,1.1-.13c2.07,0,3.07,1,3.07,2.43Zm-4.59.27a1.55,1.55,0,1,0,3.07,0v-1.08a1.55,1.55,0,1,0-3.07,0ZM585.56,169c0-1.79-.64-2.31-1.43-2.31s-1.4.52-1.4,2.31v4.08c0,1.79.64,2.31,1.4,2.31s1.43-.52,1.43-2.31Z"/><path class="cls-1" d="M598.75,169.52v9.7h-1.54V169.13c0-1.8-.49-2.29-1.28-2.29s-1.64.89-1.64,2.92v9.46h-1.55V162h1.55V168a2.12,2.12,0,0,1,2-1.64C597.85,166.33,598.75,167.21,598.75,169.52Z"/><path class="cls-1" d="M607.75,166.45v.47h-1.67v12.3h-1.53v-12.3h-1.67v-.47h1.67v-3.81h1.53v3.81Z"/><path class="cls-1" d="M618.94,164.22v.07l1.08,2.16h1.79v.47H620v12.3H618.5v-12.3h-1.43v-.47h1.43v-1.87c0-1.91.88-2.8,1.77-2.8h.51a.75.75,0,0,1,.76.79.7.7,0,0,1-.76.74h-.88C619.21,163.31,618.94,163.58,618.94,164.22Z"/><path class="cls-1" d="M627.79,170.16v9.06h-1.55V166.45h1.55v2.8s.64-2.92,2.28-2.92c.79,0,1,.36,1,.86s-.35.78-.89.78c-.32,0-.46-.12-.78-.12C628.41,167.85,628,169.17,627.79,170.16Z"/><path class="cls-1" d="M635.07,170c0-2.43,1.28-3.7,3.07-3.7s3.07,1.27,3.07,3.7v5.6c0,2.43-1.28,3.71-3.07,3.71s-3.07-1.28-3.07-3.71Zm1.52,6.63c0,1.67.64,2.31,1.55,2.31s1.52-.64,1.52-2.31V169c0-1.67-.64-2.31-1.52-2.31s-1.55.64-1.55,2.31Z"/><path class="cls-1" d="M654.63,169.13c0-1.8-.51-2.29-1.15-2.29s-1.52.84-1.55,2.78v9.6h-1.52V168.88c0-1.6-.56-2-1.15-2s-1.53.89-1.53,2.92v9.46h-1.54V166.45h1.54V168a2,2,0,0,1,1.92-1.64,2.06,2.06,0,0,1,2.09,1.79h.07s.52-1.79,2-1.79,2.31.88,2.31,3.19v9.7h-1.53Z"/><path class="cls-1" d="M671.45,166.45v.47h-1.67v12.3h-1.52v-12.3h-1.67v-.47h1.67v-3.81h1.52v3.81Z"/><path class="cls-1" d="M675.32,170c0-2.43,1.28-3.7,3.07-3.7s3.07,1.27,3.07,3.7v5.6c0,2.43-1.28,3.71-3.07,3.71s-3.07-1.28-3.07-3.71Zm1.52,6.63c0,1.67.64,2.31,1.55,2.31s1.52-.64,1.52-2.31V169c0-1.67-.64-2.31-1.52-2.31s-1.55.64-1.55,2.31Z"/><path class="cls-1" d="M688,172.19h.59l3.07-5.74h.54l-2.7,5.23,3.44,7.54h-1.74l-2.83-6.63H688v6.63h-1.54V162H688Z"/><path class="cls-1" d="M700,180.35c-.22,1.22-.76,2.55-2,2.55h-.13a.75.75,0,0,1-.76-.76.74.74,0,0,1,.76-.76h.52a1.14,1.14,0,0,0,1.15-1l.22-1.13h-.88l-2.55-12.77h1.52l1.79,8.69.39,2.41,1.89-11.1h.64Z"/><path class="cls-1" d="M706.63,170c0-2.43,1.28-3.7,3.07-3.7s3.07,1.27,3.07,3.7v5.6c0,2.43-1.27,3.71-3.07,3.71s-3.07-1.28-3.07-3.71Zm1.53,6.63c0,1.67.64,2.31,1.54,2.31s1.53-.64,1.53-2.31V169c0-1.67-.64-2.31-1.53-2.31s-1.54.64-1.54,2.31Z"/><path class="cls-1" d="M725.91,180.47c0,1.4-.52,2.43-1.55,2.43h-.76a.77.77,0,0,1-.76-.79.71.71,0,0,1,.76-.73h.91c.49,0,.88,0,.88-.91l-1-1.94V166.45h1.55Zm.07-16.6a.86.86,0,1,1-1.72,0v-.12a.86.86,0,1,1,1.72,0Z"/><path class="cls-1" d="M735.12,177.94a2,2,0,0,1-1.82,1.4c-1.69,0-2.58-.88-2.58-2.92v-1.67c0-1.92,1-2.95,2.56-2.95a1.73,1.73,0,0,1,1.79,1.28v-4.32c0-1.55-.52-2.07-1.28-2.07s-1.28.52-1.28,2v.81a.77.77,0,0,1-1.54,0v-.17c0-2,1-3,2.82-3s2.8,1,2.8,3.19v9.7h-1.42Zm0-4.08s-.4-1.62-1.43-1.62c-.76,0-1.27.45-1.27,2.51v1.67c0,2,.49,2.5,1.27,2.5,1,0,1.43-1.59,1.43-1.59Z"/><path class="cls-1" d="M745.25,179.34a2,2,0,0,1-2-1.65v5h-1.55v-16.2h1.55V168a2,2,0,0,1,2-1.64c1.53,0,2.56,1,2.56,3.7v5.6C747.81,178.33,746.78,179.34,745.25,179.34Zm1-10.21c0-1.65-.64-2.29-1.43-2.29s-1.64.89-1.64,2.92v6.14c0,2,.88,2.92,1.64,2.92s1.43-.63,1.43-2.28Z"/><path class="cls-1" d="M757,177.94a2,2,0,0,1-1.82,1.4c-1.7,0-2.58-.88-2.58-2.92v-1.67c0-1.92,1-2.95,2.55-2.95a1.74,1.74,0,0,1,1.8,1.28v-4.32c0-1.55-.52-2.07-1.28-2.07s-1.28.52-1.28,2v.81a.77.77,0,0,1-1.54,0v-.17c0-2,1-3,2.82-3s2.8,1,2.8,3.19v9.7H757Zm-.05-4.08s-.4-1.62-1.43-1.62c-.76,0-1.27.45-1.27,2.51v1.67c0,2,.49,2.5,1.27,2.5,1,0,1.43-1.59,1.43-1.59Z"/><path class="cls-1" d="M768,169.13c0-1.8-.5-2.29-1.28-2.29s-1.65.89-1.65,2.92v9.46H763.5V166.45H765V168a2.13,2.13,0,0,1,2-1.64c1.52,0,2.43.88,2.43,3.19v9.7H768Z"/><path class="cls-1" d="M504.37,144.4h-3.1L541.64,0h3.11Z"/><path class="cls-1" d="M.36,86.93Q128.13,94.43,256,99.59q127.38,5.13,254.85,7.91,72.2,1.57,144.41,2.39a.38.38,0,0,0,0-.75q-128-1.45-255.92-5.27-127.44-3.81-254.78-10Q72.44,90.42.36,86.18c-.48,0-.48.72,0,.75Z"/><path class="cls-1" d="M112.71,130l103.84.46,6,0c.92,0,6,0,3.15-.59-3.59-.79-8.7.42-12.38.6-8.32.41-16.64.83-24.95,1.19-16.68.73-33.38,1.21-50.08.91-2.41,0-23,.23-23.19-1.42-.13-1.08,8.28-5,9.21-5.45a63.85,63.85,0,0,1,10.89-4c14-3.77,28.8-2.66,42.95-.25,13.53,2.31,26.8,5.89,40.3,8.34,14.5,2.64,29.22,3.25,43.94,3,16.43-.29,32.81-1.62,49.22-2.43,17.07-.85,34.16-1.37,51.24-2.1q51.69-2.2,103.37-5,103.26-5.62,206.38-13.68T878.6,91q12.85-1.3,25.72-2.65a.38.38,0,0,0,0-.75l-22.12-.46L871.62,87c-3.71-.08-7.86-.74-11.53-.24-1.05.14-3.27.06-.88.52,1.79.35,4.1-.19,5.93-.27q5.45-.24,10.89-.42,11.37-.41,22.76-.6,45.06-.78,90.09,1.59c.48,0,.48-.73,0-.75a1309.87,1309.87,0,0,0-132.64-.15.38.38,0,0,0,0,.75l42.31.87c1.31,0,3.29.46,3.79-.42a29.12,29.12,0,0,1-4,.41L887.5,89.36q-11.37,1.17-22.75,2.31-42.56,4.26-85.14,8.11-86.16,7.78-172.47,13.88T434.43,124.15q-42.75,2.17-85.52,3.94c-27.57,1.13-55.16,3.12-82.74,3.86-15.38.41-30.84.05-46-2.61-12.45-2.18-24.69-5.4-37.11-7.76-24.16-4.59-49-5.18-69.71,10a.37.37,0,0,0,.18.69c38.33,2.76,76.72.05,115-1.73a.38.38,0,0,0,0-.75l-115.82-.51a.38.38,0,0,0,0,.75Z"/><path class="cls-1" d="M223.78,124.13q4.23,3.9.88,5.7a6,6,0,0,1-6,1.33,8.09,8.09,0,0,1-5-8.08.38.38,0,0,0-.37-.38c-11.46.93-22,5.27-32.42,9.79-.44.19-.06.84.38.65,4.89-2.12,9.79-4.24,14.84-6,2.24-.77,4.51-1.47,6.81-2.05,1.88-.47,6.94-2.27,8.61-1.53s2,4.38,3.45,6a7.53,7.53,0,0,0,6.35,2.53c3.12-.35,8.81-4.87,6.91-8.68a2.83,2.83,0,0,0-5.15.48c-.15.46.58.66.72.2Z"/></g></g></svg>