<svg xmlns="http://www.w3.org/2000/svg" viewBox="0 0 182 182"><defs><style>.cls-1{fill:#fff;}</style></defs><title>top2_image</title><g id="レイヤー_2" data-name="レイヤー 2"><g id="レイヤー_1-2" data-name="レイヤー 1"><circle cx="91" cy="91" r="91"/><path class="cls-1" d="M35.75,99.19V111h-2V99.19H29.94V97h9.64v2.18Z"/><path class="cls-1" d="M49.93,103.83A9.76,9.76,0,0,0,47.07,102l.84-1.91a8.33,8.33,0,0,1,2.93,2Zm4.44,3.41a22,22,0,0,1-5,4.14c-.06,0-.08.1-.11.21-.06.27-.09.35-.15.35s-.31-.37-.37-.52l-.78-1.84c3.71-2,6.32-4.5,8.79-9.18l1.16,1.84A22.38,22.38,0,0,1,54.37,107.24Zm-2.85-7.78a8.86,8.86,0,0,0-2.86-1.86l.84-1.91a8.47,8.47,0,0,1,2.86,1.86Z"/><path class="cls-1" d="M71.17,107.05l-1.34-.75c.25-.55.29-.67.71-1.55.28-.59.31-.65.59-1.28l-2.68.71,1.1,7.32L68,112l-1-7.4-2.7.73-.53-1.73,3-.74-.49-3.43,1.4-.22c.08,0,.38,0,.38.18,0,0,0,.07-.11.27a.49.49,0,0,0-.09.28l.4,2.53,3.44-.86c.25-.06.43-.36.5-.5l1.19,1.13C72.69,103.62,72.19,104.73,71.17,107.05Z"/><path class="cls-1" d="M80.54,102.47a19.14,19.14,0,0,0-1.32-3.7l1.57-.8a21.11,21.11,0,0,1,1.36,3.75Zm9.75-4.18a1.51,1.51,0,0,0-.26.18,5.89,5.89,0,0,0-.28,1.07c-1.43,7.24-5.1,10.08-6.82,11.42l-1.44-1.63A13,13,0,0,0,86.36,104a17.34,17.34,0,0,0,1.9-6.92L90,97.8s.32.13.32.3A.25.25,0,0,1,90.29,98.29Zm-6.36,3a18.47,18.47,0,0,0-1.18-3.76l1.55-.72a28.52,28.52,0,0,1,1.19,3.75Z"/><path class="cls-1" d="M101.83,110.1a2,2,0,0,1-1.68.75,7.56,7.56,0,0,1-1.1-.08l-.36-2.07a3.37,3.37,0,0,0,1,.15,1,1,0,0,0,1-.53c.67-1.08.78-3.49.78-4.41,0-1.48-.28-1.94-1.19-1.94a3.75,3.75,0,0,0-.8.1,30.3,30.3,0,0,1-2.79,8.87l-1.53-.9a23.66,23.66,0,0,0,2.66-7.47,11.13,11.13,0,0,0-2,1l-.55-2.3c1.12-.23,1.62-.36,2.83-.71A30.15,30.15,0,0,0,98.27,97l1.77.33c.19,0,.35.13.35.29s0,.09-.16.21-.18.15-.21.4c-.07.77-.1,1.11-.22,2a5.36,5.36,0,0,1,1.07-.13c2,0,2.17,2.28,2.17,4C103,106.76,102.52,109.24,101.83,110.1Zm2.74-4.33-.78-1.82c.53-.1.84-.19.84-.65s-.56-2.06-2.12-4.41l1.19-1.08c.68,1.06,2.68,4.14,2.68,6.18C106.38,105.44,105.11,105.67,104.57,105.77Zm1.28-6.13A8.66,8.66,0,0,0,104.69,98l.79-.77a11.6,11.6,0,0,1,1.14,1.63Zm1.5-1.14a7.28,7.28,0,0,0-1-1.64l.76-.73a8.25,8.25,0,0,1,1.15,1.61Z"/><path class="cls-1" d="M118.08,101.15a8.05,8.05,0,0,0-1.79,4.6,3.3,3.3,0,0,0,1,2.49,3.91,3.91,0,0,0,2.6,1l-.58,2.34a6,6,0,0,1-3.62-2.13,5.61,5.61,0,0,1-1.09-3.45,8.5,8.5,0,0,1,1-3.82,13.94,13.94,0,0,1,1.95-2.91c-2,.21-4.14.44-5.61.71l-.25-2.15a31.72,31.72,0,0,0,10.52-1.53V98.5C121.57,98.56,120,98.7,118.08,101.15Zm3.08,3.28A7.81,7.81,0,0,0,120,103l.6-.92a7.34,7.34,0,0,1,1.23,1.48Zm1.19-1.75a7.75,7.75,0,0,0-1.22-1.45l.62-.92a7.72,7.72,0,0,1,1.22,1.45Z"/><path class="cls-1" d="M131.31,96.68a.73.73,0,0,0-.35.46c-.25.77-.4,1.21-.87,2.36l.21.14s.07.11.07.19a.44.44,0,0,1-.16.3.54.54,0,0,0-.22.35v11.36h-1.68V103.1c-.16.27-.31.48-.49.73l-1.47-1.19a17,17,0,0,0,3-7l1.93.59a.22.22,0,0,1,.15.19A.31.31,0,0,1,131.31,96.68Zm4.19,3.57v1.93h3.35v2H135.5v1.92h3.82v2.12H135.5v3.64h-1.71V100.25h-.5a17.85,17.85,0,0,1-1.61,3l-1.56-1.08A15.25,15.25,0,0,0,133,95.55l1.76.69a.24.24,0,0,1,.14.19.26.26,0,0,1-.09.2,2,2,0,0,0-.28.19s-.37,1.19-.43,1.38h5.51v2Z"/><path class="cls-1" d="M149.35,111.36a2.55,2.55,0,0,1-2.79-2.62,2.41,2.41,0,0,1,2.17-2.55c1.53,0,2.49,1.57,2.9,2.24a3.78,3.78,0,0,0,1-2.55,2.35,2.35,0,0,0-2.39-2.51,3.21,3.21,0,0,0-1.67.48,18.83,18.83,0,0,0-3,3.43l-1.23-1.68a34.65,34.65,0,0,0,5.44-6.92,10.66,10.66,0,0,1-3.44.48L145.93,97c.35,0,1.19.11,1.65.11a13.11,13.11,0,0,0,4.46-1l.77,1.55a40.6,40.6,0,0,0-3.27,4.1,8.65,8.65,0,0,1,1.43-.12c2,0,3.26,2.13,3.26,4.24A5.12,5.12,0,0,1,149.35,111.36Zm-.56-3.48a.75.75,0,0,0-.74.8c0,.67.68.86,1.21.86a3.25,3.25,0,0,0,1-.17C150.07,108.93,149.63,107.88,148.79,107.88Z"/><path class="cls-1" d="M57.89,142.29a13.79,13.79,0,0,1-4.23-4.08v4.44H51.91v-4.52a14.68,14.68,0,0,1-4.32,4.24l-1.28-1.54a10.43,10.43,0,0,0,4.44-3.92H48.07v-6.33h3.84v-1H46.53v-1.83h5.38v-1.59l1.78.16c.18,0,.22.11.22.19a.35.35,0,0,1-.09.17c-.13.14-.16.17-.16.27v.8H59v1.83H53.66v1h3.89v6.33H54.69a13.76,13.76,0,0,0,4.36,3.73Zm-6-10.27H49.74v.88h2.17Zm0,2.41H49.74v.92h2.17ZM55.85,132H53.66v.88h2.19Zm0,2.41H53.66v.92h2.19Z"/><path class="cls-1" d="M62.65,129.64v-1.8h5.46v-1.69l2,.31c.09,0,.19.06.19.19a.2.2,0,0,1-.1.16c-.18.15-.26.23-.26.28v.75H75.3v1.8Zm4.58,8.57c-.19.06-.22.08-.25.13A20.77,20.77,0,0,1,64.45,142l-1.56-1.17a14.81,14.81,0,0,0,2.84-4.29l1.57,1.29a.27.27,0,0,1,.08.21A.21.21,0,0,1,67.23,138.21Zm2.58-2v4.52c0,.63-.12,1.42-.65,1.65a5.12,5.12,0,0,1-1.87.3l-.72-2.2a5.33,5.33,0,0,0,.94.11c.4,0,.53-.21.53-.55V136.2H64.36v-5.45h9.23v5.45Zm2-3.68H66.14v1.93H71.8ZM73.3,142a15.91,15.91,0,0,0-2.73-3.95l1.15-1.55a22,22,0,0,1,3,4Z"/><path class="cls-1" d="M89.46,141.22a27.6,27.6,0,0,0-3.59-4.79,15.45,15.45,0,0,1-5,4.92l-1.29-1.74a13.41,13.41,0,0,0,4.69-4.14,16.89,16.89,0,0,0,2.51-5.23H81.13V128h6.34a1.27,1.27,0,0,0,.77-.42l1.13,1.63a2.5,2.5,0,0,0-.79,1.15,26.23,26.23,0,0,1-1.71,4.29,34.3,34.3,0,0,1,3.9,4.74Z"/><path class="cls-1" d="M105.83,131.54a22.33,22.33,0,0,1-1.69,4.6c.36.4.72.8,1.23,1.46l-1.09,1.64c-.25-.3-.53-.69-1.15-1.4a15.76,15.76,0,0,1-4.66,4.68l-1.33-1.8a11.4,11.4,0,0,0,4.74-4.22,19.87,19.87,0,0,0-2.43-2l.9-1.44a12.87,12.87,0,0,1,2.5,1.82,12.31,12.31,0,0,0,1.33-3.54h-3.77a17.17,17.17,0,0,1-2.66,3.89l-1.37-1.32c2.07-1.84,3.49-5.12,4.12-7.52l1.62.62c.09,0,.29.15.29.28s-.13.2-.34.31c-.17.46-.45,1.21-.75,1.86h3.39c.18,0,.44-.27.66-.46l1.09,1.48A2.58,2.58,0,0,0,105.83,131.54Z"/><path class="cls-1" d="M121.81,128.47c-.22,0-.25.06-.45.35a22.46,22.46,0,0,1-2.43,3V142h-1.84v-8.43a25.61,25.61,0,0,1-3.71,2.72l-1.28-1.7a24.53,24.53,0,0,0,8.54-8.15l1.28,1.38a1,1,0,0,1,.25.46C122.17,128.43,122.11,128.45,121.81,128.47Z"/><path class="cls-1" d="M132.19,128.78a.28.28,0,0,0-.1.25c0,3.58,0,3.87-.08,4.71a10.38,10.38,0,0,1-3.18,7l-1.63-1.55c1.41-1.08,3.15-2.7,3.15-7.48,0-1.78-.1-3-.16-3.62l1.78.15c.26,0,.43.08.43.29S132.37,128.59,132.19,128.78Zm2.72,11.94-1.25-1.27V127.82l1.71.27c.13,0,.41.06.41.25s0,.13-.16.29-.18.21-.18.23v8.37a15.4,15.4,0,0,0,3.89-4.91l1,1.94A22.54,22.54,0,0,1,134.91,140.72Z"/><path class="cls-1" d="M78.21,38.33h-.88L76,31.05h.87l1,4.95L78,37.38l1.28-6.33h.37Z"/><path class="cls-1" d="M78.31,38.46H77.23l0-.11-1.4-7.43h1.12l0,.1,1,5,.1.69,1.17-5.75h.62l0,.15Zm-.88-.25h.68l1.41-7h-.11L78,38.09,77.68,36l-1-4.85h-.61Z"/><path class="cls-1" d="M82.07,33.09c0-1.39.72-2.11,1.75-2.11s1.75.72,1.75,2.11v3.2c0,1.38-.73,2.11-1.75,2.11s-1.75-.73-1.75-2.11Zm.86,3.78c0,1,.37,1.32.89,1.32s.86-.36.86-1.32V32.5c0-.95-.36-1.31-.86-1.31s-.89.36-.89,1.31Z"/><path class="cls-1" d="M83.82,38.53c-1.16,0-1.88-.86-1.88-2.24v-3.2c0-1.38.72-2.24,1.88-2.24s1.87.86,1.87,2.24v3.2C85.69,37.67,85,38.53,83.82,38.53Zm.39-7.39c.3.14.6.5.6,1.36v4.37c0,.87-.3,1.23-.6,1.36.78-.17,1.23-.87,1.23-1.94v-3.2C85.44,32,85,31.31,84.21,31.14Zm-.8,0c-.77.18-1.22.88-1.22,2v3.2c0,1.07.45,1.77,1.22,1.94-.31-.14-.6-.5-.6-1.36V32.5C82.81,31.64,83.1,31.29,83.41,31.14Zm.41.17c-.51,0-.76.4-.76,1.19v4.37c0,.79.25,1.2.76,1.2s.74-.41.74-1.2V32.5C84.56,31.71,84.31,31.31,83.82,31.31Z"/><path class="cls-1" d="M88.46,38.33V28.52h.86v9.81Z"/><path class="cls-1" d="M89.44,38.46h-1.1V28.4h1.1Zm-.85-.25h.6V28.65h-.6Z"/><path class="cls-1" d="M93,37.91a.49.49,0,1,1-1,0v-.07a.49.49,0,1,1,1,0Z"/><path class="cls-1" d="M92.55,38.53a.61.61,0,0,1-.62-.62v-.07a.62.62,0,0,1,1.24,0v.07A.61.61,0,0,1,92.55,38.53Zm0-1.06a.36.36,0,0,0-.37.37v.07a.37.37,0,0,0,.74,0v-.07A.36.36,0,0,0,92.55,37.47Z"/><path class="cls-1" d="M95.9,35.46a.4.4,0,0,1,.42.42v.84c0,1.06.35,1.47.91,1.47s.91-.41.91-1.47V33.57c0-1-.35-1.45-.91-1.45a1.84,1.84,0,0,0-1.15.54l-.18-.21,2.68-3h-3v-.93h3.43v.85l-2.52,2.75a1.35,1.35,0,0,1,.77-.23c1,0,1.75.7,1.75,2.38V36c0,1.68-.7,2.38-1.82,2.38s-1.75-.7-1.75-2.38v-.14A.4.4,0,0,1,95.9,35.46Z"/><path class="cls-1" d="M97.23,38.53c-.7,0-1.87-.33-1.87-2.51v-.14a.53.53,0,0,1,.54-.55.54.54,0,0,1,.55.55v.84c0,1.21.44,1.35.78,1.35s.79-.14.79-1.35V33.57c0-1.32-.59-1.32-.79-1.32a1.78,1.78,0,0,0-1.06.49l-.09.1-.34-.39.07-.09,2.49-2.79H95.5V28.4h3.68v1l0,0L97,31.79a1.29,1.29,0,0,1,.29,0c.7,0,1.88.33,1.88,2.51V36C99.18,38.09,98.12,38.53,97.23,38.53ZM97.42,32c.56.09.85.61.85,1.55v3.15c0,.83-.22,1.34-.64,1.52.86-.17,1.3-.91,1.3-2.22V34.27C98.93,32.83,98.42,32.07,97.42,32ZM95.9,35.58a.28.28,0,0,0-.29.3V36c0,1.29.4,2,1.2,2.21-.41-.19-.61-.69-.61-1.51v-.84A.28.28,0,0,0,95.9,35.58Zm.17-3.13,0,0a2,2,0,0,1,.47-.31L96.44,32l2.49-2.72v-.67H95.75v.67h3.11Z"/><path class="cls-1" d="M50.31,57.33V47.78H48.7v-.26h4.13v.26H51.22v9.55Z"/><path class="cls-1" d="M51.34,57.46H50.18V47.9H48.57v-.5H53v.5H51.34Zm-.91-.25h.66V47.65h-.66Z"/><path class="cls-1" d="M62.21,55.09c0,1.54-.77,2.31-1.89,2.31s-1.82-.77-1.82-2.31V53.83h.84v1.82c0,1.05.42,1.54,1,1.54s1-.49,1-1.54v-.78c0-1.18-.49-1.62-1.3-2.39l-.27-.25a2.82,2.82,0,0,1-1.23-2.18v-.63a1.79,1.79,0,1,1,3.57,0v1.26h-.84V49.14c0-1-.42-1.47-.91-1.47s-.91.49-.91,1.47v.63a2.41,2.41,0,0,0,1,1.83l.27.25a3.62,3.62,0,0,1,1.5,2.57Z"/><path class="cls-1" d="M60.32,57.53c-1.2,0-2-.94-2-2.44V53.7h1.09v1.95c0,.9.31,1.42.86,1.42s.85-.52.85-1.42v-.78c0-1.1-.42-1.5-1.2-2.24l-.41-.38a2.84,2.84,0,0,1-1.19-2.2v-.63a1.92,1.92,0,1,1,3.82,0V50.8H61.1V49.14c0-.82-.31-1.35-.78-1.35s-.79.53-.79,1.35v.63c0,.79.42,1.19,1,1.74l.27.25a3.72,3.72,0,0,1,1.53,2.66v.67C62.33,56.61,61.58,57.53,60.32,57.53ZM60,47.61a1.69,1.69,0,0,0-1.37,1.81v.63a2.59,2.59,0,0,0,1.11,2l.41.39a2.93,2.93,0,0,1,1.28,2.42v.78c0,.83-.26,1.4-.72,1.59.88-.16,1.38-.93,1.38-2.15v-.67a3.48,3.48,0,0,0-1.46-2.48l-.26-.25a2.52,2.52,0,0,1-1.08-1.92v-.63C59.28,48.22,59.62,47.77,60,47.61ZM58.62,54v1.14c0,1.18.48,2,1.29,2.14-.44-.2-.7-.76-.7-1.58V54Zm2.73-3.4h.59V49.42a1.71,1.71,0,0,0-1.28-1.81c.37.17.69.63.69,1.53Z"/><path class="cls-1" d="M69.06,47.52v9.81h-.91V52.64h-2.1v4.69h-.91V47.52h.91v4.84h2.1V47.52Z"/><path class="cls-1" d="M69.18,57.46H68v-4.7H66.17v4.7H65V47.4h1.16v4.83H68V47.4h1.16Zm-.91-.25h.66V47.65h-.66v4.83H65.92V47.65h-.66v9.56h.66v-4.7h2.35Z"/><path class="cls-1" d="M73.15,57.33h-.91V47.52h.91Z"/><path class="cls-1" d="M73.28,57.46H72.12V47.4h1.16Zm-.91-.25H73V47.65h-.66Z"/><path class="cls-1" d="M78.62,53l1.78,4.38h-1L77.73,53h-.5v4.34h-.91V47.52h1.75c1.26,0,1.82.56,1.82,1.83v1.82C79.89,52.23,79.49,52.79,78.62,53ZM79,49.07c0-1-.28-1.29-.77-1.29h-1v4.93h1c.49,0,.77-.28.77-1.26Z"/><path class="cls-1" d="M80.58,57.46H79.27l-1.62-4.35h-.29v4.35H76.19V47.4h1.88a1.7,1.7,0,0,1,2,2v1.82c0,1-.41,1.66-1.23,1.87Zm-1.13-.25h.76l-1.77-4.36.16,0c.81-.14,1.17-.65,1.17-1.65V49.35c0-1.1-.43-1.61-1.42-1.69.53.06.76.49.76,1.41v2.38c0,1-.27,1.38-.9,1.38h-1.1V47.65h-.67v9.56h.67V52.86h.71Zm-2.09-4.63h.85c.31,0,.65-.08.65-1.13V49.07c0-1.08-.32-1.17-.65-1.17h-.85Z"/><path class="cls-1" d="M83.89,57.33V47.78H82.28v-.26h4.13v.26H84.8v9.55Z"/><path class="cls-1" d="M84.93,57.46H83.77V47.9H82.16v-.5h4.38v.5H84.93ZM84,57.21h.66V47.65H84Z"/><path class="cls-1" d="M92.35,55.09c0,1.54-.77,2.31-1.89,2.31s-1.82-.77-1.82-2.31V53.83h.84v1.82c0,1.05.42,1.54,1,1.54s1-.49,1-1.54v-.78c0-1.18-.49-1.62-1.3-2.39l-.27-.25a2.82,2.82,0,0,1-1.23-2.18v-.63a1.79,1.79,0,1,1,3.57,0v1.26h-.84V49.14c0-1-.42-1.47-.91-1.47s-.91.49-.91,1.47v.63a2.39,2.39,0,0,0,1,1.83l.26.25a3.62,3.62,0,0,1,1.5,2.57Z"/><path class="cls-1" d="M90.46,57.53c-1.2,0-1.94-.94-1.94-2.44V53.7h1.09v1.95c0,.9.31,1.42.85,1.42s.86-.53.86-1.42v-.78c0-1.1-.43-1.5-1.21-2.24l-.4-.38a2.84,2.84,0,0,1-1.19-2.2v-.63a1.92,1.92,0,1,1,3.82,0V50.8H91.25V49.14c0-.82-.31-1.35-.79-1.35s-.78.53-.78,1.35v.63a2.32,2.32,0,0,0,1,1.74l.27.25a3.73,3.73,0,0,1,1.54,2.66v.67C92.48,56.61,91.72,57.53,90.46,57.53Zm-.33-9.92a1.68,1.68,0,0,0-1.36,1.81v.63a2.59,2.59,0,0,0,1.11,2l.41.39a2.93,2.93,0,0,1,1.28,2.42v.78c0,.83-.27,1.4-.73,1.59.89-.16,1.39-.93,1.39-2.15v-.67a3.52,3.52,0,0,0-1.46-2.48l-.27-.25a2.51,2.51,0,0,1-1.07-1.92v-.63C89.43,48.22,89.76,47.77,90.13,47.61ZM88.77,54v1.14c0,1.18.47,2,1.29,2.14-.45-.2-.7-.76-.7-1.58V54Zm2.73-3.4h.59V49.42a1.71,1.71,0,0,0-1.29-1.81c.37.17.7.63.7,1.53Z"/><path class="cls-1" d="M102.29,55.09c0,1.54-.77,2.31-1.89,2.31s-1.82-.77-1.82-2.31V53.83h.84v1.82c0,1.05.42,1.54,1,1.54s1-.49,1-1.54v-.78c0-1.18-.49-1.62-1.3-2.39l-.27-.25a2.82,2.82,0,0,1-1.23-2.18v-.63a1.79,1.79,0,1,1,3.57,0v1.26h-.84V49.14c0-1-.42-1.47-.91-1.47s-.91.49-.91,1.47v.63a2.39,2.39,0,0,0,1,1.83l.26.25a3.62,3.62,0,0,1,1.5,2.57Z"/><path class="cls-1" d="M100.4,57.53c-1.2,0-1.94-.94-1.94-2.44V53.7h1.09v1.95c0,.9.31,1.42.85,1.42s.86-.52.86-1.42v-.78c0-1.1-.43-1.5-1.21-2.24l-.4-.38a2.83,2.83,0,0,1-1.19-2.2v-.63a1.92,1.92,0,1,1,3.82,0V50.8h-1.09V49.14c0-.82-.31-1.35-.79-1.35s-.78.53-.78,1.35v.63a2.26,2.26,0,0,0,1,1.74l.27.25a3.73,3.73,0,0,1,1.54,2.66v.67C102.42,56.61,101.66,57.53,100.4,57.53Zm-.32-9.92a1.68,1.68,0,0,0-1.37,1.81v.63a2.62,2.62,0,0,0,1.11,2l.4.38a2.91,2.91,0,0,1,1.29,2.42v.78c0,.83-.27,1.4-.73,1.59.89-.16,1.39-.93,1.39-2.15v-.67a3.52,3.52,0,0,0-1.46-2.48l-.27-.25a2.51,2.51,0,0,1-1.07-1.92v-.63C99.37,48.22,99.7,47.77,100.08,47.61ZM98.71,54v1.14c0,1.18.47,2,1.29,2.14-.45-.2-.7-.76-.7-1.58V54Zm2.73-3.4H102V49.42a1.72,1.72,0,0,0-1.29-1.81c.37.17.7.63.7,1.53Z"/><path class="cls-1" d="M106,57.33V47.78h-1.61v-.26h4.13v.26h-1.61v9.55Z"/><path class="cls-1" d="M107.06,57.46H105.9V47.9h-1.61v-.5h4.38v.5h-1.61Zm-.91-.25h.66V47.65h-.66Z"/><path class="cls-1" d="M112.61,53.9l-1.83-6.38h.92l1.36,5,.25,1,1.4-6h.35l-1.54,6.38v3.43h-.91Z"/><path class="cls-1" d="M113.65,57.46h-1.16V53.92l-1.88-6.52h1.19l0,.09L113.31,53l1.3-5.55h.61l0,.15-1.54,6.38Zm-.91-.25h.66V53.9l1.5-6.25h-.09L113.32,54l-.38-1.49-1.33-4.86h-.67l1.8,6.25Z"/><path class="cls-1" d="M120.86,57.05v.28h-3.08V47.52h.91v9.53Z"/><path class="cls-1" d="M121,57.46h-3.33V47.4h1.16v9.52H121Zm-3.08-.25h2.83v0h-2.17V47.65h-.66Z"/><path class="cls-1" d="M126.66,57.08v.25h-3.15V47.52h2.94v.26h-2v4.44H126v.25h-1.54v4.61Z"/><path class="cls-1" d="M126.79,57.46h-3.4V47.4h3.19v.5h-2v4.19h1.54v.5h-1.54V57h2.24Zm-3.15-.25h.66V52.34h0V47.65h-.66Z"/><path class="cls-1" d="M77.53,76.33h-.91V66.52h.91Z"/><path class="cls-1" d="M77.65,76.46H76.49V66.4h1.16Zm-.91-.25h.66V66.65h-.66Z"/><path class="cls-1" d="M84.19,74.09c0,1.54-.77,2.31-1.89,2.31s-1.82-.77-1.82-2.31V72.83h.84v1.82c0,1,.42,1.54,1,1.54s1-.49,1-1.54v-.78c0-1.18-.49-1.62-1.3-2.39l-.27-.25a2.82,2.82,0,0,1-1.23-2.18v-.63a1.79,1.79,0,1,1,3.57,0v1.26h-.84V68.14c0-1-.42-1.47-.91-1.47s-.91.49-.91,1.47v.63a2.39,2.39,0,0,0,1,1.83l.26.25a3.62,3.62,0,0,1,1.5,2.57Z"/><path class="cls-1" d="M82.3,76.53c-1.2,0-2-.94-2-2.44V72.7h1.09v2c0,.89.32,1.42.86,1.42s.86-.53.86-1.42v-.78c0-1.1-.43-1.5-1.21-2.24l-.41-.38a2.87,2.87,0,0,1-1.19-2.2v-.63a1.92,1.92,0,1,1,3.83,0V69.8H83.09V68.14c0-.82-.31-1.35-.79-1.35s-.79.53-.79,1.35v.63a2.33,2.33,0,0,0,1,1.74l.27.25a3.73,3.73,0,0,1,1.54,2.66v.67C84.32,75.61,83.56,76.53,82.3,76.53ZM82,66.61a1.69,1.69,0,0,0-1.37,1.81v.63a2.6,2.6,0,0,0,1.12,2l.4.39a2.91,2.91,0,0,1,1.29,2.42v.78c0,.83-.27,1.4-.73,1.59.89-.16,1.39-.93,1.39-2.15v-.67a3.52,3.52,0,0,0-1.46-2.48l-.27-.25a2.52,2.52,0,0,1-1.08-1.92v-.63C81.26,67.22,81.6,66.77,82,66.61ZM80.6,73v1.14c0,1.18.48,2,1.29,2.14-.44-.2-.7-.76-.7-1.58V73Zm2.74-3.4h.59V68.42a1.72,1.72,0,0,0-1.29-1.81c.37.17.7.63.7,1.53Z"/><path class="cls-1" d="M90.66,74.09c0,1.54-.77,2.31-1.89,2.31s-1.83-.77-1.83-2.31V72.83h.85v1.82c0,1,.42,1.54,1,1.54s1-.49,1-1.54v-.78c0-1.18-.49-1.62-1.31-2.39l-.26-.25a2.83,2.83,0,0,1-1.24-2.18v-.63a1.8,1.8,0,1,1,3.58,0v1.26h-.84V68.14c0-1-.42-1.47-.91-1.47s-.92.49-.92,1.47v.63a2.39,2.39,0,0,0,1,1.83l.27.25a3.62,3.62,0,0,1,1.5,2.57Z"/><path class="cls-1" d="M88.77,76.53c-1.2,0-2-.94-2-2.44V72.7h1.09v2c0,.9.31,1.42.86,1.42s.85-.53.85-1.42v-.78c0-1.1-.43-1.5-1.2-2.24L88,71.25a2.84,2.84,0,0,1-1.19-2.2v-.63a1.92,1.92,0,1,1,3.82,0V69.8H89.55V68.14c0-.82-.31-1.35-.78-1.35s-.79.53-.79,1.35v.63a2.3,2.3,0,0,0,1,1.74l.26.25a3.73,3.73,0,0,1,1.54,2.66v.67C90.78,75.61,90,76.53,88.77,76.53Zm-.33-9.92a1.69,1.69,0,0,0-1.37,1.81v.63a2.59,2.59,0,0,0,1.11,2l.41.39a2.93,2.93,0,0,1,1.28,2.42v.78c0,.83-.26,1.4-.72,1.59.88-.16,1.38-.93,1.38-2.15v-.67a3.48,3.48,0,0,0-1.46-2.48l-.26-.25a2.52,2.52,0,0,1-1.08-1.92v-.63C87.73,67.22,88.07,66.77,88.44,66.61ZM87.07,73v1.14c0,1.18.47,2,1.29,2.14-.44-.2-.7-.76-.7-1.58V73Zm2.73-3.4h.59V68.42a1.71,1.71,0,0,0-1.28-1.81c.37.17.69.63.69,1.53Z"/><path class="cls-1" d="M94.46,74.63c0,.94.42,1.56,1.06,1.56s1.19-.49,1.19-1.46V66.52h.36v8c0,1.47-.78,1.89-1.63,1.89-.6,0-1.89-.14-1.89-2.45V66.52h.91Z"/><path class="cls-1" d="M95.44,76.54c-1.34,0-2-.87-2-2.58V66.4h1.16v8.23c0,.87.37,1.44.94,1.44s1.07-.42,1.07-1.34V66.4h.6v8.12C97.19,76.19,96.24,76.54,95.44,76.54Zm-1.77-9.89V74c0,2.09,1.07,2.3,1.61,2.33-.58-.14-1-.77-1-1.66v-8Zm3.17,0v8.08a1.51,1.51,0,0,1-.71,1.43c.54-.23.81-.77.81-1.64V66.65Z"/><path class="cls-1" d="M103.36,76.08v.25h-3.15V66.52h2.94v.26h-2v4.44h1.54v.25h-1.54v4.61Z"/><path class="cls-1" d="M103.49,76.46h-3.41V66.4h3.2v.5h-2v4.19h1.54v.5h-1.54V76h2.24Zm-3.16-.25H101V71.34h0V66.65h-.67Z"/></g></g></svg>