<svg xmlns="http://www.w3.org/2000/svg" viewBox="0 0 485.93 319.12"><defs><style>.cls-1{fill:red;}</style></defs><title>top3_image</title><g id="レイヤー_2" data-name="レイヤー 2"><g id="レイヤー_1-2" data-name="レイヤー 1"><path class="cls-1" d="M7.06,93.09,0,47.36l9.53-1.47q10.65-1.64,15.22-1.33A22.1,22.1,0,0,1,33,46.71a19.78,19.78,0,0,1,7.79,6.74A25.24,25.24,0,0,1,44.74,63.9,25.23,25.23,0,0,1,44.15,75a19.79,19.79,0,0,1-5.39,8.78,21.79,21.79,0,0,1-7,4.46,65,65,0,0,1-13,3l-2.09.32ZM17.81,80.94l2.1-.32Q27.25,79.48,30.16,76t1.89-10.09q-1-6.57-4.86-9.1T16,55.35l-2.1.32Z"/><path class="cls-1" d="M54.15,85.82,47.09,40.09l13-2a55.3,55.3,0,0,1,10.77-.94,13.83,13.83,0,0,1,5.57,1.56A12.37,12.37,0,0,1,81,42.89a15.49,15.49,0,0,1,2.32,6.2,13.77,13.77,0,0,1-1.28,9,12.87,12.87,0,0,1-6.92,5.59L90.42,80.23,76.33,82.4,63.07,66.12,65.83,84Zm8-25.91,2.31-.36c2.69-.41,4.58-1.18,5.68-2.28a5.1,5.1,0,0,0,1.19-4.6q-.53-3.44-2.49-4.62t-6-.56l-2.5.39Z"/><path class="cls-1" d="M95.8,79.4,88.74,33.67l28-4.33,1.55,10-15.87,2.45,1.23,7.93,15-2.31,1.51,9.81-15,2.31,1.19,7.72,15.87-2.45,1.58,10.24Z"/><path class="cls-1" d="M133.74,58.41A23.11,23.11,0,0,0,140,62.29a10.92,10.92,0,0,0,5.63.73,6.32,6.32,0,0,0,3.9-2,4.31,4.31,0,0,0,1.08-3.65,4.5,4.5,0,0,0-1.93-3.3q-1.57-1-6.69-1.58-7-.78-10.22-3.25c-2.16-1.65-3.49-4.16-4-7.54a14.18,14.18,0,0,1,2.74-11.37,16.11,16.11,0,0,1,10.74-5.9,25.07,25.07,0,0,1,7.33-.09,23.31,23.31,0,0,1,6.89,2.09L152.89,36A16.87,16.87,0,0,0,148.11,34a11.83,11.83,0,0,0-4.56-.24,5.94,5.94,0,0,0-3.49,1.65,3.39,3.39,0,0,0-1,3,3.46,3.46,0,0,0,1.66,2.56,13.52,13.52,0,0,0,5.07,1.23l.58.07q8,.88,10.73,3a11.26,11.26,0,0,1,3.09,3.66A15.43,15.43,0,0,1,161.86,54a15.35,15.35,0,0,1-3,12.43q-4.09,5.16-12.06,6.39a22.81,22.81,0,0,1-9-.28,24.89,24.89,0,0,1-8.33-3.93Z"/><path class="cls-1" d="M171.87,52.53a22.8,22.8,0,0,0,6.21,3.87,10.81,10.81,0,0,0,5.63.73,6.29,6.29,0,0,0,3.9-2,4.31,4.31,0,0,0,1.08-3.65,4.5,4.5,0,0,0-1.93-3.3q-1.57-1-6.69-1.57-7-.78-10.22-3.25a11.22,11.22,0,0,1-4-7.54,14.2,14.2,0,0,1,2.74-11.38,16.1,16.1,0,0,1,10.74-5.89,25.08,25.08,0,0,1,7.33-.09,23.28,23.28,0,0,1,6.89,2.08L191,30.13a16.32,16.32,0,0,0-4.78-2.06,11.45,11.45,0,0,0-4.56-.24,5.93,5.93,0,0,0-3.49,1.64,3.4,3.4,0,0,0-1,3A3.44,3.44,0,0,0,178.87,35a13.52,13.52,0,0,0,5.07,1.23l.59.07q7.93.88,10.72,3A11.19,11.19,0,0,1,198.34,43a15.45,15.45,0,0,1,1.65,5.1,15.37,15.37,0,0,1-3,12.44q-4.1,5.16-12.06,6.38a22.62,22.62,0,0,1-9-.28,24.89,24.89,0,0,1-8.33-3.93Z"/><path class="cls-1" d="M279.2,51.09l-11.65,1.8-5.74-19.36c-.4-1.36-.81-2.89-1.23-4.57s-.85-3.53-1.29-5.53a55.76,55.76,0,0,1-.6,7.51c-.09.64-.16,1.1-.19,1.41l-2.91,22.39L247.28,56l-9.53-20.47c-.12-.28-.32-.71-.58-1.29a51.19,51.19,0,0,1-2.83-6.95c.14,1.75.26,3.49.36,5.21s.15,3.44.19,5.17l.36,20.18-11.59,1.79V12.84L236,10.94l10.55,22.52c.06.16.19.42.37.77A29.78,29.78,0,0,1,249,39.45a22.24,22.24,0,0,1,.06-2.78c.07-1,.2-2.26.38-3.72l3.34-24.6,12.37-1.9Z"/><path class="cls-1" d="M285.92,50.06,278.86,4.32l28-4.32,1.55,10-15.87,2.45,1.22,7.93,15-2.31,1.51,9.81-15,2.31,1.19,7.71,15.87-2.44,1.58,10.24Z"/><path class="cls-1" d="M233.5,84.8l12.4.61-4.84,23c-.39,1.76-.65,3.13-.81,4.12s-.25,1.87-.29,2.63a6.22,6.22,0,0,0,1.44,4.71,6.38,6.38,0,0,0,4.59,1.89q7.14.36,11.08-18.5l.09-.44,3.49-16.69,12.4.61-5.44,26v0q-1.78,8.46-4,11.89a17,17,0,0,1-7.65,6.52,24.59,24.59,0,0,1-11.24,1.82q-8.28-.42-13.07-4.63a12.77,12.77,0,0,1-4.46-10.77,49.55,49.55,0,0,1,.64-5.22c.36-2.18.88-4.88,1.54-8.09Z"/><path class="cls-1" d="M272.13,133.05l9.65-45.85,12.69.63a53.68,53.68,0,0,1,7.9.82,15.16,15.16,0,0,1,4.54,1.67,12.13,12.13,0,0,1,5,5.18,15,15,0,0,1,1.38,7.57,17.5,17.5,0,0,1-2.27,7.93,14,14,0,0,1-5.38,5.43,13.33,13.33,0,0,1-4.57,1.43,47.69,47.69,0,0,1-8.14.08l-1.89-.09-3.28-.16-3.39,16Zm17.7-25.1L291,108c4,.19,6.72-.09,8.18-.86A4.61,4.61,0,0,0,301.5,103a4.13,4.13,0,0,0-1.62-3.83,10.75,10.75,0,0,0-5.64-1.47L292,97.55Z"/><path class="cls-1" d="M176,144.16l-6,48.62-10.29-1.28.63-5.14a15.3,15.3,0,0,1-5.39,4.19,11.41,11.41,0,0,1-6.12.85,13.37,13.37,0,0,1-10.06-5.92q-3.39-5.1-2.42-12.91.93-7.56,5.44-11.73a12.86,12.86,0,0,1,10.85-3.39A13.22,13.22,0,0,1,159,159.7a12.88,12.88,0,0,1,3.9,5.38c0-.76,0-1.63,0-2.59s.15-2,.29-3.1l2.05-16.56Zm-14,31.58a8.4,8.4,0,0,0-1.24-6.08,7,7,0,0,0-5.09-2.79,6.87,6.87,0,0,0-5.59,1.48A9.83,9.83,0,0,0,148.68,180a7.84,7.84,0,0,0,10.7,1.3A8.38,8.38,0,0,0,162.06,175.74Z"/><path class="cls-1" d="M177.72,193.73l3.91-31.68,10.54,1.3-.92,7.46a13.5,13.5,0,0,1,5.21-5.56,11.43,11.43,0,0,1,7.09-1.2c.44.06.88.13,1.33.22s.89.19,1.35.31l-2.33,10a12,12,0,0,0-1.91-.75,13.44,13.44,0,0,0-1.86-.39,8,8,0,0,0-6.6,1.72c-1.68,1.48-2.71,3.74-3.09,6.8l-1.62,13.11Z"/><path class="cls-1" d="M241.2,187.75l-24.09-3a8.2,8.2,0,0,0,1.19,5.9,6.83,6.83,0,0,0,5,2.64,8.9,8.9,0,0,0,4.4-.43,6.25,6.25,0,0,0,3-2.51l8,4.43a11.07,11.07,0,0,1-6,4.95,20.39,20.39,0,0,1-9.62.82q-8.28-1-12.72-6.24a15.77,15.77,0,0,1-3.5-12.74,16.6,16.6,0,0,1,6.52-11.68,17.49,17.49,0,0,1,13.26-3.33q7.88,1,11.81,6.49t2.87,14.15ZM231,180.09a6.79,6.79,0,0,0-1.52-4.59,6.05,6.05,0,0,0-4.08-2.16,6.23,6.23,0,0,0-4.53,1,7.78,7.78,0,0,0-2.7,4.2Z"/><path class="cls-1" d="M243.94,199.24l3.37-8.25a18.44,18.44,0,0,0,5,3.94,16.23,16.23,0,0,0,5.77,1.88,6.23,6.23,0,0,0,3.28-.28,2.17,2.17,0,0,0,1.34-1.83c.18-1.4-1.17-2.62-4-3.68-.94-.35-1.68-.64-2.25-.88-3.23-1.34-5.51-2.84-6.84-4.53a7.85,7.85,0,0,1-1.56-6.1,9,9,0,0,1,4.38-6.94q3.81-2.32,9.73-1.6a28.43,28.43,0,0,1,6.11,1.47,34.52,34.52,0,0,1,6.18,3l-3.27,7.4a19.23,19.23,0,0,0-4.24-2.85,14.18,14.18,0,0,0-4.48-1.35,5.59,5.59,0,0,0-3,.24,1.91,1.91,0,0,0-1.18,1.6c-.14,1.13,1.2,2.27,4,3.4l1.46.6q5.6,2.37,7.59,4.9a8.19,8.19,0,0,1,1.53,6.35,9.67,9.67,0,0,1-4.71,7.4q-4.1,2.53-10.25,1.77a30.14,30.14,0,0,1-7.63-1.91A25.48,25.48,0,0,1,243.94,199.24Z"/><path class="cls-1" d="M275.67,203.16l3.37-8.25a18.44,18.44,0,0,0,5,3.94,16.23,16.23,0,0,0,5.77,1.88,6.24,6.24,0,0,0,3.28-.28,2.17,2.17,0,0,0,1.34-1.82c.18-1.41-1.17-2.63-4-3.69-.94-.35-1.69-.64-2.25-.88q-4.85-2-6.85-4.52a7.88,7.88,0,0,1-1.55-6.11,9,9,0,0,1,4.38-6.94q3.79-2.33,9.73-1.6a28.43,28.43,0,0,1,6.11,1.47,34.85,34.85,0,0,1,6.18,3l-3.27,7.4a19.23,19.23,0,0,0-4.24-2.85,14.18,14.18,0,0,0-4.48-1.35,5.59,5.59,0,0,0-3,.24,1.93,1.93,0,0,0-1.19,1.6c-.14,1.13,1.21,2.27,4,3.4l1.46.6q5.6,2.37,7.59,4.9a8.23,8.23,0,0,1,1.53,6.35,9.67,9.67,0,0,1-4.71,7.4q-4.09,2.53-10.25,1.77a30.14,30.14,0,0,1-7.63-1.91A25.48,25.48,0,0,1,275.67,203.16Z"/><path class="cls-1" d="M366.93,217.11l2.13-17.29c.34-2.73.23-4.67-.32-5.8a3.89,3.89,0,0,0-3.33-2c-2.09-.26-3.64.29-4.63,1.64s-1.77,4.27-2.33,8.77l-1.66,13.43L346,214.52l2.14-17.28c.34-2.78.24-4.73-.3-5.83a3.88,3.88,0,0,0-3.32-2c-2.09-.26-3.65.27-4.66,1.6s-1.8,4.26-2.36,8.8l-1.66,13.43L325,211.93l3.91-31.69,11,1.36-.68,5.52a14.08,14.08,0,0,1,5.17-4.38,11.68,11.68,0,0,1,6.3-.83,12.16,12.16,0,0,1,6.14,2.28,8.33,8.33,0,0,1,3,4.9,12.54,12.54,0,0,1,5.07-3.93,12.88,12.88,0,0,1,6.46-.69,12.26,12.26,0,0,1,4.88,1.57,9.37,9.37,0,0,1,4.45,7,30.52,30.52,0,0,1-.32,6.59l-.08.69L378,218.48Z"/><path class="cls-1" d="M420.11,209.86l-24.09-3a8.15,8.15,0,0,0,1.18,5.9,6.85,6.85,0,0,0,5,2.64,9,9,0,0,0,4.4-.43,6.3,6.3,0,0,0,3-2.51l8,4.42a11,11,0,0,1-6,5,20.52,20.52,0,0,1-9.62.82q-8.28-1-12.72-6.24a15.82,15.82,0,0,1-3.5-12.74A16.6,16.6,0,0,1,392.23,192a17.49,17.49,0,0,1,13.26-3.33q7.88,1,11.81,6.49t2.87,14.15Zm-10.23-7.67a6.88,6.88,0,0,0-1.52-4.58,6.1,6.1,0,0,0-4.08-2.16,6.23,6.23,0,0,0-4.53,1,7.77,7.77,0,0,0-2.7,4.21Z"/><path class="cls-1" d="M349.28,251.28l-.35,49.59-10.5,1.58,0-4.19a16.85,16.85,0,0,1-4.54,4.79,13.81,13.81,0,0,1-5.81,2.26,11.31,11.31,0,0,1-9.54-2.77,16,16,0,0,1-5.08-10.09,20.11,20.11,0,0,1,2.66-14.27,15.23,15.23,0,0,1,11-7.15,12.61,12.61,0,0,1,6,.46,15.65,15.65,0,0,1,5.49,3.45l-.14-.91c-.09-.62-.16-1.28-.2-2s-.06-1.39-.06-2.11l.13-17Zm-24.52,38a6.4,6.4,0,0,0,7.73,5.71,7,7,0,0,0,5.14-3.41,9.63,9.63,0,0,0,1.25-6.78,6.45,6.45,0,0,0-2.57-4.49,6.68,6.68,0,0,0-5.08-1.11A7.2,7.2,0,0,0,326,282.6,9.43,9.43,0,0,0,324.76,289.32Z"/><path class="cls-1" d="M353.52,285.58a17.92,17.92,0,0,1,3.27-14,18.62,18.62,0,0,1,12.67-7.18q7.56-1.12,12.74,2.47t6.25,10.76a17.58,17.58,0,0,1-3.36,13.86q-4.53,5.92-12.92,7.18-7.4,1.13-12.5-2.47T353.52,285.58Zm17.08-12.06a7,7,0,0,0-5.11,3.56,10.31,10.31,0,0,0-1.26,7,6.44,6.44,0,0,0,2.35,4.38,5.89,5.89,0,0,0,4.67,1,7.17,7.17,0,0,0,5.3-3.5,10.15,10.15,0,0,0,1.22-7.1,6.38,6.38,0,0,0-2.37-4.39A6.12,6.12,0,0,0,370.6,273.52Z"/><path class="cls-1" d="M402.12,292.89l-13.9-30.2,10.88-1.63,5.27,13.88c.3.74.59,1.54.87,2.39s.55,1.83.84,2.91a39.83,39.83,0,0,1,1.3-5.5l.13-.4,4.63-15.24,7.45-1.12,5.49,13.85c.42,1.09.76,2.05,1.05,2.89s.52,1.65.72,2.4a37.19,37.19,0,0,1,1.3-5.5l.1-.4L433,256l11.22-1.68-12,34.08-8.39,1.27-5.65-14.08c-.28-.73-.56-1.52-.83-2.39s-.55-1.75-.81-2.67c-.11.68-.27,1.44-.49,2.29s-.54,2-1,3.42l-4.67,15.44Z"/><path class="cls-1" d="M448.3,286l.26-32.32,10.69-1.6,0,5a19,19,0,0,1,4.48-5.31,11.57,11.57,0,0,1,5.38-2.24q4.9-.74,8,1.5a9.94,9.94,0,0,1,3.81,7,40.86,40.86,0,0,1,.25,5.5c0,.23,0,.42,0,.57L481,281l-11.16,1.67L470,265.6c0-.5,0-1,0-1.44a11.56,11.56,0,0,0-.1-1.2,4.2,4.2,0,0,0-1.57-3,4.5,4.5,0,0,0-3.38-.58,5.52,5.52,0,0,0-4.23,2.78c-.88,1.56-1.34,3.9-1.36,7l0,15.06Z"/><path class="cls-1" d="M378.69,128.78l1.76,21.47-7,.57-.28-3.49a10,10,0,0,1-3.08,3.55,8.87,8.87,0,0,1-4.29,1.4,8.44,8.44,0,0,1-7.12-2.58,12.82,12.82,0,0,1-3.26-8.19,12.27,12.27,0,0,1,2-8.57,9.13,9.13,0,0,1,7-3.69,8.14,8.14,0,0,1,4.26.69,8.6,8.6,0,0,1,3.27,2.94l-.28-3.53ZM372.91,140a5.7,5.7,0,0,0-1.66-3.87,5.31,5.31,0,0,0-7.31.59,6.61,6.61,0,0,0,.66,7.94,5.33,5.33,0,0,0,7.29-.6A5.57,5.57,0,0,0,372.91,140Z"/><path class="cls-1" d="M385.08,149.87l-1.76-21.47,6.93-.57.36,4.36a10.43,10.43,0,0,1,3.17-4.11,8.92,8.92,0,0,1,4.65-1.6,9.71,9.71,0,0,1,3.76.36,6.64,6.64,0,0,1,2.81,1.71,6.75,6.75,0,0,1,1.42,2.54,21.34,21.34,0,0,1,.74,4.61l1,12.29-7.59.62-.94-11.51a6.48,6.48,0,0,0-1.15-3.67,3.1,3.1,0,0,0-2.78-1,3.78,3.78,0,0,0-3.31,2c-.62,1.23-.83,3.14-.62,5.75l.74,9Z"/><path class="cls-1" d="M432.86,112.79l2.69,33-7,.57-.29-3.49a10.28,10.28,0,0,1-3,3.51,7.73,7.73,0,0,1-3.93,1.4,9,9,0,0,1-7.46-2.54c-2-1.93-3.08-4.67-3.37-8.2a12.48,12.48,0,0,1,2-8.5,8.71,8.71,0,0,1,6.71-3.72,8.86,8.86,0,0,1,4.51.61,8.66,8.66,0,0,1,3.32,3,16,16,0,0,1-.33-1.72c-.1-.64-.18-1.34-.24-2.09l-.91-11.23ZM428,135.58a5.67,5.67,0,0,0-1.66-3.85,5.26,5.26,0,0,0-7.24.6,5.64,5.64,0,0,0-1,4.06,5.72,5.72,0,0,0,1.63,3.86,5.29,5.29,0,0,0,7.25-.61A5.64,5.64,0,0,0,428,135.58Z"/><rect class="cls-1" x="5.24" y="77.85" width="315.53" height="5.01" transform="translate(-10.33 25.73) rotate(-8.75)"/><rect class="cls-1" x="272.6" y="71.15" width="5.01" height="291.52" transform="translate(26.06 463.31) rotate(-82.95)"/><rect class="cls-1" x="263.53" y="98.1" width="5.01" height="88.46" transform="translate(110.6 400.92) rotate(-87.14)"/><rect class="cls-1" x="312.86" y="301.2" width="173.67" height="5.01" transform="translate(-40.78 62.94) rotate(-8.57)"/></g></g></svg>