<svg xmlns="http://www.w3.org/2000/svg" viewBox="0 0 50.56 77.69"><defs><style>.cls-1{fill:#fff;}</style></defs><title>top4_image</title><g id="レイヤー_2" data-name="レイヤー 2"><g id="レイヤー_1-2" data-name="レイヤー 1"><path class="cls-1" d="M49.46,18.6C49.46,31.73,41,33.05,41,33.05s9.52,1.42,9.52,17.83v8.21c0,13.13-5.48,18.6-14.23,18.6s-14.22-5.47-14.22-18.6V50.88c0-16.41,9.52-17.83,9.52-17.83S23.2,31.73,23.2,18.6V15.32C23.2,4.92,28.12,0,36.33,0S49.46,4.92,49.46,15.32Zm-6,26.81c0-7.88-2.51-11.49-7.11-11.49s-7.11,3.61-7.11,11.49V64.56c0,8.31,2.73,11.49,7.11,11.49s7.11-3.18,7.11-11.49ZM42.35,13.13c0-8.86-2.19-11.49-6-11.49s-6,2.63-6,11.49v7.66c0,8.75,2.19,11.71,6,11.71,4.05,0,6-3,6-11.71Z"/><path class="cls-1" d="M3,6.46C1,6.46,0,5.48,0,4.05S1,1.73,3,1.73h1.6V2.8H2.23c-1.34,0-2,.54-2,1.25s.62,1.25,2,1.25h1c1.5,0,2.05-.62,3-1.66l.32-.34C7.39,2.46,8,1.73,9.37,1.73h.81a2.29,2.29,0,1,1,0,4.56H8.57V5.21h2c1.25,0,1.88-.53,1.88-1.16s-.63-1.16-1.88-1.16h-.8A3.05,3.05,0,0,0,7.39,4.21l-.32.34c-1,1-1.89,1.91-3.27,1.91Z"/><path class="cls-1" d="M.09,9.06H12.26V7h.33v5.26h-.33v-2H.09Z"/><path class="cls-1" d="M4.46,15.29,12.59,13v1.18L6.27,15.86,5,16.18,12.59,18v.45l-8.13-2H.09V15.29Z"/><path class="cls-1" d="M.45,23.64H.09V19.72h12.5v1.16H.45Z"/><path class="cls-1" d="M.41,28.87H.09v-4h12.5v3.75h-.33V26H6.61v2H6.28V26H.41Z"/><path class="cls-1" d="M3,34.25c-2,0-2.95-1-2.95-2.41s1-2.32,3-2.32h1.6v1.07H2.23c-1.34,0-2,.54-2,1.25s.62,1.25,2,1.25h1c1.5,0,2.05-.62,3-1.66l.32-.34c.8-.84,1.44-1.57,2.78-1.57h.81a2.28,2.28,0,1,1,0,4.55H8.57V33h2c1.25,0,1.88-.53,1.88-1.16s-.63-1.16-1.88-1.16h-.8A3.05,3.05,0,0,0,7.39,32l-.32.34c-1,1-1.89,1.91-3.27,1.91Z"/></g></g></svg>