<svg xmlns="http://www.w3.org/2000/svg" viewBox="0 0 56.77 35.73"><defs><style>.cls-1{fill:#9e9e9e;}</style></defs><title>top5_image</title><g id="レイヤー_2" data-name="レイヤー 2"><g id="レイヤー_1-2" data-name="レイヤー 1"><path class="cls-1" d="M1.57.12A.34.34,0,0,1,2,0,3.54,3.54,0,0,0,5,.82,22.42,22.42,0,0,1,14.72.51a7.61,7.61,0,0,1,2.46.83,10.48,10.48,0,0,1,2.36,2c.91,1,.4,2.32-.2,3.25a7.6,7.6,0,0,1-1.63,1.95,17.93,17.93,0,0,1-4.14,2.1c-.1,0-.22.23-.19.27.75,1,2,1.37,2.43,2.59A43,43,0,0,1,23,20.32c.76.87,1.76,1.56,2,2.82a3.16,3.16,0,0,1-.44,1.7.23.23,0,0,1-.29.11,3.08,3.08,0,0,1-1.45-1.31A15.37,15.37,0,0,0,21,21c-.18-.18-.44-.26-.61-.46-2.55-2.9-4.73-5.77-7.7-8.23a5.31,5.31,0,0,0-2.39-1.43c-1.92-.29-3.75-.56-5.66-.69a1.89,1.89,0,0,1-1.6-1.12c-.17-.66.84-1,1.49-1.11,2.64-.36,5,.61,7.53,1.31,1.1.3,2.27-.46,3.38-.93a4.49,4.49,0,0,0,2.43-2.14,3.29,3.29,0,0,0-.46-2.94c-.92-1.65-3-2-4.75-1.92a21.22,21.22,0,0,0-3.95.3c-2.2.44-4.28.49-6.31,1.29a.68.68,0,0,0-.32.61C2,5.74,1.74,7.89,1.59,10.07c-.05.78-.25,1.59-.28,2.37-.08,3,1.61,5.67,2.16,8.69.17,1,.83,1.74.62,2.75a3.46,3.46,0,0,1-.49,1.4c-.34.47-.86.1-.94-.33-.32-1.57-1.42-2.64-1.9-4.08a6.61,6.61,0,0,1,0-2.66,2.24,2.24,0,0,0-.11-.54,4.3,4.3,0,0,1,0-1c-.14-1.61.13-3.2-.24-4.8A22.23,22.23,0,0,1,.51,3c.1-.6.92-.73.9-1.29S1.33.87,1.29.44C1.28.34,1.46.23,1.57.12Z"/><path class="cls-1" d="M56.7,23.67A10.79,10.79,0,0,1,52,27.16c-.1,0-.38-.15-.36-.27.59-2.9,2.1-5.29,2.43-8.15,0-.4-.54-1.29-.88-1-1.7,1.7-2.93,3.93-5.13,5a3.11,3.11,0,0,1-1.82-2.89,4.62,4.62,0,0,0,.72-6.08.2.2,0,0,0-.3.08,5.82,5.82,0,0,0-1,2.68,16,16,0,0,1-.17,3.85,2.09,2.09,0,0,1-.77.92,4.46,4.46,0,0,1-5.72.45c-1.31-1-.43-2.74-.87-4-.17-.47-.84-.64-.87-1.32a18.56,18.56,0,0,0,.09-2.24c-.16-1-.83-2.18-1.77-2a5.58,5.58,0,0,0-4,3.92c-.67,1.95-.32,4-1,6-.12.35-.71.51-1,.9a4.53,4.53,0,0,0-.25,1.69c.85-.09,1.23-1.09,2-1.12s1.83.53,2.78.15A3.14,3.14,0,0,0,36,21.66c.14-.47.62-1.21.91-1,1.21,1,1.79,2.84,3.35,3.29a4.67,4.67,0,0,0,4.65-1.52c1.13-1.22,2,1.1,2.59,2,.7-.43,1.55-.56,2.12-1.19s.7-1.41,1.43-1.65c.42-.14.67.42.66.7-.12,2.81-1.45,5.39-2.84,7.91-.08.14-.34.18-.38.34a6.4,6.4,0,0,1-.6,1.79,8.82,8.82,0,0,0-1.33,3,.39.39,0,0,0,.3.38c1.33.08,1.82-1.32,2.49-2.26a5.46,5.46,0,0,0,1-2.41c0-.08.2-.12.28-.22s.18-.45.35-.62.38-.25.5-.45a5.29,5.29,0,0,1,1.61-1.72c1.2-.9,2.83-1,3.54-2.29C56.91,25.2,56.7,24.39,56.7,23.67ZM36.43,20.21c-1.16,1.13-2.38,3.64-4.22,2A1.66,1.66,0,0,1,31.6,21c.08-2.21.24-4.73,2.18-6.33.88-.73,2.51-.83,2.62.55,0,.25-.09.59-.09.85,0,.8-.38,1.55-.15,2.21S37,19.62,36.43,20.21Z"/><path class="cls-1" d="M18,31.71a.93.93,0,0,0,.63-1c0-.75-.47-1.17-1.28-1.17H15.85v4.49h1.5c.92,0,1.41-.44,1.41-1.27A1,1,0,0,0,18,31.71ZM16.7,30.34h.41c.5,0,.67.13.67.51s-.19.52-.64.52H16.7Zm.46,3H16.7v-1.2h.43c.53,0,.75.18.75.59S17.66,33.31,17.16,33.31Z"/><polyline class="cls-1" points="23.23 29.58 20.61 29.58 20.61 34.07 23.23 34.07 23.23 33.3 21.46 33.3 21.46 32.06 23.03 32.06 23.03 31.31 21.46 31.31 21.46 30.34 23.23 30.34 23.23 29.58"/><path class="cls-1" d="M27.12,29.58h-1L25,34.07h.89l.23-.94h1.11l.22.94h.9Zm-.49,1.09L27,32.38h-.77Z"/><polyline class="cls-1" points="33.81 29.58 33.81 34.07 33 34.07 33 31.58 32.32 34.07 31.63 34.07 30.95 31.58 30.95 34.07 30.13 34.07 30.13 29.58 31.18 29.58 31.98 32.59 32.77 29.58 33.81 29.58"/><path class="cls-1" d="M38.7,30.9v0a1.27,1.27,0,0,0-1.4-1.38,1.34,1.34,0,0,0-1.47,1.35c0,.6.3,1,1,1.25l.53.21c.34.13.5.32.5.58a.58.58,0,0,1-.62.56c-.45,0-.66-.25-.67-.81h-.88v.13a1.37,1.37,0,0,0,1.53,1.45,1.39,1.39,0,0,0,1.51-1.41c0-.64-.3-1-1.07-1.3l-.51-.19c-.34-.13-.48-.29-.48-.55a.52.52,0,0,1,.57-.51.58.58,0,0,1,.61.62v0h.81"/></g></g></svg>