<svg xmlns="http://www.w3.org/2000/svg" viewBox="0 0 46.24 9.55"><title>アセット 27_image</title><g id="レイヤー_2" data-name="レイヤー 2"><g id="レイヤー_1-2" data-name="レイヤー 1"><path d="M5.38,2.57a3,3,0,0,0-.77-.46A2.09,2.09,0,0,0,3.86,2a1.22,1.22,0,0,0-.74.21.69.69,0,0,0-.29.57A.53.53,0,0,0,3,3.13a1,1,0,0,0,.37.27,3.65,3.65,0,0,0,.53.2l.58.18a3.67,3.67,0,0,1,1.69,1,2.48,2.48,0,0,1,.53,1.67,3.21,3.21,0,0,1-.23,1.26,2.66,2.66,0,0,1-.68,1,3.31,3.31,0,0,1-1.11.62,4.52,4.52,0,0,1-1.48.22A5.47,5.47,0,0,1,0,8.53L1,6.64a4.07,4.07,0,0,0,1,.69,2.59,2.59,0,0,0,1,.23,1.24,1.24,0,0,0,.86-.26.81.81,0,0,0,.28-.6.8.8,0,0,0-.07-.36.76.76,0,0,0-.24-.27,1.64,1.64,0,0,0-.44-.24l-.65-.24c-.31-.09-.6-.2-.9-.32a2.77,2.77,0,0,1-.78-.46,2.22,2.22,0,0,1-.55-.72A2.62,2.62,0,0,1,.37,3,3.36,3.36,0,0,1,.59,1.76,2.67,2.67,0,0,1,2.2.22,3.58,3.58,0,0,1,3.5,0,5.48,5.48,0,0,1,4.91.19a6,6,0,0,1,1.4.54Z"/><path d="M11.71,3.74h3.4V.25h2.35V9.3H15.11V5.57h-3.4V9.3H9.36v-9h2.35Z"/><path d="M26.1,7.73H22.74L22.2,9.3H19.69l3.45-9H25.7L29.15,9.3H26.64Zm-.62-1.79-1.06-3-1.06,3Z"/><path d="M38.9,9.3H36L33.73,5.82V9.3H31.38v-9H35a3.8,3.8,0,0,1,1.32.22A2.49,2.49,0,0,1,37.84,2,2.92,2.92,0,0,1,38,3.05a2.66,2.66,0,0,1-.5,1.67,2.48,2.48,0,0,1-1.47.87Zm-5.17-5h.44A1.71,1.71,0,0,0,35.24,4a1,1,0,0,0,.38-.83,1,1,0,0,0-.38-.83,1.71,1.71,0,0,0-1.07-.29h-.44Z"/><path d="M46.24,2.24h-2.8V3.76h2.64v2H43.44V7.31h2.8v2H41.09v-9h5.15Z"/></g></g></svg>