<svg xmlns="http://www.w3.org/2000/svg" viewBox="0 0 1271.81 87.5"><defs><style>.cls-1{fill:#fff;}</style></defs><title>アセット 11_image</title><g id="レイヤー_2" data-name="レイヤー 2"><g id="レイヤー_1-2" data-name="レイヤー 1"><path class="cls-1" d="M398.32,85.18l104.74-4.56,6-.26c.94,0,4.81-.24,2.16-.7-3.84-.67-9.37.91-13.29,1.29-8.29.81-16.58,1.63-24.87,2.38-16.94,1.54-33.92,2.83-50.93,3.27q-5.73.15-11.47.17c-1.9,0-3.81,0-5.71,0,.3,0-3.79,0-3.8-.06-.16-.84,1.68-1.94,2.18-2.34,5.42-4.34,12.47-7.25,19.08-9.14,13-3.71,26.67-3.36,39.95-1.82,13.85,1.62,27.49,4.62,41.3,6.47,14.39,1.94,28.89,1.9,43.36,1,16.72-1.06,33.33-3.22,50-4.86,17-1.66,34.06-3,51.08-4.54Q700,66.72,751.85,61.38q103-10.59,205.65-23.59,102.24-12.94,204.16-28.28,12.73-1.92,25.46-3.87c.42-.06.32-.75-.1-.74l-22.11.61-10.58.29c-3.71.1-7.88-.36-11.53.31-1,.19-3.3.22-.89.57,1.8.26,4.09-.39,5.91-.56q5.43-.5,10.86-.94,11.34-.95,22.71-1.69,45-2.94,90.06-2.73a.38.38,0,0,0,0-.75A1308.41,1308.41,0,0,0,1139,6.22c-.47,0-.49.76,0,.75l42.3-1.16,1.93,0c1.62.58,2.21.4,1.79-.54-.46.58-4,.61-4.9.75L1169.3,7.6q-10.77,1.63-21.55,3.24-43.11,6.4-86.27,12.4-86.29,12-172.8,22.24T715.39,64.31q-43.56,4.29-87.15,8.16c-27.69,2.45-55.38,6.12-83.13,7.73a217.81,217.81,0,0,1-43.47-1.37c-11.87-1.7-23.62-4.13-35.5-5.72-23.78-3.17-47.79-2-67.17,13.63-.27.22,0,.63.26.64,38.41.92,76.63-3.63,114.8-7.24.47,0,.49-.77,0-.75l-115.71,5c-.48,0-.48.77,0,.75Z"/><path class="cls-1" d="M322.66,59.33q145.14.41,290.23-4.95Q756.95,49.05,900.72,38,982,31.77,1063.13,23.71c.48,0,.48-.79,0-.75Q918.7,37.3,773.76,45.9,629.87,54.42,485.69,57.23q-81.51,1.59-163,1.35a.38.38,0,0,0,0,.75Z"/><path class="cls-1" d="M.36,42.44q127.89,5.27,255.84,8.19,127.47,2.9,255,3.43,72.21.31,144.42-.13a.38.38,0,0,0,0-.75q-128,.78-256-.79-127.49-1.57-254.92-5.5Q72.51,44.67.36,41.69a.38.38,0,0,0,0,.75Z"/></g></g></svg>