<svg xmlns="http://www.w3.org/2000/svg" viewBox="0 0 644.63 144.4"><defs><style>.cls-1{fill:#fff;}</style></defs><title>アセット 12_image</title><g id="レイヤー_2" data-name="レイヤー 2"><g id="レイヤー_1-2" data-name="レイヤー 1"><path class="cls-1" d="M8,74v35.66H0V23.55H14.76q16.59,0,16.6,16.6V57.37q0,16.6-16.6,16.6ZM23.36,37.7c0-8.86-3.07-11.93-7.38-11.93H8V71.51h8c4.31,0,7.38-3.07,7.38-11.68Z"/><path class="cls-1" d="M82,107.17v2.46h-27V23.55h8v83.62Z"/><path class="cls-1" d="M126.19,90h-19.8l-3.32,19.67H100l15.25-86.08h8l14.88,86.08h-8.61ZM106.88,87.5H125.7l-7.38-44.27L116.6,30.44Z"/><path class="cls-1" d="M164.77,79.51l-16.11-56h8.12L168.7,67.09l2.22,8.73,12.29-52.27h3.08l-13.53,56v30.12h-8Z"/><path class="cls-1" d="M277.9,109.63V25.77H263.76V23.55H300v2.22H285.89v83.86Z"/><path class="cls-1" d="M310.5,76.43h28.28v2.46H310.5Z"/><path class="cls-1" d="M392.09,90c0,13.52-6.77,20.29-16.6,20.29-9.23,0-16-6.77-16-20.29V78.89h7.38v16c0,9.22,3.69,13.52,8.61,13.52s8.61-4.3,8.61-13.52V88c0-10.33-4.31-14.14-11.44-20.9l-2.34-2.22c-5.78-5.53-10.82-10-10.82-19.18V40.15c0-10.45,6.76-17.21,16-17.21,8.61,0,15.37,6.76,15.37,17.21V51.22h-7.38V37.7c0-8.61-3.69-12.92-8-12.92s-8,4.31-8,12.92v5.53c0,7.38,3.94,11.19,9.1,16.11l2.34,2.21c7,6.64,13.16,13,13.16,22.51Z"/><path class="cls-1" d="M449.81,23.55v86.08h-8V68.44H423.37v41.19h-8V23.55h8V66h18.45V23.55Z"/><path class="cls-1" d="M483.17,109.63h-8V23.55h8Z"/><path class="cls-1" d="M528.57,71.14l15.62,38.49h-9.1L520.83,71.51H516.4v38.12h-8V23.55h15.37c11.06,0,16,4.92,16,16v16C539.76,64.87,536.2,69.79,528.57,71.14Zm3.2-34.06c0-8.85-2.46-11.31-6.76-11.31H516.4V69.05H525c4.3,0,6.76-2.46,6.76-11.06Z"/><path class="cls-1" d="M572.58,109.63V25.77H558.44V23.55h36.28v2.22H580.58v83.86Z"/><path class="cls-1" d="M644.63,90c0,13.52-6.76,20.29-16.6,20.29-9.22,0-16-6.77-16-20.29V78.89h7.38v16c0,9.22,3.69,13.52,8.61,13.52s8.61-4.3,8.61-13.52V88c0-10.33-4.3-14.14-11.44-20.9l-2.33-2.22c-5.78-5.53-10.83-10-10.83-19.18V40.15c0-10.45,6.77-17.21,16-17.21,8.61,0,15.37,6.76,15.37,17.21V51.22H636V37.7c0-8.61-3.68-12.92-8-12.92s-8,4.31-8,12.92v5.53c0,7.38,3.93,11.19,9.1,16.11l2.33,2.21c7,6.64,13.16,13,13.16,22.51Z"/><path class="cls-1" d="M203.87,144.4h-3.11L241.13,0h3.11Z"/></g></g></svg>